solid bolt_mount_for_shaft
facet normal 0.0 0.0 -1.0
  outer loop
    vertex -120.4240556136883 42.26274304249769 -2.255973186038318e-14
    vertex -120.21531762682022 40.21899895314559 -2.255973186038318e-14
    vertex -120.4542186271506 41.22713055916537 -2.255973186038318e-14
  endloop
endfacet
facet normal 0.0 0.0 -1.0
  outer loop
    vertex -120.21531762682022 40.21899895314559 -2.255973186038318e-14
    vertex -120.4240556136883 42.26274304249769 -2.255973186038318e-14
    vertex -120.12688414595404 43.25526112383402 -2.255973186038318e-14
  endloop
endfacet
facet normal 0.0 0.0 -1.0
  outer loop
    vertex -120.21531762682022 40.21899895314559 -2.255973186038318e-14
    vertex -120.12688414595404 43.25526112383402 -2.255973186038318e-14
    vertex -119.72363332106713 39.30705072737235 -2.255973186038318e-14
  endloop
endfacet
facet normal 0.0 0.0 -1.0
  outer loop
    vertex -119.72363332106713 39.30705072737235 -2.255973186038318e-14
    vertex -120.12688414595404 43.25526112383402 -2.255973186038318e-14
    vertex -119.5829559683748 44.13704633614494 -2.255973186038318e-14
  endloop
endfacet
facet normal 0.0 0.0 -1.0
  outer loop
    vertex -119.72363332106713 39.30705072737235 -2.255973186038318e-14
    vertex -119.5829559683748 44.13704633614494 -2.255973186038318e-14
    vertex -119.66457654785827 41.30778072414275 -2.255973186038318e-14
  endloop
endfacet
facet normal 0.0 0.0 -1.0
  outer loop
    vertex -119.66457654785827 41.30778072414275 -2.255973186038318e-14
    vertex -119.5829559683748 44.13704633614494 -2.255973186038318e-14
    vertex -119.64044613708843 42.13627071080861 -2.255973186038318e-14
  endloop
endfacet
facet normal 0.0 0.0 -1.0
  outer loop
    vertex -119.64044613708843 42.13627071080861 -2.255973186038318e-14
    vertex -119.5829559683748 44.13704633614494 -2.255973186038318e-14
    vertex -119.402708962901 42.93028517587767 -2.255973186038318e-14
  endloop
endfacet
facet normal 0.0 0.0 -1.0
  outer loop
    vertex -119.402708962901 42.93028517587767 -2.255973186038318e-14
    vertex -119.5829559683748 44.13704633614494 -2.255973186038318e-14
    vertex -118.82933888736888 44.84800647443045 -2.255973186038318e-14
  endloop
endfacet
facet normal 0.0 0.0 -1.0
  outer loop
    vertex -119.402708962901 42.93028517587767 -2.255973186038318e-14
    vertex -118.82933888736888 44.84800647443045 -2.255973186038318e-14
    vertex -118.96756642083763 43.635713345726415 -2.255973186038318e-14
  endloop
endfacet
facet normal 0.0 0.0 -1.0
  outer loop
    vertex -118.96756642083763 43.635713345726415 -2.255973186038318e-14
    vertex -118.82933888736888 44.84800647443045 -2.255973186038318e-14
    vertex -118.36467275603289 44.20448145635483 -2.255973186038318e-14
  endloop
endfacet
facet normal 0.0 0.0 -1.0
  outer loop
    vertex -118.36467275603289 44.20448145635483 -2.255973186038318e-14
    vertex -118.82933888736888 44.84800647443045 -2.255973186038318e-14
    vertex -117.91739066159563 45.33969078018356 -2.255973186038318e-14
  endloop
endfacet
facet normal 0.0 0.0 -1.0
  outer loop
    vertex -118.36467275603289 44.20448145635483 -2.255973186038318e-14
    vertex -117.91739066159563 45.33969078018356 -2.255973186038318e-14
    vertex -117.63511417541429 44.59782890095731 -2.255973186038318e-14
  endloop
endfacet
facet normal 0.0 0.0 -1.0
  outer loop
    vertex -117.63511417541429 44.59782890095731 -2.255973186038318e-14
    vertex -117.91739066159563 45.33969078018356 -2.255973186038318e-14
    vertex -116.90925905557584 45.57859178051394 -2.255973186038318e-14
  endloop
endfacet
facet normal 0.0 0.0 -1.0
  outer loop
    vertex -117.63511417541429 44.59782890095731 -2.255973186038318e-14
    vertex -116.90925905557584 45.57859178051394 -2.255973186038318e-14
    vertex -116.82860889059846 44.78894970122161 -2.255973186038318e-14
  endloop
endfacet
facet normal 0.0 0.0 -1.0
  outer loop
    vertex -116.82860889059846 44.78894970122161 -2.255973186038318e-14
    vertex -116.90925905557584 45.57859178051394 -2.255973186038318e-14
    vertex -115.87364657224352 45.54842876705163 -2.255973186038318e-14
  endloop
endfacet
facet normal 0.0 0.0 -1.0
  outer loop
    vertex -116.82860889059846 44.78894970122161 -2.255973186038318e-14
    vertex -115.87364657224352 45.54842876705163 -2.255973186038318e-14
    vertex -116.00011890393259 44.76481929045176 -2.255973186038318e-14
  endloop
endfacet
facet normal 0.0 0.0 -1.0
  outer loop
    vertex -116.00011890393259 44.76481929045176 -2.255973186038318e-14
    vertex -115.87364657224352 45.54842876705163 -2.255973186038318e-14
    vertex -115.20610443886355 44.527082116264346 -2.255973186038318e-14
  endloop
endfacet
facet normal 0.0 0.0 -1.0
  outer loop
    vertex -115.20610443886355 44.527082116264346 -2.255973186038318e-14
    vertex -115.87364657224352 45.54842876705163 -2.255973186038318e-14
    vertex -114.88112849090719 45.25125729931736 -2.255973186038318e-14
  endloop
endfacet
facet normal 0.0 0.0 -1.0
  outer loop
    vertex -115.20610443886355 44.527082116264346 -2.255973186038318e-14
    vertex -114.88112849090719 45.25125729931736 -2.255973186038318e-14
    vertex -114.50067626901479 44.09193957420098 -2.255973186038318e-14
  endloop
endfacet
facet normal 0.0 0.0 -1.0
  outer loop
    vertex -114.50067626901479 44.09193957420098 -2.255973186038318e-14
    vertex -114.88112849090719 45.25125729931736 -2.255973186038318e-14
    vertex -113.99934327859627 44.70732912173814 -2.255973186038318e-14
  endloop
endfacet
facet normal 0.0 0.0 -1.0
  outer loop
    vertex -114.50067626901479 44.09193957420098 -2.255973186038318e-14
    vertex -113.99934327859627 44.70732912173814 -2.255973186038318e-14
    vertex -113.93190815838639 43.48904590939622 -2.255973186038318e-14
  endloop
endfacet
facet normal 0.0 0.0 -1.0
  outer loop
    vertex -113.93190815838639 43.48904590939622 -2.255973186038318e-14
    vertex -113.99934327859627 44.70732912173814 -2.255973186038318e-14
    vertex -113.28838314031076 43.9537120407322 -2.255973186038318e-14
  endloop
endfacet
facet normal 0.0 0.0 -1.0
  outer loop
    vertex -113.93190815838639 43.48904590939622 -2.255973186038318e-14
    vertex -113.28838314031076 43.9537120407322 -2.255973186038318e-14
    vertex -113.5385607137839 42.759487328777624 -2.255973186038318e-14
  endloop
endfacet
facet normal 0.0 0.0 -1.0
  outer loop
    vertex -113.5385607137839 42.759487328777624 -2.255973186038318e-14
    vertex -113.28838314031076 43.9537120407322 -2.255973186038318e-14
    vertex -113.3474399135196 41.9529820439618 -2.255973186038318e-14
  endloop
endfacet
facet normal 0.0 0.0 -1.0
  outer loop
    vertex -119.66457654785827 41.30778072414275 -2.255973186038318e-14
    vertex -119.0126731827816 38.55343364636641 -2.255973186038318e-14
    vertex -119.72363332106713 39.30705072737235 -2.255973186038318e-14
  endloop
endfacet
facet normal 0.0 0.0 -1.0
  outer loop
    vertex -119.0126731827816 38.55343364636641 -2.255973186038318e-14
    vertex -119.66457654785827 41.30778072414275 -2.255973186038318e-14
    vertex -119.47345574759397 40.501275439326925 -2.255973186038318e-14
  endloop
endfacet
facet normal 0.0 0.0 -1.0
  outer loop
    vertex -119.0126731827816 38.55343364636641 -2.255973186038318e-14
    vertex -119.47345574759397 40.501275439326925 -2.255973186038318e-14
    vertex -119.08010830299149 39.77171685870834 -2.255973186038318e-14
  endloop
endfacet
facet normal 0.0 0.0 -1.0
  outer loop
    vertex -119.0126731827816 38.55343364636641 -2.255973186038318e-14
    vertex -119.08010830299149 39.77171685870834 -2.255973186038318e-14
    vertex -118.5113401923631 39.16882319390358 -2.255973186038318e-14
  endloop
endfacet
facet normal 0.0 0.0 -1.0
  outer loop
    vertex -119.0126731827816 38.55343364636641 -2.255973186038318e-14
    vertex -118.5113401923631 39.16882319390358 -2.255973186038318e-14
    vertex -118.13088797047068 38.0095054687872 -2.255973186038318e-14
  endloop
endfacet
facet normal 0.0 0.0 -1.0
  outer loop
    vertex -118.13088797047068 38.0095054687872 -2.255973186038318e-14
    vertex -118.5113401923631 39.16882319390358 -2.255973186038318e-14
    vertex -117.80591202251433 38.7336806518402 -2.255973186038318e-14
  endloop
endfacet
facet normal 0.0 0.0 -1.0
  outer loop
    vertex -118.13088797047068 38.0095054687872 -2.255973186038318e-14
    vertex -117.80591202251433 38.7336806518402 -2.255973186038318e-14
    vertex -117.13836988913435 37.712334001052916 -2.255973186038318e-14
  endloop
endfacet
facet normal 0.0 0.0 -1.0
  outer loop
    vertex -117.13836988913435 37.712334001052916 -2.255973186038318e-14
    vertex -117.80591202251433 38.7336806518402 -2.255973186038318e-14
    vertex -117.01189755744528 38.49594347765279 -2.255973186038318e-14
  endloop
endfacet
facet normal 0.0 0.0 -1.0
  outer loop
    vertex -117.13836988913435 37.712334001052916 -2.255973186038318e-14
    vertex -117.01189755744528 38.49594347765279 -2.255973186038318e-14
    vertex -116.10275740580202 37.68217098759061 -2.255973186038318e-14
  endloop
endfacet
facet normal 0.0 0.0 -1.0
  outer loop
    vertex -116.10275740580202 37.68217098759061 -2.255973186038318e-14
    vertex -117.01189755744528 38.49594347765279 -2.255973186038318e-14
    vertex -116.18340757077942 38.47181306688294 -2.255973186038318e-14
  endloop
endfacet
facet normal 0.0 0.0 -1.0
  outer loop
    vertex -116.10275740580202 37.68217098759061 -2.255973186038318e-14
    vertex -116.18340757077942 38.47181306688294 -2.255973186038318e-14
    vertex -115.3769022859636 38.66293386714724 -2.255973186038318e-14
  endloop
endfacet
facet normal 0.0 0.0 -1.0
  outer loop
    vertex -116.10275740580202 37.68217098759061 -2.255973186038318e-14
    vertex -115.3769022859636 38.66293386714724 -2.255973186038318e-14
    vertex -115.09462579978225 37.92107198792099 -2.255973186038318e-14
  endloop
endfacet
facet normal 0.0 0.0 -1.0
  outer loop
    vertex -115.09462579978225 37.92107198792099 -2.255973186038318e-14
    vertex -115.3769022859636 38.66293386714724 -2.255973186038318e-14
    vertex -114.647343705345 39.05628131174972 -2.255973186038318e-14
  endloop
endfacet
facet normal 0.0 0.0 -1.0
  outer loop
    vertex -115.09462579978225 37.92107198792099 -2.255973186038318e-14
    vertex -114.647343705345 39.05628131174972 -2.255973186038318e-14
    vertex -114.182677574009 38.4127562936741 -2.255973186038318e-14
  endloop
endfacet
facet normal 0.0 0.0 -1.0
  outer loop
    vertex -114.182677574009 38.4127562936741 -2.255973186038318e-14
    vertex -114.647343705345 39.05628131174972 -2.255973186038318e-14
    vertex -114.04445004054024 39.62504942237813 -2.255973186038318e-14
  endloop
endfacet
facet normal 0.0 0.0 -1.0
  outer loop
    vertex -114.182677574009 38.4127562936741 -2.255973186038318e-14
    vertex -114.04445004054024 39.62504942237813 -2.255973186038318e-14
    vertex -113.42906049300306 39.12371643195961 -2.255973186038318e-14
  endloop
endfacet
facet normal 0.0 0.0 -1.0
  outer loop
    vertex -113.42906049300306 39.12371643195961 -2.255973186038318e-14
    vertex -114.04445004054024 39.62504942237813 -2.255973186038318e-14
    vertex -113.60930749847688 40.33047759222688 -2.255973186038318e-14
  endloop
endfacet
facet normal 0.0 0.0 -1.0
  outer loop
    vertex -113.42906049300306 39.12371643195961 -2.255973186038318e-14
    vertex -113.60930749847688 40.33047759222688 -2.255973186038318e-14
    vertex -113.37157032428944 41.12449205729594 -2.255973186038318e-14
  endloop
endfacet
facet normal 0.0 0.0 -1.0
  outer loop
    vertex -113.42906049300306 39.12371643195961 -2.255973186038318e-14
    vertex -113.37157032428944 41.12449205729594 -2.255973186038318e-14
    vertex -112.88513231542385 40.00550164427053 -2.255973186038318e-14
  endloop
endfacet
facet normal 0.0 0.0 -1.0
  outer loop
    vertex -112.88513231542385 40.00550164427053 -2.255973186038318e-14
    vertex -113.37157032428944 41.12449205729594 -2.255973186038318e-14
    vertex -113.3474399135196 41.9529820439618 -2.255973186038318e-14
  endloop
endfacet
facet normal 0.0 0.0 -1.0
  outer loop
    vertex -112.88513231542385 40.00550164427053 -2.255973186038318e-14
    vertex -113.3474399135196 41.9529820439618 -2.255973186038318e-14
    vertex -113.28838314031076 43.9537120407322 -2.255973186038318e-14
  endloop
endfacet
facet normal 0.0 0.0 -1.0
  outer loop
    vertex -112.88513231542385 40.00550164427053 -2.255973186038318e-14
    vertex -113.28838314031076 43.9537120407322 -2.255973186038318e-14
    vertex -112.79669883455765 43.04176381495896 -2.255973186038318e-14
  endloop
endfacet
facet normal 0.0 0.0 -1.0
  outer loop
    vertex -112.88513231542385 40.00550164427053 -2.255973186038318e-14
    vertex -112.79669883455765 43.04176381495896 -2.255973186038318e-14
    vertex -112.58796084768959 40.99801972560686 -2.255973186038318e-14
  endloop
endfacet
facet normal 0.0 0.0 -1.0
  outer loop
    vertex -112.58796084768959 40.99801972560686 -2.255973186038318e-14
    vertex -112.79669883455765 43.04176381495896 -2.255973186038318e-14
    vertex -112.55779783422727 42.03363220893919 -2.255973186038318e-14
  endloop
endfacet
facet normal 0.9995761143626237 -0.029113426382329097 0.0
  outer loop
    vertex -119.64044613708843 42.13627071080861 -2.255973186038318e-14
    vertex -119.66457654785827 41.30778072414275 15.874999999999977
    vertex -119.66457654785827 41.30778072414275 -2.255973186038318e-14
  endloop
endfacet
facet normal 0.9995761143626237 -0.029113426382329097 0.0
  outer loop
    vertex -119.66457654785827 41.30778072414275 15.874999999999977
    vertex -119.64044613708843 42.13627071080861 -2.255973186038318e-14
    vertex -119.64044613708843 42.13627071080861 15.874999999999977
  endloop
endfacet
facet normal 0.9579812749885904 -0.28683074586110024 0.0
  outer loop
    vertex -119.402708962901 42.93028517587767 -2.255973186038318e-14
    vertex -119.64044613708843 42.13627071080861 15.874999999999977
    vertex -119.64044613708843 42.13627071080861 -2.255973186038318e-14
  endloop
endfacet
facet normal 0.9579812749885904 -0.28683074586110024 0.0
  outer loop
    vertex -119.64044613708843 42.13627071080861 15.874999999999977
    vertex -119.402708962901 42.93028517587767 -2.255973186038318e-14
    vertex -119.402708962901 42.93028517587767 15.874999999999977
  endloop
endfacet
facet normal 0.23058792499215383 -0.9730514934204731 0.0
  outer loop
    vertex -116.82860889059846 44.78894970122161 15.874999999999977
    vertex -117.63511417541429 44.59782890095731 -2.255973186038318e-14
    vertex -116.82860889059846 44.78894970122161 -2.255973186038318e-14
  endloop
endfacet
facet normal 0.23058792499215383 -0.9730514934204731 0.0
  outer loop
    vertex -117.63511417541429 44.59782890095731 -2.255973186038318e-14
    vertex -116.82860889059846 44.78894970122161 15.874999999999977
    vertex -117.63511417541429 44.59782890095731 15.874999999999977
  endloop
endfacet
facet normal -0.2868307458610871 -0.9579812749885942 -0.0
  outer loop
    vertex -115.20610443886355 44.527082116264346 15.874999999999977
    vertex -116.00011890393259 44.76481929045176 -2.255973186038318e-14
    vertex -115.20610443886355 44.527082116264346 -2.255973186038318e-14
  endloop
endfacet
facet normal -0.2868307458610871 -0.9579812749885942 -0.0
  outer loop
    vertex -116.00011890393259 44.76481929045176 -2.255973186038318e-14
    vertex -115.20610443886355 44.527082116264346 15.874999999999977
    vertex -116.00011890393259 44.76481929045176 15.874999999999977
  endloop
endfacet
facet normal -0.029113426382335692 -0.9995761143626234 -0.0
  outer loop
    vertex -116.00011890393259 44.76481929045176 15.874999999999977
    vertex -116.82860889059846 44.78894970122161 -2.255973186038318e-14
    vertex -116.00011890393259 44.76481929045176 -2.255973186038318e-14
  endloop
endfacet
facet normal -0.029113426382335692 -0.9995761143626234 -0.0
  outer loop
    vertex -116.82860889059846 44.78894970122161 -2.255973186038318e-14
    vertex -116.00011890393259 44.76481929045176 15.874999999999977
    vertex -116.82860889059846 44.78894970122161 15.874999999999977
  endloop
endfacet
facet normal -0.5250010240196125 -0.8511015948630095 -0.0
  outer loop
    vertex -114.50067626901479 44.09193957420098 15.874999999999977
    vertex -115.20610443886355 44.527082116264346 -2.255973186038318e-14
    vertex -114.50067626901479 44.09193957420098 -2.255973186038318e-14
  endloop
endfacet
facet normal -0.5250010240196125 -0.8511015948630095 -0.0
  outer loop
    vertex -115.20610443886355 44.527082116264346 -2.255973186038318e-14
    vertex -114.50067626901479 44.09193957420098 15.874999999999977
    vertex -115.20610443886355 44.527082116264346 15.874999999999977
  endloop
endfacet
facet normal 0.6862207475593962 -0.7273933499964264 0.0
  outer loop
    vertex -118.36467275603289 44.20448145635483 15.874999999999977
    vertex -118.96756642083763 43.635713345726415 -2.255973186038318e-14
    vertex -118.36467275603289 44.20448145635483 -2.255973186038318e-14
  endloop
endfacet
facet normal 0.6862207475593962 -0.7273933499964264 0.0
  outer loop
    vertex -118.96756642083763 43.635713345726415 -2.255973186038318e-14
    vertex -118.36467275603289 44.20448145635483 15.874999999999977
    vertex -118.96756642083763 43.635713345726415 15.874999999999977
  endloop
endfacet
facet normal 0.47457509034299816 -0.8802150212453407 0.0
  outer loop
    vertex -117.63511417541429 44.59782890095731 15.874999999999977
    vertex -118.36467275603289 44.20448145635483 -2.255973186038318e-14
    vertex -117.63511417541429 44.59782890095731 -2.255973186038318e-14
  endloop
endfacet
facet normal 0.47457509034299816 -0.8802150212453407 0.0
  outer loop
    vertex -118.36467275603289 44.20448145635483 -2.255973186038318e-14
    vertex -117.63511417541429 44.59782890095731 15.874999999999977
    vertex -118.36467275603289 44.20448145635483 15.874999999999977
  endloop
endfacet
facet normal 0.8511015948630029 -0.5250010240196236 0.0
  outer loop
    vertex -118.96756642083763 43.635713345726415 -2.255973186038318e-14
    vertex -119.402708962901 42.93028517587767 15.874999999999977
    vertex -119.402708962901 42.93028517587767 -2.255973186038318e-14
  endloop
endfacet
facet normal 0.8511015948630029 -0.5250010240196236 0.0
  outer loop
    vertex -119.402708962901 42.93028517587767 15.874999999999977
    vertex -118.96756642083763 43.635713345726415 -2.255973186038318e-14
    vertex -118.96756642083763 43.635713345726415 15.874999999999977
  endloop
endfacet
facet normal 0.5250010240196175 0.8511015948630066 0.0
  outer loop
    vertex -118.5113401923631 39.16882319390358 15.874999999999977
    vertex -117.80591202251433 38.7336806518402 -2.255973186038318e-14
    vertex -118.5113401923631 39.16882319390358 -2.255973186038318e-14
  endloop
endfacet
facet normal 0.5250010240196175 0.8511015948630066 0.0
  outer loop
    vertex -117.80591202251433 38.7336806518402 -2.255973186038318e-14
    vertex -118.5113401923631 39.16882319390358 15.874999999999977
    vertex -117.80591202251433 38.7336806518402 15.874999999999977
  endloop
endfacet
facet normal 0.2868307458610871 0.9579812749885942 0.0
  outer loop
    vertex -117.80591202251433 38.7336806518402 15.874999999999977
    vertex -117.01189755744528 38.49594347765279 -2.255973186038318e-14
    vertex -117.80591202251433 38.7336806518402 -2.255973186038318e-14
  endloop
endfacet
facet normal 0.2868307458610871 0.9579812749885942 0.0
  outer loop
    vertex -117.01189755744528 38.49594347765279 -2.255973186038318e-14
    vertex -117.80591202251433 38.7336806518402 15.874999999999977
    vertex -117.01189755744528 38.49594347765279 15.874999999999977
  endloop
endfacet
facet normal -0.23058792499215383 0.9730514934204731 0.0
  outer loop
    vertex -116.18340757077942 38.47181306688294 15.874999999999977
    vertex -115.3769022859636 38.66293386714724 -2.255973186038318e-14
    vertex -116.18340757077942 38.47181306688294 -2.255973186038318e-14
  endloop
endfacet
facet normal -0.23058792499215383 0.9730514934204731 0.0
  outer loop
    vertex -115.3769022859636 38.66293386714724 -2.255973186038318e-14
    vertex -116.18340757077942 38.47181306688294 15.874999999999977
    vertex -115.3769022859636 38.66293386714724 15.874999999999977
  endloop
endfacet
facet normal 0.029113426382335692 0.9995761143626234 0.0
  outer loop
    vertex -117.01189755744528 38.49594347765279 15.874999999999977
    vertex -116.18340757077942 38.47181306688294 -2.255973186038318e-14
    vertex -117.01189755744528 38.49594347765279 -2.255973186038318e-14
  endloop
endfacet
facet normal 0.029113426382335692 0.9995761143626234 0.0
  outer loop
    vertex -116.18340757077942 38.47181306688294 -2.255973186038318e-14
    vertex -117.01189755744528 38.49594347765279 15.874999999999977
    vertex -116.18340757077942 38.47181306688294 15.874999999999977
  endloop
endfacet
facet normal -0.6862207475593962 0.7273933499964264 0.0
  outer loop
    vertex -114.647343705345 39.05628131174972 15.874999999999977
    vertex -114.04445004054024 39.62504942237813 -2.255973186038318e-14
    vertex -114.647343705345 39.05628131174972 -2.255973186038318e-14
  endloop
endfacet
facet normal -0.6862207475593962 0.7273933499964264 0.0
  outer loop
    vertex -114.04445004054024 39.62504942237813 -2.255973186038318e-14
    vertex -114.647343705345 39.05628131174972 15.874999999999977
    vertex -114.04445004054024 39.62504942237813 15.874999999999977
  endloop
endfacet
facet normal -0.8511015948630046 0.5250010240196205 0.0
  outer loop
    vertex -113.60930749847688 40.33047759222688 15.874999999999977
    vertex -114.04445004054024 39.62504942237813 -2.255973186038318e-14
    vertex -114.04445004054024 39.62504942237813 15.874999999999977
  endloop
endfacet
facet normal -0.8511015948630046 0.5250010240196205 0.0
  outer loop
    vertex -114.04445004054024 39.62504942237813 -2.255973186038318e-14
    vertex -113.60930749847688 40.33047759222688 15.874999999999977
    vertex -113.60930749847688 40.33047759222688 -2.255973186038318e-14
  endloop
endfacet
facet normal -0.47457509034299816 0.8802150212453407 0.0
  outer loop
    vertex -115.3769022859636 38.66293386714724 15.874999999999977
    vertex -114.647343705345 39.05628131174972 -2.255973186038318e-14
    vertex -115.3769022859636 38.66293386714724 -2.255973186038318e-14
  endloop
endfacet
facet normal -0.47457509034299816 0.8802150212453407 0.0
  outer loop
    vertex -114.647343705345 39.05628131174972 -2.255973186038318e-14
    vertex -115.3769022859636 38.66293386714724 15.874999999999977
    vertex -114.647343705345 39.05628131174972 15.874999999999977
  endloop
endfacet
facet normal 0.9730514934204713 0.23058792499216182 0.0
  outer loop
    vertex -119.66457654785827 41.30778072414275 -2.255973186038318e-14
    vertex -119.47345574759397 40.501275439326925 15.874999999999977
    vertex -119.47345574759397 40.501275439326925 -2.255973186038318e-14
  endloop
endfacet
facet normal 0.9730514934204713 0.23058792499216182 0.0
  outer loop
    vertex -119.47345574759397 40.501275439326925 15.874999999999977
    vertex -119.66457654785827 41.30778072414275 -2.255973186038318e-14
    vertex -119.66457654785827 41.30778072414275 15.874999999999977
  endloop
endfacet
facet normal 0.7273933499964393 0.6862207475593824 0.0
  outer loop
    vertex -119.08010830299149 39.77171685870834 -2.255973186038318e-14
    vertex -118.5113401923631 39.16882319390358 15.874999999999977
    vertex -118.5113401923631 39.16882319390358 -2.255973186038318e-14
  endloop
endfacet
facet normal 0.7273933499964393 0.6862207475593824 0.0
  outer loop
    vertex -118.5113401923631 39.16882319390358 15.874999999999977
    vertex -119.08010830299149 39.77171685870834 -2.255973186038318e-14
    vertex -119.08010830299149 39.77171685870834 15.874999999999977
  endloop
endfacet
facet normal 0.8802150212453376 0.4745750903430038 0.0
  outer loop
    vertex -119.47345574759397 40.501275439326925 -2.255973186038318e-14
    vertex -119.08010830299149 39.77171685870834 15.874999999999977
    vertex -119.08010830299149 39.77171685870834 -2.255973186038318e-14
  endloop
endfacet
facet normal 0.8802150212453376 0.4745750903430038 0.0
  outer loop
    vertex -119.08010830299149 39.77171685870834 15.874999999999977
    vertex -119.47345574759397 40.501275439326925 -2.255973186038318e-14
    vertex -119.47345574759397 40.501275439326925 15.874999999999977
  endloop
endfacet
facet normal 0.9995761143626237 -0.0291134263823289 0.0
  outer loop
    vertex -112.55779783422727 42.03363220893919 -2.255973186038318e-14
    vertex -112.58796084768959 40.99801972560686 15.874999999999977
    vertex -112.58796084768959 40.99801972560686 -2.255973186038318e-14
  endloop
endfacet
facet normal 0.9995761143626237 -0.0291134263823289 0.0
  outer loop
    vertex -112.58796084768959 40.99801972560686 15.874999999999977
    vertex -112.55779783422727 42.03363220893919 -2.255973186038318e-14
    vertex -112.55779783422727 42.03363220893919 15.874999999999977
  endloop
endfacet
facet normal 0.9730514934204718 0.23058792499215874 0.0
  outer loop
    vertex -112.79669883455765 43.04176381495896 -2.255973186038318e-14
    vertex -112.55779783422727 42.03363220893919 15.874999999999977
    vertex -112.55779783422727 42.03363220893919 -2.255973186038318e-14
  endloop
endfacet
facet normal 0.9730514934204718 0.23058792499215874 0.0
  outer loop
    vertex -112.55779783422727 42.03363220893919 15.874999999999977
    vertex -112.79669883455765 43.04176381495896 -2.255973186038318e-14
    vertex -112.79669883455765 43.04176381495896 15.874999999999977
  endloop
endfacet
facet normal 0.7273933499964292 0.6862207475593931 0.0
  outer loop
    vertex -113.99934327859627 44.70732912173814 -2.255973186038318e-14
    vertex -113.28838314031076 43.9537120407322 15.874999999999977
    vertex -113.28838314031076 43.9537120407322 -2.255973186038318e-14
  endloop
endfacet
facet normal 0.7273933499964292 0.6862207475593931 0.0
  outer loop
    vertex -113.28838314031076 43.9537120407322 15.874999999999977
    vertex -113.99934327859627 44.70732912173814 -2.255973186038318e-14
    vertex -113.99934327859627 44.70732912173814 15.874999999999977
  endloop
endfacet
facet normal 0.8802150212453403 0.4745750903429984 0.0
  outer loop
    vertex -113.28838314031076 43.9537120407322 -2.255973186038318e-14
    vertex -112.79669883455765 43.04176381495896 15.874999999999977
    vertex -112.79669883455765 43.04176381495896 -2.255973186038318e-14
  endloop
endfacet
facet normal 0.8802150212453403 0.4745750903429984 0.0
  outer loop
    vertex -112.79669883455765 43.04176381495896 15.874999999999977
    vertex -113.28838314031076 43.9537120407322 -2.255973186038318e-14
    vertex -113.28838314031076 43.9537120407322 15.874999999999977
  endloop
endfacet
facet normal -0.02911342638233434 -0.9995761143626236 -0.0
  outer loop
    vertex -116.10275740580202 37.68217098759061 15.874999999999977
    vertex -117.13836988913435 37.712334001052916 -2.255973186038318e-14
    vertex -116.10275740580202 37.68217098759061 -2.255973186038318e-14
  endloop
endfacet
facet normal -0.02911342638233434 -0.9995761143626236 -0.0
  outer loop
    vertex -117.13836988913435 37.712334001052916 -2.255973186038318e-14
    vertex -116.10275740580202 37.68217098759061 15.874999999999977
    vertex -117.13836988913435 37.712334001052916 15.874999999999977
  endloop
endfacet
facet normal 0.2305879249921627 -0.973051493420471 0.0
  outer loop
    vertex -115.09462579978225 37.92107198792099 15.874999999999977
    vertex -116.10275740580202 37.68217098759061 -2.255973186038318e-14
    vertex -115.09462579978225 37.92107198792099 -2.255973186038318e-14
  endloop
endfacet
facet normal 0.2305879249921627 -0.973051493420471 0.0
  outer loop
    vertex -116.10275740580202 37.68217098759061 -2.255973186038318e-14
    vertex -115.09462579978225 37.92107198792099 15.874999999999977
    vertex -116.10275740580202 37.68217098759061 15.874999999999977
  endloop
endfacet
facet normal -0.28683074586108487 -0.957981274988595 -0.0
  outer loop
    vertex -117.13836988913435 37.712334001052916 15.874999999999977
    vertex -118.13088797047068 38.0095054687872 -2.255973186038318e-14
    vertex -117.13836988913435 37.712334001052916 -2.255973186038318e-14
  endloop
endfacet
facet normal -0.28683074586108487 -0.957981274988595 -0.0
  outer loop
    vertex -118.13088797047068 38.0095054687872 -2.255973186038318e-14
    vertex -117.13836988913435 37.712334001052916 15.874999999999977
    vertex -118.13088797047068 38.0095054687872 15.874999999999977
  endloop
endfacet
facet normal -0.5250010240196257 -0.8511015948630015 -0.0
  outer loop
    vertex -118.13088797047068 38.0095054687872 15.874999999999977
    vertex -119.0126731827816 38.55343364636641 -2.255973186038318e-14
    vertex -118.13088797047068 38.0095054687872 -2.255973186038318e-14
  endloop
endfacet
facet normal -0.5250010240196257 -0.8511015948630015 -0.0
  outer loop
    vertex -119.0126731827816 38.55343364636641 -2.255973186038318e-14
    vertex -118.13088797047068 38.0095054687872 15.874999999999977
    vertex -119.0126731827816 38.55343364636641 15.874999999999977
  endloop
endfacet
facet normal 0.4745750903430003 -0.8802150212453392 0.0
  outer loop
    vertex -114.182677574009 38.4127562936741 15.874999999999977
    vertex -115.09462579978225 37.92107198792099 -2.255973186038318e-14
    vertex -114.182677574009 38.4127562936741 -2.255973186038318e-14
  endloop
endfacet
facet normal 0.4745750903430003 -0.8802150212453392 0.0
  outer loop
    vertex -115.09462579978225 37.92107198792099 -2.255973186038318e-14
    vertex -114.182677574009 38.4127562936741 15.874999999999977
    vertex -115.09462579978225 37.92107198792099 15.874999999999977
  endloop
endfacet
facet normal 0.6862207475593927 -0.7273933499964296 0.0
  outer loop
    vertex -113.42906049300306 39.12371643195961 15.874999999999977
    vertex -114.182677574009 38.4127562936741 -2.255973186038318e-14
    vertex -113.42906049300306 39.12371643195961 -2.255973186038318e-14
  endloop
endfacet
facet normal 0.6862207475593927 -0.7273933499964296 0.0
  outer loop
    vertex -114.182677574009 38.4127562936741 -2.255973186038318e-14
    vertex -113.42906049300306 39.12371643195961 15.874999999999977
    vertex -114.182677574009 38.4127562936741 15.874999999999977
  endloop
endfacet
facet normal 0.8511015948629995 -0.5250010240196286 0.0
  outer loop
    vertex -112.88513231542385 40.00550164427053 -2.255973186038318e-14
    vertex -113.42906049300306 39.12371643195961 15.874999999999977
    vertex -113.42906049300306 39.12371643195961 -2.255973186038318e-14
  endloop
endfacet
facet normal 0.8511015948629995 -0.5250010240196286 0.0
  outer loop
    vertex -113.42906049300306 39.12371643195961 15.874999999999977
    vertex -112.88513231542385 40.00550164427053 -2.255973186038318e-14
    vertex -112.88513231542385 40.00550164427053 15.874999999999977
  endloop
endfacet
facet normal 0.9579812749885974 -0.2868307458610763 0.0
  outer loop
    vertex -112.58796084768959 40.99801972560686 -2.255973186038318e-14
    vertex -112.88513231542385 40.00550164427053 15.874999999999977
    vertex -112.88513231542385 40.00550164427053 -2.255973186038318e-14
  endloop
endfacet
facet normal 0.9579812749885974 -0.2868307458610763 0.0
  outer loop
    vertex -112.88513231542385 40.00550164427053 15.874999999999977
    vertex -112.58796084768959 40.99801972560686 -2.255973186038318e-14
    vertex -112.58796084768959 40.99801972560686 15.874999999999977
  endloop
endfacet
facet normal -0.0 -0.0 1.0
  outer loop
    vertex -119.0126731827816 38.55343364636641 15.874999999999977
    vertex -119.66457654785827 41.30778072414275 15.874999999999977
    vertex -119.72363332106713 39.30705072737235 15.874999999999977
  endloop
endfacet
facet normal -0.0 -0.0 1.0
  outer loop
    vertex -119.66457654785827 41.30778072414275 15.874999999999977
    vertex -119.0126731827816 38.55343364636641 15.874999999999977
    vertex -119.47345574759397 40.501275439326925 15.874999999999977
  endloop
endfacet
facet normal -0.0 -0.0 1.0
  outer loop
    vertex -119.47345574759397 40.501275439326925 15.874999999999977
    vertex -119.0126731827816 38.55343364636641 15.874999999999977
    vertex -119.08010830299149 39.77171685870834 15.874999999999977
  endloop
endfacet
facet normal -0.0 -0.0 1.0
  outer loop
    vertex -119.08010830299149 39.77171685870834 15.874999999999977
    vertex -119.0126731827816 38.55343364636641 15.874999999999977
    vertex -118.5113401923631 39.16882319390358 15.874999999999977
  endloop
endfacet
facet normal -0.0 -0.0 1.0
  outer loop
    vertex -118.5113401923631 39.16882319390358 15.874999999999977
    vertex -119.0126731827816 38.55343364636641 15.874999999999977
    vertex -118.13088797047068 38.0095054687872 15.874999999999977
  endloop
endfacet
facet normal -0.0 -0.0 1.0
  outer loop
    vertex -118.5113401923631 39.16882319390358 15.874999999999977
    vertex -118.13088797047068 38.0095054687872 15.874999999999977
    vertex -117.80591202251433 38.7336806518402 15.874999999999977
  endloop
endfacet
facet normal -0.0 -0.0 1.0
  outer loop
    vertex -117.80591202251433 38.7336806518402 15.874999999999977
    vertex -118.13088797047068 38.0095054687872 15.874999999999977
    vertex -117.13836988913435 37.712334001052916 15.874999999999977
  endloop
endfacet
facet normal -0.0 -0.0 1.0
  outer loop
    vertex -117.80591202251433 38.7336806518402 15.874999999999977
    vertex -117.13836988913435 37.712334001052916 15.874999999999977
    vertex -117.01189755744528 38.49594347765279 15.874999999999977
  endloop
endfacet
facet normal -0.0 -0.0 1.0
  outer loop
    vertex -117.01189755744528 38.49594347765279 15.874999999999977
    vertex -117.13836988913435 37.712334001052916 15.874999999999977
    vertex -116.10275740580202 37.68217098759061 15.874999999999977
  endloop
endfacet
facet normal -0.0 -0.0 1.0
  outer loop
    vertex -117.01189755744528 38.49594347765279 15.874999999999977
    vertex -116.10275740580202 37.68217098759061 15.874999999999977
    vertex -116.18340757077942 38.47181306688294 15.874999999999977
  endloop
endfacet
facet normal -0.0 -0.0 1.0
  outer loop
    vertex -116.18340757077942 38.47181306688294 15.874999999999977
    vertex -116.10275740580202 37.68217098759061 15.874999999999977
    vertex -115.3769022859636 38.66293386714724 15.874999999999977
  endloop
endfacet
facet normal -0.0 -0.0 1.0
  outer loop
    vertex -115.3769022859636 38.66293386714724 15.874999999999977
    vertex -116.10275740580202 37.68217098759061 15.874999999999977
    vertex -115.09462579978225 37.92107198792099 15.874999999999977
  endloop
endfacet
facet normal -0.0 -0.0 1.0
  outer loop
    vertex -115.3769022859636 38.66293386714724 15.874999999999977
    vertex -115.09462579978225 37.92107198792099 15.874999999999977
    vertex -114.647343705345 39.05628131174972 15.874999999999977
  endloop
endfacet
facet normal -0.0 -0.0 1.0
  outer loop
    vertex -114.647343705345 39.05628131174972 15.874999999999977
    vertex -115.09462579978225 37.92107198792099 15.874999999999977
    vertex -114.182677574009 38.4127562936741 15.874999999999977
  endloop
endfacet
facet normal -0.0 -0.0 1.0
  outer loop
    vertex -114.647343705345 39.05628131174972 15.874999999999977
    vertex -114.182677574009 38.4127562936741 15.874999999999977
    vertex -114.04445004054024 39.62504942237813 15.874999999999977
  endloop
endfacet
facet normal -0.0 -0.0 1.0
  outer loop
    vertex -114.04445004054024 39.62504942237813 15.874999999999977
    vertex -114.182677574009 38.4127562936741 15.874999999999977
    vertex -113.42906049300306 39.12371643195961 15.874999999999977
  endloop
endfacet
facet normal -0.0 -0.0 1.0
  outer loop
    vertex -114.04445004054024 39.62504942237813 15.874999999999977
    vertex -113.42906049300306 39.12371643195961 15.874999999999977
    vertex -113.60930749847688 40.33047759222688 15.874999999999977
  endloop
endfacet
facet normal -0.0 -0.0 1.0
  outer loop
    vertex -113.60930749847688 40.33047759222688 15.874999999999977
    vertex -113.42906049300306 39.12371643195961 15.874999999999977
    vertex -113.37157032428944 41.12449205729594 15.874999999999977
  endloop
endfacet
facet normal -0.0 -0.0 1.0
  outer loop
    vertex -113.37157032428944 41.12449205729594 15.874999999999977
    vertex -113.42906049300306 39.12371643195961 15.874999999999977
    vertex -112.88513231542385 40.00550164427053 15.874999999999977
  endloop
endfacet
facet normal -0.0 -0.0 1.0
  outer loop
    vertex -113.37157032428944 41.12449205729594 15.874999999999977
    vertex -112.88513231542385 40.00550164427053 15.874999999999977
    vertex -113.3474399135196 41.9529820439618 15.874999999999977
  endloop
endfacet
facet normal -0.0 -0.0 1.0
  outer loop
    vertex -113.3474399135196 41.9529820439618 15.874999999999977
    vertex -112.88513231542385 40.00550164427053 15.874999999999977
    vertex -113.28838314031076 43.9537120407322 15.874999999999977
  endloop
endfacet
facet normal -0.0 -0.0 1.0
  outer loop
    vertex -113.28838314031076 43.9537120407322 15.874999999999977
    vertex -112.88513231542385 40.00550164427053 15.874999999999977
    vertex -112.79669883455765 43.04176381495896 15.874999999999977
  endloop
endfacet
facet normal -0.0 -0.0 1.0
  outer loop
    vertex -112.79669883455765 43.04176381495896 15.874999999999977
    vertex -112.88513231542385 40.00550164427053 15.874999999999977
    vertex -112.58796084768959 40.99801972560686 15.874999999999977
  endloop
endfacet
facet normal -0.0 -0.0 1.0
  outer loop
    vertex -112.79669883455765 43.04176381495896 15.874999999999977
    vertex -112.58796084768959 40.99801972560686 15.874999999999977
    vertex -112.55779783422727 42.03363220893919 15.874999999999977
  endloop
endfacet
facet normal -0.0 -0.0 1.0
  outer loop
    vertex -120.21531762682022 40.21899895314559 15.874999999999977
    vertex -120.4240556136883 42.26274304249769 15.874999999999977
    vertex -120.4542186271506 41.22713055916537 15.874999999999977
  endloop
endfacet
facet normal -0.0 -0.0 1.0
  outer loop
    vertex -120.4240556136883 42.26274304249769 15.874999999999977
    vertex -120.21531762682022 40.21899895314559 15.874999999999977
    vertex -120.12688414595404 43.25526112383402 15.874999999999977
  endloop
endfacet
facet normal -0.0 -0.0 1.0
  outer loop
    vertex -120.12688414595404 43.25526112383402 15.874999999999977
    vertex -120.21531762682022 40.21899895314559 15.874999999999977
    vertex -119.72363332106713 39.30705072737235 15.874999999999977
  endloop
endfacet
facet normal -0.0 -0.0 1.0
  outer loop
    vertex -120.12688414595404 43.25526112383402 15.874999999999977
    vertex -119.72363332106713 39.30705072737235 15.874999999999977
    vertex -119.5829559683748 44.13704633614494 15.874999999999977
  endloop
endfacet
facet normal -0.0 -0.0 1.0
  outer loop
    vertex -119.5829559683748 44.13704633614494 15.874999999999977
    vertex -119.72363332106713 39.30705072737235 15.874999999999977
    vertex -119.66457654785827 41.30778072414275 15.874999999999977
  endloop
endfacet
facet normal -0.0 -0.0 1.0
  outer loop
    vertex -119.5829559683748 44.13704633614494 15.874999999999977
    vertex -119.66457654785827 41.30778072414275 15.874999999999977
    vertex -119.64044613708843 42.13627071080861 15.874999999999977
  endloop
endfacet
facet normal -0.0 -0.0 1.0
  outer loop
    vertex -119.5829559683748 44.13704633614494 15.874999999999977
    vertex -119.64044613708843 42.13627071080861 15.874999999999977
    vertex -119.402708962901 42.93028517587767 15.874999999999977
  endloop
endfacet
facet normal -0.0 -0.0 1.0
  outer loop
    vertex -119.5829559683748 44.13704633614494 15.874999999999977
    vertex -119.402708962901 42.93028517587767 15.874999999999977
    vertex -118.82933888736888 44.84800647443045 15.874999999999977
  endloop
endfacet
facet normal -0.0 -0.0 1.0
  outer loop
    vertex -118.82933888736888 44.84800647443045 15.874999999999977
    vertex -119.402708962901 42.93028517587767 15.874999999999977
    vertex -118.96756642083763 43.635713345726415 15.874999999999977
  endloop
endfacet
facet normal -0.0 -0.0 1.0
  outer loop
    vertex -118.82933888736888 44.84800647443045 15.874999999999977
    vertex -118.96756642083763 43.635713345726415 15.874999999999977
    vertex -118.36467275603289 44.20448145635483 15.874999999999977
  endloop
endfacet
facet normal -0.0 -0.0 1.0
  outer loop
    vertex -118.82933888736888 44.84800647443045 15.874999999999977
    vertex -118.36467275603289 44.20448145635483 15.874999999999977
    vertex -117.91739066159563 45.33969078018356 15.874999999999977
  endloop
endfacet
facet normal -0.0 -0.0 1.0
  outer loop
    vertex -117.91739066159563 45.33969078018356 15.874999999999977
    vertex -118.36467275603289 44.20448145635483 15.874999999999977
    vertex -117.63511417541429 44.59782890095731 15.874999999999977
  endloop
endfacet
facet normal -0.0 -0.0 1.0
  outer loop
    vertex -117.91739066159563 45.33969078018356 15.874999999999977
    vertex -117.63511417541429 44.59782890095731 15.874999999999977
    vertex -116.90925905557584 45.57859178051394 15.874999999999977
  endloop
endfacet
facet normal -0.0 -0.0 1.0
  outer loop
    vertex -116.90925905557584 45.57859178051394 15.874999999999977
    vertex -117.63511417541429 44.59782890095731 15.874999999999977
    vertex -116.82860889059846 44.78894970122161 15.874999999999977
  endloop
endfacet
facet normal -0.0 -0.0 1.0
  outer loop
    vertex -116.90925905557584 45.57859178051394 15.874999999999977
    vertex -116.82860889059846 44.78894970122161 15.874999999999977
    vertex -115.87364657224352 45.54842876705163 15.874999999999977
  endloop
endfacet
facet normal -0.0 -0.0 1.0
  outer loop
    vertex -115.87364657224352 45.54842876705163 15.874999999999977
    vertex -116.82860889059846 44.78894970122161 15.874999999999977
    vertex -116.00011890393259 44.76481929045176 15.874999999999977
  endloop
endfacet
facet normal -0.0 -0.0 1.0
  outer loop
    vertex -115.87364657224352 45.54842876705163 15.874999999999977
    vertex -116.00011890393259 44.76481929045176 15.874999999999977
    vertex -115.20610443886355 44.527082116264346 15.874999999999977
  endloop
endfacet
facet normal -0.0 -0.0 1.0
  outer loop
    vertex -115.87364657224352 45.54842876705163 15.874999999999977
    vertex -115.20610443886355 44.527082116264346 15.874999999999977
    vertex -114.88112849090719 45.25125729931736 15.874999999999977
  endloop
endfacet
facet normal -0.0 -0.0 1.0
  outer loop
    vertex -114.88112849090719 45.25125729931736 15.874999999999977
    vertex -115.20610443886355 44.527082116264346 15.874999999999977
    vertex -114.50067626901479 44.09193957420098 15.874999999999977
  endloop
endfacet
facet normal -0.0 -0.0 1.0
  outer loop
    vertex -114.88112849090719 45.25125729931736 15.874999999999977
    vertex -114.50067626901479 44.09193957420098 15.874999999999977
    vertex -113.99934327859627 44.70732912173814 15.874999999999977
  endloop
endfacet
facet normal -0.0 -0.0 1.0
  outer loop
    vertex -113.99934327859627 44.70732912173814 15.874999999999977
    vertex -114.50067626901479 44.09193957420098 15.874999999999977
    vertex -113.93190815838639 43.48904590939622 15.874999999999977
  endloop
endfacet
facet normal -0.0 -0.0 1.0
  outer loop
    vertex -113.99934327859627 44.70732912173814 15.874999999999977
    vertex -113.93190815838639 43.48904590939622 15.874999999999977
    vertex -113.28838314031076 43.9537120407322 15.874999999999977
  endloop
endfacet
facet normal -0.0 -0.0 1.0
  outer loop
    vertex -113.28838314031076 43.9537120407322 15.874999999999977
    vertex -113.93190815838639 43.48904590939622 15.874999999999977
    vertex -113.5385607137839 42.759487328777624 15.874999999999977
  endloop
endfacet
facet normal -0.0 -0.0 1.0
  outer loop
    vertex -113.28838314031076 43.9537120407322 15.874999999999977
    vertex -113.5385607137839 42.759487328777624 15.874999999999977
    vertex -113.3474399135196 41.9529820439618 15.874999999999977
  endloop
endfacet
facet normal -0.9995761143626237 0.0291134263823289 0.0
  outer loop
    vertex -113.3474399135196 41.9529820439618 15.874999999999977
    vertex -113.37157032428944 41.12449205729594 -2.255973186038318e-14
    vertex -113.37157032428944 41.12449205729594 15.874999999999977
  endloop
endfacet
facet normal -0.9995761143626237 0.0291134263823289 0.0
  outer loop
    vertex -113.37157032428944 41.12449205729594 -2.255973186038318e-14
    vertex -113.3474399135196 41.9529820439618 15.874999999999977
    vertex -113.3474399135196 41.9529820439618 -2.255973186038318e-14
  endloop
endfacet
facet normal -0.9579812749885896 0.2868307458611021 0.0
  outer loop
    vertex -113.37157032428944 41.12449205729594 15.874999999999977
    vertex -113.60930749847688 40.33047759222688 -2.255973186038318e-14
    vertex -113.60930749847688 40.33047759222688 15.874999999999977
  endloop
endfacet
facet normal -0.9579812749885896 0.2868307458611021 0.0
  outer loop
    vertex -113.60930749847688 40.33047759222688 -2.255973186038318e-14
    vertex -113.37157032428944 41.12449205729594 15.874999999999977
    vertex -113.37157032428944 41.12449205729594 -2.255973186038318e-14
  endloop
endfacet
facet normal -0.7273933499964393 -0.6862207475593824 -0.0
  outer loop
    vertex -114.50067626901479 44.09193957420098 15.874999999999977
    vertex -113.93190815838639 43.48904590939622 -2.255973186038318e-14
    vertex -113.93190815838639 43.48904590939622 15.874999999999977
  endloop
endfacet
facet normal -0.7273933499964393 -0.6862207475593824 -0.0
  outer loop
    vertex -113.93190815838639 43.48904590939622 -2.255973186038318e-14
    vertex -114.50067626901479 44.09193957420098 15.874999999999977
    vertex -114.50067626901479 44.09193957420098 -2.255973186038318e-14
  endloop
endfacet
facet normal -0.9730514934204708 -0.23058792499216332 -0.0
  outer loop
    vertex -113.5385607137839 42.759487328777624 15.874999999999977
    vertex -113.3474399135196 41.9529820439618 -2.255973186038318e-14
    vertex -113.3474399135196 41.9529820439618 15.874999999999977
  endloop
endfacet
facet normal -0.9730514934204708 -0.23058792499216332 -0.0
  outer loop
    vertex -113.3474399135196 41.9529820439618 -2.255973186038318e-14
    vertex -113.5385607137839 42.759487328777624 15.874999999999977
    vertex -113.5385607137839 42.759487328777624 -2.255973186038318e-14
  endloop
endfacet
facet normal -0.8802150212453391 -0.474575090343001 -0.0
  outer loop
    vertex -113.93190815838639 43.48904590939622 15.874999999999977
    vertex -113.5385607137839 42.759487328777624 -2.255973186038318e-14
    vertex -113.5385607137839 42.759487328777624 15.874999999999977
  endloop
endfacet
facet normal -0.8802150212453391 -0.474575090343001 -0.0
  outer loop
    vertex -113.5385607137839 42.759487328777624 -2.255973186038318e-14
    vertex -113.93190815838639 43.48904590939622 15.874999999999977
    vertex -113.93190815838639 43.48904590939622 -2.255973186038318e-14
  endloop
endfacet
facet normal -0.8511015948629995 0.5250010240196286 0.0
  outer loop
    vertex -119.5829559683748 44.13704633614494 15.874999999999977
    vertex -120.12688414595404 43.25526112383402 -2.255973186038318e-14
    vertex -120.12688414595404 43.25526112383402 15.874999999999977
  endloop
endfacet
facet normal -0.8511015948629995 0.5250010240196286 0.0
  outer loop
    vertex -120.12688414595404 43.25526112383402 -2.255973186038318e-14
    vertex -119.5829559683748 44.13704633614494 15.874999999999977
    vertex -119.5829559683748 44.13704633614494 -2.255973186038318e-14
  endloop
endfacet
facet normal -0.9579812749885974 0.2868307458610763 0.0
  outer loop
    vertex -120.12688414595404 43.25526112383402 15.874999999999977
    vertex -120.4240556136883 42.26274304249769 -2.255973186038318e-14
    vertex -120.4240556136883 42.26274304249769 15.874999999999977
  endloop
endfacet
facet normal -0.9579812749885974 0.2868307458610763 0.0
  outer loop
    vertex -120.4240556136883 42.26274304249769 -2.255973186038318e-14
    vertex -120.12688414595404 43.25526112383402 15.874999999999977
    vertex -120.12688414595404 43.25526112383402 -2.255973186038318e-14
  endloop
endfacet
facet normal -0.6862207475593927 0.7273933499964296 0.0
  outer loop
    vertex -119.5829559683748 44.13704633614494 15.874999999999977
    vertex -118.82933888736888 44.84800647443045 -2.255973186038318e-14
    vertex -119.5829559683748 44.13704633614494 -2.255973186038318e-14
  endloop
endfacet
facet normal -0.6862207475593927 0.7273933499964296 0.0
  outer loop
    vertex -118.82933888736888 44.84800647443045 -2.255973186038318e-14
    vertex -119.5829559683748 44.13704633614494 15.874999999999977
    vertex -118.82933888736888 44.84800647443045 15.874999999999977
  endloop
endfacet
facet normal -0.7273933499964292 -0.6862207475593931 -0.0
  outer loop
    vertex -119.72363332106713 39.30705072737235 15.874999999999977
    vertex -119.0126731827816 38.55343364636641 -2.255973186038318e-14
    vertex -119.0126731827816 38.55343364636641 15.874999999999977
  endloop
endfacet
facet normal -0.7273933499964292 -0.6862207475593931 -0.0
  outer loop
    vertex -119.0126731827816 38.55343364636641 -2.255973186038318e-14
    vertex -119.72363332106713 39.30705072737235 15.874999999999977
    vertex -119.72363332106713 39.30705072737235 -2.255973186038318e-14
  endloop
endfacet
facet normal -0.8802150212453403 -0.4745750903429984 -0.0
  outer loop
    vertex -120.21531762682022 40.21899895314559 15.874999999999977
    vertex -119.72363332106713 39.30705072737235 -2.255973186038318e-14
    vertex -119.72363332106713 39.30705072737235 15.874999999999977
  endloop
endfacet
facet normal -0.8802150212453403 -0.4745750903429984 -0.0
  outer loop
    vertex -119.72363332106713 39.30705072737235 -2.255973186038318e-14
    vertex -120.21531762682022 40.21899895314559 15.874999999999977
    vertex -120.21531762682022 40.21899895314559 -2.255973186038318e-14
  endloop
endfacet
facet normal -0.9730514934204721 -0.23058792499215755 -0.0
  outer loop
    vertex -120.4542186271506 41.22713055916537 15.874999999999977
    vertex -120.21531762682022 40.21899895314559 -2.255973186038318e-14
    vertex -120.21531762682022 40.21899895314559 15.874999999999977
  endloop
endfacet
facet normal -0.9730514934204721 -0.23058792499215755 -0.0
  outer loop
    vertex -120.21531762682022 40.21899895314559 -2.255973186038318e-14
    vertex -120.4542186271506 41.22713055916537 15.874999999999977
    vertex -120.4542186271506 41.22713055916537 -2.255973186038318e-14
  endloop
endfacet
facet normal -0.9995761143626236 0.02911342638232905 0.0
  outer loop
    vertex -120.4240556136883 42.26274304249769 15.874999999999977
    vertex -120.4542186271506 41.22713055916537 -2.255973186038318e-14
    vertex -120.4542186271506 41.22713055916537 15.874999999999977
  endloop
endfacet
facet normal -0.9995761143626236 0.02911342638232905 0.0
  outer loop
    vertex -120.4542186271506 41.22713055916537 -2.255973186038318e-14
    vertex -120.4240556136883 42.26274304249769 15.874999999999977
    vertex -120.4240556136883 42.26274304249769 -2.255973186038318e-14
  endloop
endfacet
facet normal -0.2305879249921627 0.973051493420471 0.0
  outer loop
    vertex -117.91739066159563 45.33969078018356 15.874999999999977
    vertex -116.90925905557584 45.57859178051394 -2.255973186038318e-14
    vertex -117.91739066159563 45.33969078018356 -2.255973186038318e-14
  endloop
endfacet
facet normal -0.2305879249921627 0.973051493420471 0.0
  outer loop
    vertex -116.90925905557584 45.57859178051394 -2.255973186038318e-14
    vertex -117.91739066159563 45.33969078018356 15.874999999999977
    vertex -116.90925905557584 45.57859178051394 15.874999999999977
  endloop
endfacet
facet normal 0.5250010240196257 0.8511015948630015 0.0
  outer loop
    vertex -114.88112849090719 45.25125729931736 15.874999999999977
    vertex -113.99934327859627 44.70732912173814 -2.255973186038318e-14
    vertex -114.88112849090719 45.25125729931736 -2.255973186038318e-14
  endloop
endfacet
facet normal 0.5250010240196257 0.8511015948630015 0.0
  outer loop
    vertex -113.99934327859627 44.70732912173814 -2.255973186038318e-14
    vertex -114.88112849090719 45.25125729931736 15.874999999999977
    vertex -113.99934327859627 44.70732912173814 15.874999999999977
  endloop
endfacet
facet normal 0.02911342638233434 0.9995761143626236 0.0
  outer loop
    vertex -116.90925905557584 45.57859178051394 15.874999999999977
    vertex -115.87364657224352 45.54842876705163 -2.255973186038318e-14
    vertex -116.90925905557584 45.57859178051394 -2.255973186038318e-14
  endloop
endfacet
facet normal 0.02911342638233434 0.9995761143626236 0.0
  outer loop
    vertex -115.87364657224352 45.54842876705163 -2.255973186038318e-14
    vertex -116.90925905557584 45.57859178051394 15.874999999999977
    vertex -115.87364657224352 45.54842876705163 15.874999999999977
  endloop
endfacet
facet normal -0.4745750903430003 0.8802150212453392 0.0
  outer loop
    vertex -118.82933888736888 44.84800647443045 15.874999999999977
    vertex -117.91739066159563 45.33969078018356 -2.255973186038318e-14
    vertex -118.82933888736888 44.84800647443045 -2.255973186038318e-14
  endloop
endfacet
facet normal -0.4745750903430003 0.8802150212453392 0.0
  outer loop
    vertex -117.91739066159563 45.33969078018356 -2.255973186038318e-14
    vertex -118.82933888736888 44.84800647443045 15.874999999999977
    vertex -117.91739066159563 45.33969078018356 15.874999999999977
  endloop
endfacet
facet normal 0.28683074586108487 0.957981274988595 0.0
  outer loop
    vertex -115.87364657224352 45.54842876705163 15.874999999999977
    vertex -114.88112849090719 45.25125729931736 -2.255973186038318e-14
    vertex -115.87364657224352 45.54842876705163 -2.255973186038318e-14
  endloop
endfacet
facet normal 0.28683074586108487 0.957981274988595 0.0
  outer loop
    vertex -114.88112849090719 45.25125729931736 -2.255973186038318e-14
    vertex -115.87364657224352 45.54842876705163 15.874999999999977
    vertex -114.88112849090719 45.25125729931736 15.874999999999977
  endloop
endfacet
endsolid bolt_mount_for_shaft
