solid scissor
facet normal -0.9659258262890685 -0.25881904510251985 0.0
  outer loop
    vertex 224.06507746402886 -180.61471552787017 10.318750000000023
    vertex 226.22217244305517 -188.66510358634812 8.731250000000024
    vertex 226.22217244305517 -188.66510358634812 10.318750000000023
  endloop
endfacet
facet normal -0.9659258262890685 -0.25881904510251985 0.0
  outer loop
    vertex 226.22217244305517 -188.66510358634812 8.731250000000024
    vertex 224.06507746402886 -180.61471552787017 10.318750000000023
    vertex 224.06507746402886 -180.61471552787017 8.731250000000024
  endloop
endfacet
facet normal 0.3826834323650879 -0.9238795325112875 0.0
  outer loop
    vertex 231.3431224369643 -186.54393664663655 10.318750000000023
    vertex 226.22217244305517 -188.66510358634812 8.731250000000024
    vertex 231.3431224369643 -186.54393664663655 8.731250000000024
  endloop
endfacet
facet normal 0.3826834323650879 -0.9238795325112875 0.0
  outer loop
    vertex 226.22217244305517 -188.66510358634812 8.731250000000024
    vertex 231.3431224369643 -186.54393664663655 10.318750000000023
    vertex 226.22217244305517 -188.66510358634812 10.318750000000023
  endloop
endfacet
facet normal -0.2588190451025224 -0.965925826289068 0.0
  outer loop
    vertex 241.23603814546766 -173.65123788393564 10.318750000000023
    vertex 233.1856500869897 -171.4941429049093 8.731250000000024
    vertex 241.23603814546766 -173.65123788393564 8.731250000000024
  endloop
endfacet
facet normal -0.2588190451025224 -0.965925826289068 0.0
  outer loop
    vertex 233.1856500869897 -171.4941429049093 8.731250000000024
    vertex 241.23603814546766 -173.65123788393564 10.318750000000023
    vertex 233.1856500869897 -171.4941429049093 10.318750000000023
  endloop
endfacet
facet normal 0.0 0.0 1.0
  outer loop
    vertex 226.22217244305517 -188.66510358634812 10.318750000000023
    vertex 227.1759349369643 -179.3261561719706 10.318750000000023
    vertex 224.06507746402886 -180.61471552787017 10.318750000000023
  endloop
endfacet
facet normal 0.0 0.0 1.0
  outer loop
    vertex 227.1759349369643 -179.3261561719706 10.318750000000023
    vertex 226.22217244305517 -188.66510358634812 10.318750000000023
    vertex 231.3431224369643 -186.54393664663655 10.318750000000023
  endloop
endfacet
facet normal 0.8660254037844387 0.5 0.0
  outer loop
    vertex 227.1759349369643 -179.3261561719706 8.731250000000024
    vertex 231.3431224369643 -186.54393664663655 10.318750000000023
    vertex 231.3431224369643 -186.54393664663655 8.731250000000024
  endloop
endfacet
facet normal 0.8660254037844387 0.5 0.0
  outer loop
    vertex 231.3431224369643 -186.54393664663655 10.318750000000023
    vertex 227.1759349369643 -179.3261561719706 8.731250000000024
    vertex 227.1759349369643 -179.3261561719706 10.318750000000023
  endloop
endfacet
facet normal 0.0 1.0 0.0
  outer loop
    vertex 233.6251536869643 -168.15578162784476 10.318750000000023
    vertex 241.9595286869643 -168.15578162784476 8.731250000000024
    vertex 233.6251536869643 -168.15578162784476 8.731250000000024
  endloop
endfacet
facet normal 0.0 1.0 0.0
  outer loop
    vertex 241.9595286869643 -168.15578162784476 8.731250000000024
    vertex 233.6251536869643 -168.15578162784476 10.318750000000023
    vertex 241.9595286869643 -168.15578162784476 10.318750000000023
  endloop
endfacet
facet normal 0.9914448613738107 -0.13052619222004916 0.0
  outer loop
    vertex 241.9595286869643 -168.15578162784476 8.731250000000024
    vertex 241.23603814546766 -173.65123788393564 10.318750000000023
    vertex 241.23603814546766 -173.65123788393564 8.731250000000024
  endloop
endfacet
facet normal 0.9914448613738107 -0.13052619222004916 0.0
  outer loop
    vertex 241.23603814546766 -173.65123788393564 10.318750000000023
    vertex 241.9595286869643 -168.15578162784476 8.731250000000024
    vertex 241.9595286869643 -168.15578162784476 10.318750000000023
  endloop
endfacet
facet normal 0.0 0.0 1.0
  outer loop
    vertex 241.23603814546766 -173.65123788393564 10.318750000000023
    vertex 233.6251536869643 -168.15578162784476 10.318750000000023
    vertex 233.1856500869897 -171.4941429049093 10.318750000000023
  endloop
endfacet
facet normal 0.0 0.0 1.0
  outer loop
    vertex 233.6251536869643 -168.15578162784476 10.318750000000023
    vertex 241.23603814546766 -173.65123788393564 10.318750000000023
    vertex 241.9595286869643 -168.15578162784476 10.318750000000023
  endloop
endfacet
facet normal 0.0 0.0 1.0
  outer loop
    vertex 205.7128504845518 -183.16964733025725 8.731250000000024
    vertex 209.55634164283845 -174.60500037784476 8.731250000000024
    vertex 202.33856116817253 -178.77218787784477 8.731250000000024
  endloop
endfacet
facet normal 0.0 0.0 1.0
  outer loop
    vertex 209.55634164283845 -174.60500037784476 8.731250000000024
    vertex 205.7128504845518 -183.16964733025725 8.731250000000024
    vertex 211.60614356400342 -177.27635425080564 8.731250000000024
  endloop
endfacet
facet normal 0.0 0.0 1.0
  outer loop
    vertex 208.26778228693888 -164.81742035078022 8.731250000000024
    vertex 202.3385611681725 -157.53937537784478 8.731250000000024
    vertex 200.21739422846093 -162.6603253717539 8.731250000000024
  endloop
endfacet
facet normal 0.0 0.0 1.0
  outer loop
    vertex 202.3385611681725 -157.53937537784478 8.731250000000024
    vertex 208.26778228693888 -164.81742035078022 8.731250000000024
    vertex 209.55634164283845 -161.70656287784476 8.731250000000024
  endloop
endfacet
facet normal 0.5000000000000011 -0.866025403784438 0.0
  outer loop
    vertex 209.55634164283845 -174.60500037784476 10.318750000000023
    vertex 202.33856116817253 -178.77218787784477 8.731250000000024
    vertex 209.55634164283845 -174.60500037784476 8.731250000000024
  endloop
endfacet
facet normal 0.5000000000000011 -0.866025403784438 0.0
  outer loop
    vertex 202.33856116817253 -178.77218787784477 8.731250000000024
    vertex 209.55634164283845 -174.60500037784476 10.318750000000023
    vertex 202.33856116817253 -178.77218787784477 10.318750000000023
  endloop
endfacet
facet normal -0.2588190451025192 0.9659258262890688 0.0
  outer loop
    vertex 200.21739422846096 -173.65123788393564 10.318750000000023
    vertex 208.2677822869389 -171.49414290490932 8.731250000000024
    vertex 200.21739422846096 -173.65123788393564 8.731250000000024
  endloop
endfacet
facet normal -0.2588190451025192 0.9659258262890688 0.0
  outer loop
    vertex 208.2677822869389 -171.49414290490932 8.731250000000024
    vertex 200.21739422846096 -173.65123788393564 10.318750000000023
    vertex 208.2677822869389 -171.49414290490932 10.318750000000023
  endloop
endfacet
facet normal -0.9238795325112862 -0.3826834323650914 0.0
  outer loop
    vertex 200.21739422846096 -173.65123788393564 10.318750000000023
    vertex 202.33856116817253 -178.77218787784477 8.731250000000024
    vertex 202.33856116817253 -178.77218787784477 10.318750000000023
  endloop
endfacet
facet normal -0.9238795325112862 -0.3826834323650914 0.0
  outer loop
    vertex 202.33856116817253 -178.77218787784477 8.731250000000024
    vertex 200.21739422846096 -173.65123788393564 10.318750000000023
    vertex 200.21739422846096 -173.65123788393564 8.731250000000024
  endloop
endfacet
facet normal 0.0 0.0 1.0
  outer loop
    vertex 202.33856116817253 -178.77218787784477 10.318750000000023
    vertex 208.2677822869389 -171.49414290490932 10.318750000000023
    vertex 200.21739422846096 -173.65123788393564 10.318750000000023
  endloop
endfacet
facet normal 0.0 0.0 1.0
  outer loop
    vertex 208.2677822869389 -171.49414290490932 10.318750000000023
    vertex 202.33856116817253 -178.77218787784477 10.318750000000023
    vertex 209.55634164283845 -174.60500037784476 10.318750000000023
  endloop
endfacet
facet normal 0.0 0.0 1.0
  outer loop
    vertex 200.21739422846093 -173.65123788393564 7.143750000000024
    vertex 200.21739422846093 -162.66032537175388 7.143750000000024
    vertex 199.4939036869643 -168.1557816278448 7.143750000000024
  endloop
endfacet
facet normal 0.0 0.0 1.0
  outer loop
    vertex 200.21739422846093 -162.66032537175388 7.143750000000024
    vertex 200.21739422846093 -173.65123788393564 7.143750000000024
    vertex 202.3385611681725 -178.77218787784477 7.143750000000024
  endloop
endfacet
facet normal 0.0 0.0 1.0
  outer loop
    vertex 200.21739422846093 -162.66032537175388 7.143750000000024
    vertex 202.3385611681725 -178.77218787784477 7.143750000000024
    vertex 202.3385611681725 -157.53937537784478 7.143750000000024
  endloop
endfacet
facet normal 0.0 0.0 1.0
  outer loop
    vertex 202.3385611681725 -157.53937537784478 7.143750000000024
    vertex 202.3385611681725 -178.77218787784477 7.143750000000024
    vertex 205.7128504845518 -183.16964733025725 7.143750000000024
  endloop
endfacet
facet normal 0.0 0.0 1.0
  outer loop
    vertex 202.3385611681725 -157.53937537784478 7.143750000000024
    vertex 205.7128504845518 -183.16964733025725 7.143750000000024
    vertex 205.7128504845518 -153.1419159254323 7.143750000000024
  endloop
endfacet
facet normal 0.0 0.0 1.0
  outer loop
    vertex 205.7128504845518 -153.1419159254323 7.143750000000024
    vertex 205.7128504845518 -183.16964733025725 7.143750000000024
    vertex 210.11030993696428 -186.54393664663655 7.143750000000024
  endloop
endfacet
facet normal 0.0 0.0 1.0
  outer loop
    vertex 205.7128504845518 -153.1419159254323 7.143750000000024
    vertex 210.11030993696428 -186.54393664663655 7.143750000000024
    vertex 210.11030993696428 -149.767626609053 7.143750000000024
  endloop
endfacet
facet normal 0.0 0.0 1.0
  outer loop
    vertex 210.11030993696428 -149.767626609053 7.143750000000024
    vertex 210.11030993696428 -186.54393664663655 7.143750000000024
    vertex 211.2017161869643 -168.15578162784476 7.143750000000031
  endloop
endfacet
facet normal 0.0 0.0 1.0
  outer loop
    vertex 211.2017161869643 -168.15578162784476 7.143750000000031
    vertex 210.11030993696428 -186.54393664663655 7.143750000000024
    vertex 211.52627269156093 -170.6210330324463 7.143750000000031
  endloop
endfacet
facet normal 0.0 0.0 1.0
  outer loop
    vertex 211.52627269156093 -170.6210330324463 7.143750000000031
    vertex 210.11030993696428 -186.54393664663655 7.143750000000024
    vertex 215.23125993087342 -188.66510358634812 7.143750000000024
  endloop
endfacet
facet normal 0.0 0.0 1.0
  outer loop
    vertex 211.52627269156093 -170.6210330324463 7.143750000000031
    vertex 215.23125993087342 -188.66510358634812 7.143750000000024
    vertex 212.4778242159175 -172.91828162784478 7.143750000000031
  endloop
endfacet
facet normal 0.0 0.0 1.0
  outer loop
    vertex 212.4778242159175 -172.91828162784478 7.143750000000031
    vertex 215.23125993087342 -188.66510358634812 7.143750000000024
    vertex 213.9915240961624 -174.89097371864665 7.143750000000031
  endloop
endfacet
facet normal 0.0 0.0 1.0
  outer loop
    vertex 213.9915240961624 -174.89097371864665 7.143750000000031
    vertex 215.23125993087342 -188.66510358634812 7.143750000000024
    vertex 215.9642161869643 -176.40467359889155 7.143750000000031
  endloop
endfacet
facet normal 0.0 0.0 1.0
  outer loop
    vertex 215.9642161869643 -176.40467359889155 7.143750000000031
    vertex 215.23125993087342 -188.66510358634812 7.143750000000024
    vertex 220.7267161869643 -189.38859412784475 7.143750000000024
  endloop
endfacet
facet normal 0.0 0.0 1.0
  outer loop
    vertex 215.9642161869643 -176.40467359889155 7.143750000000031
    vertex 220.7267161869643 -189.38859412784475 7.143750000000024
    vertex 218.26146478236276 -177.35622512324815 7.143750000000031
  endloop
endfacet
facet normal 0.0 0.0 1.0
  outer loop
    vertex 218.26146478236276 -177.35622512324815 7.143750000000031
    vertex 220.7267161869643 -189.38859412784475 7.143750000000024
    vertex 220.7267161869643 -177.68078162784477 7.143750000000031
  endloop
endfacet
facet normal 0.0 0.0 1.0
  outer loop
    vertex 220.7267161869643 -177.68078162784477 7.143750000000031
    vertex 220.7267161869643 -189.38859412784475 7.143750000000024
    vertex 226.22217244305517 -188.66510358634812 7.143750000000024
  endloop
endfacet
facet normal 0.0 0.0 1.0
  outer loop
    vertex 220.7267161869643 -177.68078162784477 7.143750000000031
    vertex 226.22217244305517 -188.66510358634812 7.143750000000024
    vertex 223.19196759156583 -177.35622512324815 7.143750000000031
  endloop
endfacet
facet normal 0.0 0.0 1.0
  outer loop
    vertex 223.19196759156583 -177.35622512324815 7.143750000000031
    vertex 226.22217244305517 -188.66510358634812 7.143750000000024
    vertex 225.48921618696428 -176.40467359889155 7.143750000000031
  endloop
endfacet
facet normal 0.0 0.0 1.0
  outer loop
    vertex 225.48921618696428 -176.40467359889155 7.143750000000031
    vertex 226.22217244305517 -188.66510358634812 7.143750000000024
    vertex 227.46190827776616 -174.89097371864665 7.143750000000031
  endloop
endfacet
facet normal 0.0 0.0 1.0
  outer loop
    vertex 227.46190827776616 -174.89097371864665 7.143750000000031
    vertex 226.22217244305517 -188.66510358634812 7.143750000000024
    vertex 231.3431224369643 -186.54393664663655 7.143750000000024
  endloop
endfacet
facet normal 0.0 0.0 1.0
  outer loop
    vertex 227.46190827776616 -174.89097371864665 7.143750000000031
    vertex 231.3431224369643 -186.54393664663655 7.143750000000024
    vertex 228.97560815801108 -172.91828162784478 7.143750000000031
  endloop
endfacet
facet normal 0.0 0.0 1.0
  outer loop
    vertex 228.97560815801108 -172.91828162784478 7.143750000000031
    vertex 231.3431224369643 -186.54393664663655 7.143750000000024
    vertex 229.92715968236766 -170.62103303244626 7.143750000000031
  endloop
endfacet
facet normal 0.0 0.0 1.0
  outer loop
    vertex 229.92715968236766 -170.62103303244626 7.143750000000031
    vertex 231.3431224369643 -186.54393664663655 7.143750000000024
    vertex 230.2517161869643 -168.15578162784476 7.143750000000031
  endloop
endfacet
facet normal 0.0 0.0 1.0
  outer loop
    vertex 210.11030993696428 -149.767626609053 7.143750000000024
    vertex 211.52627269156093 -165.69053022324326 7.143750000000031
    vertex 215.23125993087342 -147.6464596693414 7.143750000000024
  endloop
endfacet
facet normal 0.0 0.0 1.0
  outer loop
    vertex 211.52627269156093 -165.69053022324326 7.143750000000031
    vertex 210.11030993696428 -149.767626609053 7.143750000000024
    vertex 211.2017161869643 -168.15578162784476 7.143750000000031
  endloop
endfacet
facet normal 0.0 0.0 1.0
  outer loop
    vertex 215.23125993087342 -147.6464596693414 7.143750000000024
    vertex 211.52627269156093 -165.69053022324326 7.143750000000031
    vertex 212.4778242159175 -163.39328162784477 7.143750000000031
  endloop
endfacet
facet normal 0.0 0.0 1.0
  outer loop
    vertex 215.23125993087342 -147.6464596693414 7.143750000000024
    vertex 212.4778242159175 -163.39328162784477 7.143750000000031
    vertex 213.9915240961624 -161.4205895370429 7.143750000000031
  endloop
endfacet
facet normal 0.0 0.0 1.0
  outer loop
    vertex 215.23125993087342 -147.6464596693414 7.143750000000024
    vertex 213.9915240961624 -161.4205895370429 7.143750000000031
    vertex 215.9642161869643 -159.90688965679797 7.143750000000031
  endloop
endfacet
facet normal 0.0 0.0 1.0
  outer loop
    vertex 215.23125993087342 -147.6464596693414 7.143750000000024
    vertex 215.9642161869643 -159.90688965679797 7.143750000000031
    vertex 220.7267161869643 -146.92296912784477 7.143750000000024
  endloop
endfacet
facet normal 0.0 0.0 1.0
  outer loop
    vertex 220.7267161869643 -146.92296912784477 7.143750000000024
    vertex 215.9642161869643 -159.90688965679797 7.143750000000031
    vertex 218.26146478236276 -158.9553381324414 7.143750000000031
  endloop
endfacet
facet normal 0.0 0.0 1.0
  outer loop
    vertex 220.7267161869643 -146.92296912784477 7.143750000000024
    vertex 218.26146478236276 -158.9553381324414 7.143750000000031
    vertex 220.7267161869643 -158.63078162784475 7.143750000000031
  endloop
endfacet
facet normal 0.0 0.0 1.0
  outer loop
    vertex 220.7267161869643 -146.92296912784477 7.143750000000024
    vertex 220.7267161869643 -158.63078162784475 7.143750000000031
    vertex 223.19196759156583 -158.9553381324414 7.143750000000031
  endloop
endfacet
facet normal 0.0 0.0 1.0
  outer loop
    vertex 220.7267161869643 -146.92296912784477 7.143750000000024
    vertex 223.19196759156583 -158.9553381324414 7.143750000000031
    vertex 226.22217244305517 -147.6464596693414 7.143750000000024
  endloop
endfacet
facet normal 0.0 0.0 1.0
  outer loop
    vertex 226.22217244305517 -147.6464596693414 7.143750000000024
    vertex 223.19196759156583 -158.9553381324414 7.143750000000031
    vertex 225.48921618696428 -159.90688965679797 7.143750000000031
  endloop
endfacet
facet normal 0.0 0.0 1.0
  outer loop
    vertex 226.22217244305517 -147.6464596693414 7.143750000000024
    vertex 225.48921618696428 -159.90688965679797 7.143750000000031
    vertex 227.46190827776616 -161.4205895370429 7.143750000000031
  endloop
endfacet
facet normal 0.0 0.0 1.0
  outer loop
    vertex 226.22217244305517 -147.6464596693414 7.143750000000024
    vertex 227.46190827776616 -161.4205895370429 7.143750000000031
    vertex 231.3431224369643 -149.767626609053 7.143750000000024
  endloop
endfacet
facet normal 0.0 0.0 1.0
  outer loop
    vertex 231.3431224369643 -149.767626609053 7.143750000000024
    vertex 227.46190827776616 -161.4205895370429 7.143750000000031
    vertex 228.97560815801108 -163.39328162784477 7.143750000000031
  endloop
endfacet
facet normal 0.0 0.0 1.0
  outer loop
    vertex 231.3431224369643 -149.767626609053 7.143750000000024
    vertex 228.97560815801108 -163.39328162784477 7.143750000000031
    vertex 229.92715968236766 -165.69053022324326 7.143750000000031
  endloop
endfacet
facet normal 0.0 0.0 1.0
  outer loop
    vertex 231.3431224369643 -149.767626609053 7.143750000000024
    vertex 229.92715968236766 -165.69053022324326 7.143750000000031
    vertex 230.2517161869643 -168.15578162784476 7.143750000000031
  endloop
endfacet
facet normal 0.0 0.0 1.0
  outer loop
    vertex 231.3431224369643 -149.767626609053 7.143750000000024
    vertex 230.2517161869643 -168.15578162784476 7.143750000000031
    vertex 231.3431224369643 -186.54393664663655 7.143750000000024
  endloop
endfacet
facet normal 0.0 0.0 1.0
  outer loop
    vertex 231.3431224369643 -149.767626609053 7.143750000000024
    vertex 231.3431224369643 -186.54393664663655 7.143750000000024
    vertex 235.74058188937678 -183.16964733025725 7.143750000000024
  endloop
endfacet
facet normal 0.0 0.0 1.0
  outer loop
    vertex 231.3431224369643 -149.767626609053 7.143750000000024
    vertex 235.74058188937678 -183.16964733025725 7.143750000000024
    vertex 235.74058188937678 -153.14191592543227 7.143750000000024
  endloop
endfacet
facet normal 0.0 0.0 1.0
  outer loop
    vertex 235.74058188937678 -153.14191592543227 7.143750000000024
    vertex 235.74058188937678 -183.16964733025725 7.143750000000024
    vertex 239.1148712057561 -178.77218787784477 7.143750000000024
  endloop
endfacet
facet normal 0.0 0.0 1.0
  outer loop
    vertex 235.74058188937678 -153.14191592543227 7.143750000000024
    vertex 239.1148712057561 -178.77218787784477 7.143750000000024
    vertex 239.1148712057561 -157.53937537784478 7.143750000000024
  endloop
endfacet
facet normal 0.0 0.0 1.0
  outer loop
    vertex 239.1148712057561 -157.53937537784478 7.143750000000024
    vertex 239.1148712057561 -178.77218787784477 7.143750000000024
    vertex 241.23603814546766 -173.65123788393564 7.143750000000024
  endloop
endfacet
facet normal 0.0 0.0 1.0
  outer loop
    vertex 239.1148712057561 -157.53937537784478 7.143750000000024
    vertex 241.23603814546766 -173.65123788393564 7.143750000000024
    vertex 241.23603814546766 -162.66032537175388 7.143750000000024
  endloop
endfacet
facet normal 0.0 0.0 1.0
  outer loop
    vertex 241.23603814546766 -162.66032537175388 7.143750000000024
    vertex 241.23603814546766 -173.65123788393564 7.143750000000024
    vertex 241.9595286869643 -168.15578162784476 7.143750000000024
  endloop
endfacet
facet normal 0.0 0.0 1.0
  outer loop
    vertex 220.7267161869643 -189.38859412784475 10.318750000000023
    vertex 217.38835490989973 -180.61471552787017 10.318750000000023
    vertex 215.23125993087342 -188.66510358634812 10.318750000000023
  endloop
endfacet
facet normal 0.0 0.0 1.0
  outer loop
    vertex 217.38835490989973 -180.61471552787017 10.318750000000023
    vertex 220.7267161869643 -189.38859412784475 10.318750000000023
    vertex 220.7267161869643 -181.05421912784476 10.318750000000023
  endloop
endfacet
facet normal 1.0 0.0 0.0
  outer loop
    vertex 220.7267161869643 -181.05421912784476 8.731250000000024
    vertex 220.7267161869643 -189.38859412784475 10.318750000000023
    vertex 220.7267161869643 -189.38859412784475 8.731250000000024
  endloop
endfacet
facet normal 1.0 0.0 0.0
  outer loop
    vertex 220.7267161869643 -189.38859412784475 10.318750000000023
    vertex 220.7267161869643 -181.05421912784476 8.731250000000024
    vertex 220.7267161869643 -181.05421912784476 10.318750000000023
  endloop
endfacet
facet normal -0.13052619222005318 -0.9914448613738103 0.0
  outer loop
    vertex 220.7267161869643 -189.38859412784475 10.318750000000023
    vertex 215.23125993087342 -188.66510358634812 8.731250000000024
    vertex 220.7267161869643 -189.38859412784475 8.731250000000024
  endloop
endfacet
facet normal -0.13052619222005318 -0.9914448613738103 0.0
  outer loop
    vertex 215.23125993087342 -188.66510358634812 8.731250000000024
    vertex 220.7267161869643 -189.38859412784475 10.318750000000023
    vertex 215.23125993087342 -188.66510358634812 10.318750000000023
  endloop
endfacet
facet normal -0.9659258262890685 0.25881904510251985 0.0
  outer loop
    vertex 217.38835490989973 -180.61471552787017 10.318750000000023
    vertex 215.23125993087342 -188.66510358634812 8.731250000000024
    vertex 215.23125993087342 -188.66510358634812 10.318750000000023
  endloop
endfacet
facet normal -0.9659258262890685 0.25881904510251985 0.0
  outer loop
    vertex 215.23125993087342 -188.66510358634812 8.731250000000024
    vertex 217.38835490989973 -180.61471552787017 10.318750000000023
    vertex 217.38835490989973 -180.61471552787017 8.731250000000024
  endloop
endfacet
facet normal 0.38268343236509195 -0.923879532511286 -1.1660999109312396e-29
  outer loop
    vertex 218.26146478236276 -158.9553381324414 8.731250000000024
    vertex 215.9642161869643 -159.90688965679797 7.143750000000031
    vertex 218.26146478236276 -158.9553381324414 7.143750000000031
  endloop
endfacet
facet normal 0.38268343236509195 -0.923879532511286 -1.1660999109312396e-29
  outer loop
    vertex 215.9642161869643 -159.90688965679797 7.143750000000031
    vertex 218.26146478236276 -158.9553381324414 8.731250000000024
    vertex 215.9642161869643 -159.90688965679797 8.731250000000024
  endloop
endfacet
facet normal 0.7933533402912383 -0.6087614290087167 -2.0027053893832488e-29
  outer loop
    vertex 213.9915240961624 -161.4205895370429 7.143750000000031
    vertex 212.4778242159175 -163.39328162784477 8.731250000000024
    vertex 212.4778242159175 -163.39328162784477 7.143750000000031
  endloop
endfacet
facet normal 0.7933533402912383 -0.6087614290087167 -2.0027053893832488e-29
  outer loop
    vertex 212.4778242159175 -163.39328162784477 8.731250000000024
    vertex 213.9915240961624 -161.4205895370429 7.143750000000031
    vertex 213.9915240961624 -161.4205895370429 8.731250000000024
  endloop
endfacet
facet normal 0.13052619222005063 -0.9914448613738105 -1.2513793453121147e-29
  outer loop
    vertex 220.7267161869643 -158.63078162784475 8.731250000000024
    vertex 218.26146478236276 -158.9553381324414 7.143750000000031
    vertex 220.7267161869643 -158.63078162784475 7.143750000000031
  endloop
endfacet
facet normal 0.13052619222005063 -0.9914448613738105 -1.2513793453121147e-29
  outer loop
    vertex 218.26146478236276 -158.9553381324414 7.143750000000031
    vertex 220.7267161869643 -158.63078162784475 8.731250000000024
    vertex 218.26146478236276 -158.9553381324414 8.731250000000024
  endloop
endfacet
facet normal -0.13052619222005063 -0.9914448613738105 -1.2513793453121147e-29
  outer loop
    vertex 223.19196759156583 -158.9553381324414 8.731250000000024
    vertex 220.7267161869643 -158.63078162784475 7.143750000000031
    vertex 223.19196759156583 -158.9553381324414 7.143750000000031
  endloop
endfacet
facet normal -0.13052619222005063 -0.9914448613738105 -1.2513793453121147e-29
  outer loop
    vertex 220.7267161869643 -158.63078162784475 7.143750000000031
    vertex 223.19196759156583 -158.9553381324414 8.731250000000024
    vertex 220.7267161869643 -158.63078162784475 8.731250000000024
  endloop
endfacet
facet normal 0.6087614290087167 -0.7933533402912383 -1.5367298942446629e-29
  outer loop
    vertex 215.9642161869643 -159.90688965679797 8.731250000000024
    vertex 213.9915240961624 -161.4205895370429 7.143750000000031
    vertex 215.9642161869643 -159.90688965679797 7.143750000000031
  endloop
endfacet
facet normal 0.6087614290087167 -0.7933533402912383 -1.5367298942446629e-29
  outer loop
    vertex 213.9915240961624 -161.4205895370429 7.143750000000031
    vertex 215.9642161869643 -159.90688965679797 8.731250000000024
    vertex 213.9915240961624 -161.4205895370429 8.731250000000024
  endloop
endfacet
facet normal 0.9914448613738092 -0.13052619222006073 1.647472162396317e-30
  outer loop
    vertex 211.52627269156093 -165.69053022324326 7.143750000000031
    vertex 211.2017161869643 -168.15578162784476 8.731250000000024
    vertex 211.2017161869643 -168.15578162784476 7.143750000000031
  endloop
endfacet
facet normal 0.9914448613738092 -0.13052619222006073 1.647472162396317e-30
  outer loop
    vertex 211.2017161869643 -168.15578162784476 8.731250000000024
    vertex 211.52627269156093 -165.69053022324326 7.143750000000031
    vertex 211.52627269156093 -165.69053022324326 8.731250000000024
  endloop
endfacet
facet normal 0.9238795325112905 -0.38268343236508107 4.83014398189767e-30
  outer loop
    vertex 212.4778242159175 -163.39328162784477 7.143750000000031
    vertex 211.52627269156093 -165.69053022324326 8.731250000000024
    vertex 211.52627269156093 -165.69053022324326 7.143750000000031
  endloop
endfacet
facet normal 0.9238795325112905 -0.38268343236508107 4.83014398189767e-30
  outer loop
    vertex 211.52627269156093 -165.69053022324326 8.731250000000024
    vertex 212.4778242159175 -163.39328162784477 7.143750000000031
    vertex 212.4778242159175 -163.39328162784477 8.731250000000024
  endloop
endfacet
facet normal -0.3826834323650879 0.9238795325112875 0.0
  outer loop
    vertex 210.11030993696428 -149.767626609053 10.318750000000023
    vertex 215.23125993087342 -147.64645966934143 8.731250000000024
    vertex 210.11030993696428 -149.767626609053 8.731250000000024
  endloop
endfacet
facet normal -0.3826834323650879 0.9238795325112875 0.0
  outer loop
    vertex 215.23125993087342 -147.64645966934143 8.731250000000024
    vertex 210.11030993696428 -149.767626609053 10.318750000000023
    vertex 215.23125993087342 -147.64645966934143 10.318750000000023
  endloop
endfacet
facet normal 0.9659258262890685 0.2588190451025198 0.0
  outer loop
    vertex 215.23125993087342 -147.64645966934143 8.731250000000024
    vertex 217.38835490989973 -155.69684772781937 10.318750000000023
    vertex 217.38835490989973 -155.69684772781937 8.731250000000024
  endloop
endfacet
facet normal 0.9659258262890685 0.2588190451025198 0.0
  outer loop
    vertex 217.38835490989973 -155.69684772781937 10.318750000000023
    vertex 215.23125993087342 -147.64645966934143 8.731250000000024
    vertex 215.23125993087342 -147.64645966934143 10.318750000000023
  endloop
endfacet
facet normal -0.8660254037844387 -0.5 0.0
  outer loop
    vertex 210.11030993696428 -149.767626609053 10.318750000000023
    vertex 214.2774974369643 -156.9854070837189 8.731250000000024
    vertex 214.2774974369643 -156.9854070837189 10.318750000000023
  endloop
endfacet
facet normal -0.8660254037844387 -0.5 0.0
  outer loop
    vertex 214.2774974369643 -156.9854070837189 8.731250000000024
    vertex 210.11030993696428 -149.767626609053 10.318750000000023
    vertex 210.11030993696428 -149.767626609053 8.731250000000024
  endloop
endfacet
facet normal 0.0 0.0 1.0
  outer loop
    vertex 231.3431224369643 -186.54393664663655 8.731250000000024
    vertex 229.84728880992515 -177.27635425080564 8.731250000000024
    vertex 227.1759349369643 -179.3261561719706 8.731250000000024
  endloop
endfacet
facet normal 0.0 0.0 1.0
  outer loop
    vertex 229.84728880992515 -177.27635425080564 8.731250000000024
    vertex 231.3431224369643 -186.54393664663655 8.731250000000024
    vertex 235.74058188937678 -183.16964733025725 8.731250000000024
  endloop
endfacet
facet normal 0.0 0.0 1.0
  outer loop
    vertex 226.22217244305517 -188.66510358634812 8.731250000000024
    vertex 220.7267161869643 -181.05421912784476 8.731250000000024
    vertex 220.7267161869643 -189.38859412784475 8.731250000000024
  endloop
endfacet
facet normal 0.0 0.0 1.0
  outer loop
    vertex 220.7267161869643 -181.05421912784476 8.731250000000024
    vertex 226.22217244305517 -188.66510358634812 8.731250000000024
    vertex 224.06507746402886 -180.61471552787017 8.731250000000024
  endloop
endfacet
facet normal 0.0 0.0 1.0
  outer loop
    vertex 214.2774974369643 -156.9854070837189 10.318750000000023
    vertex 215.23125993087342 -147.64645966934143 10.318750000000023
    vertex 210.11030993696428 -149.767626609053 10.318750000000023
  endloop
endfacet
facet normal 0.0 0.0 1.0
  outer loop
    vertex 215.23125993087342 -147.64645966934143 10.318750000000023
    vertex 214.2774974369643 -156.9854070837189 10.318750000000023
    vertex 217.38835490989973 -155.69684772781937 10.318750000000023
  endloop
endfacet
facet normal 0.0 0.0 1.0
  outer loop
    vertex 215.23125993087342 -188.66510358634812 8.731250000000024
    vertex 214.2774974369643 -179.3261561719706 8.731250000000024
    vertex 210.11030993696428 -186.54393664663655 8.731250000000024
  endloop
endfacet
facet normal 0.0 0.0 1.0
  outer loop
    vertex 214.2774974369643 -179.3261561719706 8.731250000000024
    vertex 215.23125993087342 -188.66510358634812 8.731250000000024
    vertex 217.38835490989973 -180.61471552787017 8.731250000000024
  endloop
endfacet
facet normal -0.6087614290087167 -0.7933533402912383 -1.5367298942446629e-29
  outer loop
    vertex 227.46190827776616 -161.4205895370429 8.731250000000024
    vertex 225.48921618696428 -159.90688965679797 7.143750000000031
    vertex 227.46190827776616 -161.4205895370429 7.143750000000031
  endloop
endfacet
facet normal -0.6087614290087167 -0.7933533402912383 -1.5367298942446629e-29
  outer loop
    vertex 225.48921618696428 -159.90688965679797 7.143750000000031
    vertex 227.46190827776616 -161.4205895370429 8.731250000000024
    vertex 225.48921618696428 -159.90688965679797 8.731250000000024
  endloop
endfacet
facet normal -0.38268343236509195 -0.923879532511286 -1.1660999109312396e-29
  outer loop
    vertex 225.48921618696428 -159.90688965679797 8.731250000000024
    vertex 223.19196759156583 -158.9553381324414 7.143750000000031
    vertex 225.48921618696428 -159.90688965679797 7.143750000000031
  endloop
endfacet
facet normal -0.38268343236509195 -0.923879532511286 -1.1660999109312396e-29
  outer loop
    vertex 223.19196759156583 -158.9553381324414 7.143750000000031
    vertex 225.48921618696428 -159.90688965679797 8.731250000000024
    vertex 223.19196759156583 -158.9553381324414 8.731250000000024
  endloop
endfacet
facet normal -0.7071067811865476 0.7071067811865476 0.0
  outer loop
    vertex 211.60614356400342 -177.27635425080564 10.318750000000023
    vertex 205.7128504845518 -183.16964733025725 8.731250000000024
    vertex 205.7128504845518 -183.16964733025725 10.318750000000023
  endloop
endfacet
facet normal -0.7071067811865476 0.7071067811865476 0.0
  outer loop
    vertex 205.7128504845518 -183.16964733025725 8.731250000000024
    vertex 211.60614356400342 -177.27635425080564 10.318750000000023
    vertex 211.60614356400342 -177.27635425080564 8.731250000000024
  endloop
endfacet
facet normal 0.0 -1.0 0.0
  outer loop
    vertex 207.8282786869643 -168.15578162784476 10.318750000000023
    vertex 199.4939036869643 -168.15578162784476 8.731250000000024
    vertex 207.8282786869643 -168.15578162784476 8.731250000000024
  endloop
endfacet
facet normal 0.0 -1.0 0.0
  outer loop
    vertex 199.4939036869643 -168.15578162784476 8.731250000000024
    vertex 207.8282786869643 -168.15578162784476 10.318750000000023
    vertex 199.4939036869643 -168.15578162784476 10.318750000000023
  endloop
endfacet
facet normal -0.9914448613738107 0.13052619222004974 0.0
  outer loop
    vertex 200.21739422846093 -162.6603253717539 10.318750000000023
    vertex 199.4939036869643 -168.15578162784476 8.731250000000024
    vertex 199.4939036869643 -168.15578162784476 10.318750000000023
  endloop
endfacet
facet normal -0.9914448613738107 0.13052619222004974 0.0
  outer loop
    vertex 199.4939036869643 -168.15578162784476 8.731250000000024
    vertex 200.21739422846093 -162.6603253717539 10.318750000000023
    vertex 200.21739422846093 -162.6603253717539 8.731250000000024
  endloop
endfacet
facet normal 0.0 0.0 1.0
  outer loop
    vertex 207.8282786869643 -168.15578162784476 10.318750000000023
    vertex 200.21739422846093 -162.6603253717539 10.318750000000023
    vertex 199.4939036869643 -168.15578162784476 10.318750000000023
  endloop
endfacet
facet normal 0.0 0.0 1.0
  outer loop
    vertex 200.21739422846093 -162.6603253717539 10.318750000000023
    vertex 207.8282786869643 -168.15578162784476 10.318750000000023
    vertex 208.26778228693888 -164.81742035078022 10.318750000000023
  endloop
endfacet
facet normal 0.8660254037844387 -0.5 0.0
  outer loop
    vertex 214.2774974369643 -179.3261561719706 8.731250000000024
    vertex 210.11030993696428 -186.54393664663655 10.318750000000023
    vertex 210.11030993696428 -186.54393664663655 8.731250000000024
  endloop
endfacet
facet normal 0.8660254037844387 -0.5 0.0
  outer loop
    vertex 210.11030993696428 -186.54393664663655 10.318750000000023
    vertex 214.2774974369643 -179.3261561719706 8.731250000000024
    vertex 214.2774974369643 -179.3261561719706 10.318750000000023
  endloop
endfacet
facet normal 0.2588190451025198 0.9659258262890685 0.0
  outer loop
    vertex 200.21739422846093 -162.6603253717539 10.318750000000023
    vertex 208.26778228693888 -164.81742035078022 8.731250000000024
    vertex 200.21739422846093 -162.6603253717539 8.731250000000024
  endloop
endfacet
facet normal 0.2588190451025198 0.9659258262890685 0.0
  outer loop
    vertex 208.26778228693888 -164.81742035078022 8.731250000000024
    vertex 200.21739422846093 -162.6603253717539 10.318750000000023
    vertex 208.26778228693888 -164.81742035078022 10.318750000000023
  endloop
endfacet
facet normal 0.0 0.0 1.0
  outer loop
    vertex 210.11030993696428 -186.54393664663655 10.318750000000023
    vertex 211.60614356400342 -177.27635425080564 10.318750000000023
    vertex 205.7128504845518 -183.16964733025725 10.318750000000023
  endloop
endfacet
facet normal 0.0 0.0 1.0
  outer loop
    vertex 211.60614356400342 -177.27635425080564 10.318750000000023
    vertex 210.11030993696428 -186.54393664663655 10.318750000000023
    vertex 214.2774974369643 -179.3261561719706 10.318750000000023
  endloop
endfacet
facet normal 0.0 0.0 1.0
  outer loop
    vertex 209.55634164283845 -161.70656287784476 10.318750000000023
    vertex 205.7128504845518 -153.14191592543227 10.318750000000023
    vertex 202.3385611681725 -157.53937537784478 10.318750000000023
  endloop
endfacet
facet normal 0.0 0.0 1.0
  outer loop
    vertex 205.7128504845518 -153.14191592543227 10.318750000000023
    vertex 209.55634164283845 -161.70656287784476 10.318750000000023
    vertex 211.60614356400342 -159.0352090048839 10.318750000000023
  endloop
endfacet
facet normal -0.6087614290087194 -0.793353340291236 0.0
  outer loop
    vertex 210.11030993696428 -186.54393664663655 10.318750000000023
    vertex 205.7128504845518 -183.16964733025725 8.731250000000024
    vertex 210.11030993696428 -186.54393664663655 8.731250000000024
  endloop
endfacet
facet normal -0.6087614290087194 -0.793353340291236 0.0
  outer loop
    vertex 205.7128504845518 -183.16964733025725 8.731250000000024
    vertex 210.11030993696428 -186.54393664663655 10.318750000000023
    vertex 205.7128504845518 -183.16964733025725 10.318750000000023
  endloop
endfacet
facet normal 0.9238795325112892 0.3826834323650842 0.0
  outer loop
    vertex 211.52627269156093 -170.6210330324463 7.143750000000031
    vertex 212.4778242159175 -172.91828162784478 8.731250000000024
    vertex 212.4778242159175 -172.91828162784478 7.143750000000031
  endloop
endfacet
facet normal 0.9238795325112892 0.3826834323650842 0.0
  outer loop
    vertex 212.4778242159175 -172.91828162784478 8.731250000000024
    vertex 211.52627269156093 -170.6210330324463 7.143750000000031
    vertex 211.52627269156093 -170.6210330324463 8.731250000000024
  endloop
endfacet
facet normal 0.9914448613738094 0.13052619222005957 0.0
  outer loop
    vertex 211.2017161869643 -168.15578162784476 7.143750000000031
    vertex 211.52627269156093 -170.6210330324463 8.731250000000024
    vertex 211.52627269156093 -170.6210330324463 7.143750000000031
  endloop
endfacet
facet normal 0.9914448613738094 0.13052619222005957 0.0
  outer loop
    vertex 211.52627269156093 -170.6210330324463 8.731250000000024
    vertex 211.2017161869643 -168.15578162784476 7.143750000000031
    vertex 211.2017161869643 -168.15578162784476 8.731250000000024
  endloop
endfacet
facet normal -0.9238795325112905 0.38268343236508107 4.83014398189767e-30
  outer loop
    vertex 229.92715968236766 -170.62103303244626 8.731250000000024
    vertex 228.97560815801108 -172.91828162784478 7.143750000000031
    vertex 228.97560815801108 -172.91828162784478 8.731250000000024
  endloop
endfacet
facet normal -0.9238795325112905 0.38268343236508107 4.83014398189767e-30
  outer loop
    vertex 228.97560815801108 -172.91828162784478 7.143750000000031
    vertex 229.92715968236766 -170.62103303244626 8.731250000000024
    vertex 229.92715968236766 -170.62103303244626 7.143750000000031
  endloop
endfacet
facet normal -0.6087614290087167 0.7933533402912383 -1.5367298942446629e-29
  outer loop
    vertex 225.48921618696428 -176.40467359889155 8.731250000000024
    vertex 227.46190827776616 -174.89097371864665 7.143750000000031
    vertex 225.48921618696428 -176.40467359889155 7.143750000000031
  endloop
endfacet
facet normal -0.6087614290087167 0.7933533402912383 -1.5367298942446629e-29
  outer loop
    vertex 227.46190827776616 -174.89097371864665 7.143750000000031
    vertex 225.48921618696428 -176.40467359889155 8.731250000000024
    vertex 227.46190827776616 -174.89097371864665 8.731250000000024
  endloop
endfacet
facet normal 0.13052619222005063 0.9914448613738105 -1.2513793453121147e-29
  outer loop
    vertex 218.26146478236276 -177.35622512324815 8.731250000000024
    vertex 220.7267161869643 -177.68078162784477 7.143750000000031
    vertex 218.26146478236276 -177.35622512324815 7.143750000000031
  endloop
endfacet
facet normal 0.13052619222005063 0.9914448613738105 -1.2513793453121147e-29
  outer loop
    vertex 220.7267161869643 -177.68078162784477 7.143750000000031
    vertex 218.26146478236276 -177.35622512324815 8.731250000000024
    vertex 220.7267161869643 -177.68078162784477 8.731250000000024
  endloop
endfacet
facet normal -0.38268343236509195 0.923879532511286 -1.1660999109312396e-29
  outer loop
    vertex 223.19196759156583 -177.35622512324815 8.731250000000024
    vertex 225.48921618696428 -176.40467359889155 7.143750000000031
    vertex 223.19196759156583 -177.35622512324815 7.143750000000031
  endloop
endfacet
facet normal -0.38268343236509195 0.923879532511286 -1.1660999109312396e-29
  outer loop
    vertex 225.48921618696428 -176.40467359889155 7.143750000000031
    vertex 223.19196759156583 -177.35622512324815 8.731250000000024
    vertex 225.48921618696428 -176.40467359889155 8.731250000000024
  endloop
endfacet
facet normal -0.13052619222005063 0.9914448613738105 -1.2513793453121147e-29
  outer loop
    vertex 220.7267161869643 -177.68078162784477 8.731250000000024
    vertex 223.19196759156583 -177.35622512324815 7.143750000000031
    vertex 220.7267161869643 -177.68078162784477 7.143750000000031
  endloop
endfacet
facet normal -0.13052619222005063 0.9914448613738105 -1.2513793453121147e-29
  outer loop
    vertex 223.19196759156583 -177.35622512324815 7.143750000000031
    vertex 220.7267161869643 -177.68078162784477 8.731250000000024
    vertex 223.19196759156583 -177.35622512324815 8.731250000000024
  endloop
endfacet
facet normal -0.7933533402912383 0.6087614290087167 -2.0027053893832488e-29
  outer loop
    vertex 228.97560815801108 -172.91828162784478 8.731250000000024
    vertex 227.46190827776616 -174.89097371864665 7.143750000000031
    vertex 227.46190827776616 -174.89097371864665 8.731250000000024
  endloop
endfacet
facet normal -0.7933533402912383 0.6087614290087167 -2.0027053893832488e-29
  outer loop
    vertex 227.46190827776616 -174.89097371864665 7.143750000000031
    vertex 228.97560815801108 -172.91828162784478 8.731250000000024
    vertex 228.97560815801108 -172.91828162784478 7.143750000000031
  endloop
endfacet
facet normal 0.7933533402912383 0.6087614290087167 -2.0027053893832488e-29
  outer loop
    vertex 212.4778242159175 -172.91828162784478 7.143750000000031
    vertex 213.9915240961624 -174.89097371864665 8.731250000000024
    vertex 213.9915240961624 -174.89097371864665 7.143750000000031
  endloop
endfacet
facet normal 0.7933533402912383 0.6087614290087167 -2.0027053893832488e-29
  outer loop
    vertex 213.9915240961624 -174.89097371864665 8.731250000000024
    vertex 212.4778242159175 -172.91828162784478 7.143750000000031
    vertex 212.4778242159175 -172.91828162784478 8.731250000000024
  endloop
endfacet
facet normal 0.38268343236509195 0.923879532511286 -1.1660999109312396e-29
  outer loop
    vertex 215.9642161869643 -176.40467359889155 8.731250000000024
    vertex 218.26146478236276 -177.35622512324815 7.143750000000031
    vertex 215.9642161869643 -176.40467359889155 7.143750000000031
  endloop
endfacet
facet normal 0.38268343236509195 0.923879532511286 -1.1660999109312396e-29
  outer loop
    vertex 218.26146478236276 -177.35622512324815 7.143750000000031
    vertex 215.9642161869643 -176.40467359889155 8.731250000000024
    vertex 218.26146478236276 -177.35622512324815 8.731250000000024
  endloop
endfacet
facet normal 0.6087614290087167 0.7933533402912383 -1.5367298942446629e-29
  outer loop
    vertex 213.9915240961624 -174.89097371864665 8.731250000000024
    vertex 215.9642161869643 -176.40467359889155 7.143750000000031
    vertex 213.9915240961624 -174.89097371864665 7.143750000000031
  endloop
endfacet
facet normal 0.6087614290087167 0.7933533402912383 -1.5367298942446629e-29
  outer loop
    vertex 215.9642161869643 -176.40467359889155 7.143750000000031
    vertex 213.9915240961624 -174.89097371864665 8.731250000000024
    vertex 215.9642161869643 -176.40467359889155 8.731250000000024
  endloop
endfacet
facet normal -0.9914448613738092 0.13052619222006073 1.647472162396317e-30
  outer loop
    vertex 230.2517161869643 -168.15578162784476 8.731250000000024
    vertex 229.92715968236766 -170.62103303244626 7.143750000000031
    vertex 229.92715968236766 -170.62103303244626 8.731250000000024
  endloop
endfacet
facet normal -0.9914448613738092 0.13052619222006073 1.647472162396317e-30
  outer loop
    vertex 229.92715968236766 -170.62103303244626 7.143750000000031
    vertex 230.2517161869643 -168.15578162784476 8.731250000000024
    vertex 230.2517161869643 -168.15578162784476 7.143750000000031
  endloop
endfacet
facet normal -0.9914448613738092 -0.13052619222006073 1.647472162396317e-30
  outer loop
    vertex 229.92715968236766 -165.69053022324326 8.731250000000024
    vertex 230.2517161869643 -168.15578162784476 7.143750000000031
    vertex 230.2517161869643 -168.15578162784476 8.731250000000024
  endloop
endfacet
facet normal -0.9914448613738092 -0.13052619222006073 1.647472162396317e-30
  outer loop
    vertex 230.2517161869643 -168.15578162784476 7.143750000000031
    vertex 229.92715968236766 -165.69053022324326 8.731250000000024
    vertex 229.92715968236766 -165.69053022324326 7.143750000000031
  endloop
endfacet
facet normal -0.7933533402912383 -0.6087614290087167 -2.0027053893832488e-29
  outer loop
    vertex 227.46190827776616 -161.4205895370429 8.731250000000024
    vertex 228.97560815801108 -163.39328162784477 7.143750000000031
    vertex 228.97560815801108 -163.39328162784477 8.731250000000024
  endloop
endfacet
facet normal -0.7933533402912383 -0.6087614290087167 -2.0027053893832488e-29
  outer loop
    vertex 228.97560815801108 -163.39328162784477 7.143750000000031
    vertex 227.46190827776616 -161.4205895370429 8.731250000000024
    vertex 227.46190827776616 -161.4205895370429 7.143750000000031
  endloop
endfacet
facet normal -0.9238795325112905 -0.38268343236508107 4.83014398189767e-30
  outer loop
    vertex 228.97560815801108 -163.39328162784477 8.731250000000024
    vertex 229.92715968236766 -165.69053022324326 7.143750000000031
    vertex 229.92715968236766 -165.69053022324326 8.731250000000024
  endloop
endfacet
facet normal -0.9238795325112905 -0.38268343236508107 4.83014398189767e-30
  outer loop
    vertex 229.92715968236766 -165.69053022324326 7.143750000000031
    vertex 228.97560815801108 -163.39328162784477 8.731250000000024
    vertex 228.97560815801108 -163.39328162784477 7.143750000000031
  endloop
endfacet
facet normal -0.499999999999998 -0.8660254037844398 0.0
  outer loop
    vertex 209.55634164283845 -161.70656287784476 10.318750000000023
    vertex 202.3385611681725 -157.53937537784478 8.731250000000024
    vertex 209.55634164283845 -161.70656287784476 8.731250000000024
  endloop
endfacet
facet normal -0.499999999999998 -0.8660254037844398 0.0
  outer loop
    vertex 202.3385611681725 -157.53937537784478 8.731250000000024
    vertex 209.55634164283845 -161.70656287784476 10.318750000000023
    vertex 202.3385611681725 -157.53937537784478 10.318750000000023
  endloop
endfacet
facet normal -0.7933533402912376 0.6087614290087175 0.0
  outer loop
    vertex 205.7128504845518 -153.14191592543227 10.318750000000023
    vertex 202.3385611681725 -157.53937537784478 8.731250000000024
    vertex 202.3385611681725 -157.53937537784478 10.318750000000023
  endloop
endfacet
facet normal -0.7933533402912376 0.6087614290087175 0.0
  outer loop
    vertex 202.3385611681725 -157.53937537784478 8.731250000000024
    vertex 205.7128504845518 -153.14191592543227 10.318750000000023
    vertex 205.7128504845518 -153.14191592543227 8.731250000000024
  endloop
endfacet
facet normal 0.7071067811865476 0.7071067811865476 0.0
  outer loop
    vertex 205.7128504845518 -153.14191592543227 8.731250000000024
    vertex 211.60614356400342 -159.0352090048839 10.318750000000023
    vertex 211.60614356400342 -159.0352090048839 8.731250000000024
  endloop
endfacet
facet normal 0.7071067811865476 0.7071067811865476 0.0
  outer loop
    vertex 211.60614356400342 -159.0352090048839 10.318750000000023
    vertex 205.7128504845518 -153.14191592543227 8.731250000000024
    vertex 205.7128504845518 -153.14191592543227 10.318750000000023
  endloop
endfacet
facet normal 0.49999999999999895 0.8660254037844394 0.0
  outer loop
    vertex 231.89709073109015 -174.60500037784476 10.318750000000023
    vertex 239.1148712057561 -178.77218787784477 8.731250000000024
    vertex 231.89709073109015 -174.60500037784476 8.731250000000024
  endloop
endfacet
facet normal 0.49999999999999895 0.8660254037844394 0.0
  outer loop
    vertex 239.1148712057561 -178.77218787784477 8.731250000000024
    vertex 231.89709073109015 -174.60500037784476 10.318750000000023
    vertex 239.1148712057561 -178.77218787784477 10.318750000000023
  endloop
endfacet
facet normal 0.0 0.0 1.0
  outer loop
    vertex 235.74058188937678 -183.16964733025725 10.318750000000023
    vertex 231.89709073109015 -174.60500037784476 10.318750000000023
    vertex 229.84728880992515 -177.27635425080564 10.318750000000023
  endloop
endfacet
facet normal 0.0 0.0 1.0
  outer loop
    vertex 231.89709073109015 -174.60500037784476 10.318750000000023
    vertex 235.74058188937678 -183.16964733025725 10.318750000000023
    vertex 239.1148712057561 -178.77218787784477 10.318750000000023
  endloop
endfacet
facet normal 0.7933533402912342 -0.608761429008722 0.0
  outer loop
    vertex 239.1148712057561 -178.77218787784477 8.731250000000024
    vertex 235.74058188937678 -183.16964733025725 10.318750000000023
    vertex 235.74058188937678 -183.16964733025725 8.731250000000024
  endloop
endfacet
facet normal 0.7933533402912342 -0.608761429008722 0.0
  outer loop
    vertex 235.74058188937678 -183.16964733025725 10.318750000000023
    vertex 239.1148712057561 -178.77218787784477 8.731250000000024
    vertex 239.1148712057561 -178.77218787784477 10.318750000000023
  endloop
endfacet
facet normal -0.7071067811865476 -0.7071067811865476 0.0
  outer loop
    vertex 229.84728880992515 -177.27635425080564 10.318750000000023
    vertex 235.74058188937678 -183.16964733025725 8.731250000000024
    vertex 235.74058188937678 -183.16964733025725 10.318750000000023
  endloop
endfacet
facet normal -0.7071067811865476 -0.7071067811865476 0.0
  outer loop
    vertex 235.74058188937678 -183.16964733025725 8.731250000000024
    vertex 229.84728880992515 -177.27635425080564 10.318750000000023
    vertex 229.84728880992515 -177.27635425080564 8.731250000000024
  endloop
endfacet
facet normal -0.5000000000000011 0.866025403784438 0.0
  outer loop
    vertex 231.89709073109015 -161.70656287784476 10.318750000000023
    vertex 239.11487120575606 -157.53937537784478 8.731250000000024
    vertex 231.89709073109015 -161.70656287784476 8.731250000000024
  endloop
endfacet
facet normal -0.5000000000000011 0.866025403784438 0.0
  outer loop
    vertex 239.11487120575606 -157.53937537784478 8.731250000000024
    vertex 231.89709073109015 -161.70656287784476 10.318750000000023
    vertex 239.11487120575606 -157.53937537784478 10.318750000000023
  endloop
endfacet
facet normal 0.9238795325112846 0.3826834323650949 0.0
  outer loop
    vertex 239.11487120575606 -157.53937537784478 8.731250000000024
    vertex 241.23603814546766 -162.66032537175388 10.318750000000023
    vertex 241.23603814546766 -162.66032537175388 8.731250000000024
  endloop
endfacet
facet normal 0.9238795325112846 0.3826834323650949 0.0
  outer loop
    vertex 241.23603814546766 -162.66032537175388 10.318750000000023
    vertex 239.11487120575606 -157.53937537784478 8.731250000000024
    vertex 239.11487120575606 -157.53937537784478 10.318750000000023
  endloop
endfacet
facet normal 0.258819045102521 -0.9659258262890682 0.0
  outer loop
    vertex 241.23603814546766 -162.66032537175388 10.318750000000023
    vertex 233.18565008698968 -164.81742035078022 8.731250000000024
    vertex 241.23603814546766 -162.66032537175388 8.731250000000024
  endloop
endfacet
facet normal 0.258819045102521 -0.9659258262890682 0.0
  outer loop
    vertex 233.18565008698968 -164.81742035078022 8.731250000000024
    vertex 241.23603814546766 -162.66032537175388 10.318750000000023
    vertex 233.18565008698968 -164.81742035078022 10.318750000000023
  endloop
endfacet
facet normal 0.0 0.0 1.0
  outer loop
    vertex 233.18565008698968 -164.81742035078022 10.318750000000023
    vertex 239.11487120575606 -157.53937537784478 10.318750000000023
    vertex 231.89709073109015 -161.70656287784476 10.318750000000023
  endloop
endfacet
facet normal 0.0 0.0 1.0
  outer loop
    vertex 239.11487120575606 -157.53937537784478 10.318750000000023
    vertex 233.18565008698968 -164.81742035078022 10.318750000000023
    vertex 241.23603814546766 -162.66032537175388 10.318750000000023
  endloop
endfacet
facet normal 0.13052619222005318 0.9914448613738103 0.0
  outer loop
    vertex 220.7267161869643 -146.92296912784477 10.318750000000023
    vertex 226.22217244305517 -147.64645966934143 8.731250000000024
    vertex 220.7267161869643 -146.92296912784477 8.731250000000024
  endloop
endfacet
facet normal 0.13052619222005318 0.9914448613738103 0.0
  outer loop
    vertex 226.22217244305517 -147.64645966934143 8.731250000000024
    vertex 220.7267161869643 -146.92296912784477 10.318750000000023
    vertex 226.22217244305517 -147.64645966934143 10.318750000000023
  endloop
endfacet
facet normal 0.0 0.0 1.0
  outer loop
    vertex 224.06507746402886 -155.69684772781937 10.318750000000023
    vertex 220.7267161869643 -146.92296912784477 10.318750000000023
    vertex 220.7267161869643 -155.25734412784476 10.318750000000023
  endloop
endfacet
facet normal 0.0 0.0 1.0
  outer loop
    vertex 220.7267161869643 -146.92296912784477 10.318750000000023
    vertex 224.06507746402886 -155.69684772781937 10.318750000000023
    vertex 226.22217244305517 -147.64645966934143 10.318750000000023
  endloop
endfacet
facet normal -1.0 0.0 0.0
  outer loop
    vertex 220.7267161869643 -146.92296912784477 10.318750000000023
    vertex 220.7267161869643 -155.25734412784476 8.731250000000024
    vertex 220.7267161869643 -155.25734412784476 10.318750000000023
  endloop
endfacet
facet normal -1.0 0.0 0.0
  outer loop
    vertex 220.7267161869643 -155.25734412784476 8.731250000000024
    vertex 220.7267161869643 -146.92296912784477 10.318750000000023
    vertex 220.7267161869643 -146.92296912784477 8.731250000000024
  endloop
endfacet
facet normal 0.9659258262890685 -0.2588190451025198 0.0
  outer loop
    vertex 226.22217244305517 -147.64645966934143 8.731250000000024
    vertex 224.06507746402886 -155.69684772781937 10.318750000000023
    vertex 224.06507746402886 -155.69684772781937 8.731250000000024
  endloop
endfacet
facet normal 0.9659258262890685 -0.2588190451025198 0.0
  outer loop
    vertex 224.06507746402886 -155.69684772781937 10.318750000000023
    vertex 226.22217244305517 -147.64645966934143 8.731250000000024
    vertex 226.22217244305517 -147.64645966934143 10.318750000000023
  endloop
endfacet
facet normal -0.13052619222005116 0.9914448613738105 7.044639441558406e-15
  outer loop
    vertex 215.23125993087342 -147.64645966934143 8.731250000000024
    vertex 220.7267161869643 -146.92296912784477 7.143750000000024
    vertex 215.23125993087342 -147.6464596693414 7.143750000000024
  endloop
endfacet
facet normal -0.13052619222005116 0.9914448613738105 7.044639441558406e-15
  outer loop
    vertex 220.7267161869643 -146.92296912784477 7.143750000000024
    vertex 215.23125993087342 -147.64645966934143 8.731250000000024
    vertex 220.7267161869643 -146.92296912784477 8.731250000000024
  endloop
endfacet
facet normal 0.923879532511286 0.3826834323650915 1.3129117810866631e-14
  outer loop
    vertex 239.1148712057561 -157.53937537784478 7.143750000000024
    vertex 241.23603814546766 -162.66032537175388 8.731250000000024
    vertex 241.23603814546766 -162.66032537175388 7.143750000000024
  endloop
endfacet
facet normal 0.923879532511286 0.3826834323650915 1.3129117810866631e-14
  outer loop
    vertex 241.23603814546766 -162.66032537175388 8.731250000000024
    vertex 239.1148712057561 -157.53937537784478 7.143750000000024
    vertex 239.11487120575606 -157.53937537784478 8.731250000000024
  endloop
endfacet
facet normal 0.3826834323650897 0.9238795325112868 6.564558905433322e-15
  outer loop
    vertex 226.22217244305517 -147.64645966934143 8.731250000000024
    vertex 231.3431224369643 -149.767626609053 7.143750000000024
    vertex 226.22217244305517 -147.6464596693414 7.143750000000024
  endloop
endfacet
facet normal 0.3826834323650897 0.9238795325112868 6.564558905433322e-15
  outer loop
    vertex 231.3431224369643 -149.767626609053 7.143750000000024
    vertex 226.22217244305517 -147.64645966934143 8.731250000000024
    vertex 231.3431224369643 -149.767626609053 8.731250000000024
  endloop
endfacet
facet normal 0.9914448613738107 -0.13052619222004916 0.0
  outer loop
    vertex 241.9595286869643 -168.15578162784476 7.143750000000024
    vertex 241.23603814546766 -173.65123788393564 8.731250000000024
    vertex 241.23603814546766 -173.65123788393564 7.143750000000024
  endloop
endfacet
facet normal 0.9914448613738107 -0.13052619222004916 0.0
  outer loop
    vertex 241.23603814546766 -173.65123788393564 8.731250000000024
    vertex 241.9595286869643 -168.15578162784476 7.143750000000024
    vertex 241.9595286869643 -168.15578162784476 8.731250000000024
  endloop
endfacet
facet normal 0.13052619222005116 0.9914448613738105 7.044639441558406e-15
  outer loop
    vertex 220.7267161869643 -146.92296912784477 8.731250000000024
    vertex 226.22217244305517 -147.6464596693414 7.143750000000024
    vertex 220.7267161869643 -146.92296912784477 7.143750000000024
  endloop
endfacet
facet normal 0.13052619222005116 0.9914448613738105 7.044639441558406e-15
  outer loop
    vertex 226.22217244305517 -147.6464596693414 7.143750000000024
    vertex 220.7267161869643 -146.92296912784477 8.731250000000024
    vertex 226.22217244305517 -147.64645966934143 8.731250000000024
  endloop
endfacet
facet normal 0.9238795325112875 -0.3826834323650879 0.0
  outer loop
    vertex 241.23603814546766 -173.65123788393564 7.143750000000024
    vertex 239.1148712057561 -178.77218787784477 8.731250000000024
    vertex 239.1148712057561 -178.77218787784477 7.143750000000024
  endloop
endfacet
facet normal 0.9238795325112875 -0.3826834323650879 0.0
  outer loop
    vertex 239.1148712057561 -178.77218787784477 8.731250000000024
    vertex 241.23603814546766 -173.65123788393564 7.143750000000024
    vertex 241.23603814546766 -173.65123788393564 8.731250000000024
  endloop
endfacet
facet normal -0.9238795325112862 0.3826834323650914 5.438258659255146e-15
  outer loop
    vertex 202.3385611681725 -157.53937537784478 8.731250000000024
    vertex 200.21739422846093 -162.66032537175388 7.143750000000024
    vertex 200.21739422846093 -162.6603253717539 8.731250000000024
  endloop
endfacet
facet normal -0.9238795325112862 0.3826834323650914 5.438258659255146e-15
  outer loop
    vertex 200.21739422846093 -162.66032537175388 7.143750000000024
    vertex 202.3385611681725 -157.53937537784478 8.731250000000024
    vertex 202.3385611681725 -157.53937537784478 7.143750000000024
  endloop
endfacet
facet normal 0.7933533402912342 -0.608761429008722 0.0
  outer loop
    vertex 239.1148712057561 -178.77218787784477 7.143750000000024
    vertex 235.74058188937678 -183.16964733025725 8.731250000000024
    vertex 235.74058188937678 -183.16964733025725 7.143750000000024
  endloop
endfacet
facet normal 0.7933533402912342 -0.608761429008722 0.0
  outer loop
    vertex 235.74058188937678 -183.16964733025725 8.731250000000024
    vertex 239.1148712057561 -178.77218787784477 7.143750000000024
    vertex 239.1148712057561 -178.77218787784477 8.731250000000024
  endloop
endfacet
facet normal 0.6087614290087194 0.793353340291236 0.0
  outer loop
    vertex 231.3431224369643 -149.767626609053 8.731250000000024
    vertex 235.74058188937678 -153.14191592543227 7.143750000000024
    vertex 231.3431224369643 -149.767626609053 7.143750000000024
  endloop
endfacet
facet normal 0.6087614290087194 0.793353340291236 0.0
  outer loop
    vertex 235.74058188937678 -153.14191592543227 7.143750000000024
    vertex 231.3431224369643 -149.767626609053 8.731250000000024
    vertex 235.74058188937678 -153.14191592543227 8.731250000000024
  endloop
endfacet
facet normal 0.793353340291236 0.6087614290087194 1.1274229056698972e-14
  outer loop
    vertex 235.74058188937678 -153.14191592543227 7.143750000000024
    vertex 239.11487120575606 -157.53937537784478 8.731250000000024
    vertex 239.1148712057561 -157.53937537784478 7.143750000000024
  endloop
endfacet
facet normal 0.793353340291236 0.6087614290087194 1.1274229056698972e-14
  outer loop
    vertex 239.11487120575606 -157.53937537784478 8.731250000000024
    vertex 235.74058188937678 -153.14191592543227 7.143750000000024
    vertex 235.74058188937678 -153.14191592543227 8.731250000000024
  endloop
endfacet
facet normal -0.3826834323650897 -0.9238795325112868 6.564558905433322e-15
  outer loop
    vertex 215.23125993087342 -188.66510358634812 8.731250000000024
    vertex 210.11030993696428 -186.54393664663655 7.143750000000024
    vertex 215.23125993087342 -188.66510358634812 7.143750000000024
  endloop
endfacet
facet normal -0.3826834323650897 -0.9238795325112868 6.564558905433322e-15
  outer loop
    vertex 210.11030993696428 -186.54393664663655 7.143750000000024
    vertex 215.23125993087342 -188.66510358634812 8.731250000000024
    vertex 210.11030993696428 -186.54393664663655 8.731250000000024
  endloop
endfacet
facet normal 0.3826834323650897 -0.9238795325112868 6.564558905433322e-15
  outer loop
    vertex 231.3431224369643 -186.54393664663655 8.731250000000024
    vertex 226.22217244305517 -188.66510358634812 7.143750000000024
    vertex 231.3431224369643 -186.54393664663655 7.143750000000024
  endloop
endfacet
facet normal 0.3826834323650897 -0.9238795325112868 6.564558905433322e-15
  outer loop
    vertex 226.22217244305517 -188.66510358634812 7.143750000000024
    vertex 231.3431224369643 -186.54393664663655 8.731250000000024
    vertex 226.22217244305517 -188.66510358634812 8.731250000000024
  endloop
endfacet
facet normal -0.3826834323650897 0.9238795325112868 6.564558905433322e-15
  outer loop
    vertex 210.11030993696428 -149.767626609053 8.731250000000024
    vertex 215.23125993087342 -147.6464596693414 7.143750000000024
    vertex 210.11030993696428 -149.767626609053 7.143750000000024
  endloop
endfacet
facet normal -0.3826834323650897 0.9238795325112868 6.564558905433322e-15
  outer loop
    vertex 215.23125993087342 -147.6464596693414 7.143750000000024
    vertex 210.11030993696428 -149.767626609053 8.731250000000024
    vertex 215.23125993087342 -147.64645966934143 8.731250000000024
  endloop
endfacet
facet normal -0.9238795325112862 -0.3826834323650914 1.3129117810866634e-14
  outer loop
    vertex 200.21739422846096 -173.65123788393564 8.731250000000024
    vertex 202.3385611681725 -178.77218787784477 7.143750000000024
    vertex 202.33856116817253 -178.77218787784477 8.731250000000024
  endloop
endfacet
facet normal -0.9238795325112862 -0.3826834323650914 1.3129117810866634e-14
  outer loop
    vertex 202.3385611681725 -178.77218787784477 7.143750000000024
    vertex 200.21739422846096 -173.65123788393564 8.731250000000024
    vertex 200.21739422846093 -173.65123788393564 7.143750000000024
  endloop
endfacet
facet normal -0.6087614290087207 0.7933533402912352 -5.6371145283494795e-15
  outer loop
    vertex 205.7128504845518 -153.14191592543227 8.731250000000024
    vertex 210.11030993696428 -149.767626609053 7.143750000000024
    vertex 205.7128504845518 -153.1419159254323 7.143750000000024
  endloop
endfacet
facet normal -0.6087614290087207 0.7933533402912352 -5.6371145283494795e-15
  outer loop
    vertex 210.11030993696428 -149.767626609053 7.143750000000024
    vertex 205.7128504845518 -153.14191592543227 8.731250000000024
    vertex 210.11030993696428 -149.767626609053 8.731250000000024
  endloop
endfacet
facet normal -0.793353340291236 0.6087614290087194 0.0
  outer loop
    vertex 205.7128504845518 -153.14191592543227 8.731250000000024
    vertex 202.3385611681725 -157.53937537784478 7.143750000000024
    vertex 202.3385611681725 -157.53937537784478 8.731250000000024
  endloop
endfacet
facet normal -0.793353340291236 0.6087614290087194 0.0
  outer loop
    vertex 202.3385611681725 -157.53937537784478 7.143750000000024
    vertex 205.7128504845518 -153.14191592543227 8.731250000000024
    vertex 205.7128504845518 -153.1419159254323 7.143750000000024
  endloop
endfacet
facet normal 0.13052619222005116 -0.9914448613738105 7.044639441558406e-15
  outer loop
    vertex 226.22217244305517 -188.66510358634812 8.731250000000024
    vertex 220.7267161869643 -189.38859412784475 7.143750000000024
    vertex 226.22217244305517 -188.66510358634812 7.143750000000024
  endloop
endfacet
facet normal 0.13052619222005116 -0.9914448613738105 7.044639441558406e-15
  outer loop
    vertex 220.7267161869643 -189.38859412784475 7.143750000000024
    vertex 226.22217244305517 -188.66510358634812 8.731250000000024
    vertex 220.7267161869643 -189.38859412784475 8.731250000000024
  endloop
endfacet
facet normal -0.793353340291237 -0.6087614290087182 5.637114528349493e-15
  outer loop
    vertex 202.33856116817253 -178.77218787784477 8.731250000000024
    vertex 205.7128504845518 -183.16964733025725 7.143750000000024
    vertex 205.7128504845518 -183.16964733025725 8.731250000000024
  endloop
endfacet
facet normal -0.793353340291237 -0.6087614290087182 5.637114528349493e-15
  outer loop
    vertex 205.7128504845518 -183.16964733025725 7.143750000000024
    vertex 202.33856116817253 -178.77218787784477 8.731250000000024
    vertex 202.3385611681725 -178.77218787784477 7.143750000000024
  endloop
endfacet
facet normal -0.6087614290087194 -0.793353340291236 0.0
  outer loop
    vertex 210.11030993696428 -186.54393664663655 8.731250000000024
    vertex 205.7128504845518 -183.16964733025725 7.143750000000024
    vertex 210.11030993696428 -186.54393664663655 7.143750000000024
  endloop
endfacet
facet normal -0.6087614290087194 -0.793353340291236 0.0
  outer loop
    vertex 205.7128504845518 -183.16964733025725 7.143750000000024
    vertex 210.11030993696428 -186.54393664663655 8.731250000000024
    vertex 205.7128504845518 -183.16964733025725 8.731250000000024
  endloop
endfacet
facet normal 0.9914448613738107 0.13052619222004916 0.0
  outer loop
    vertex 241.23603814546766 -162.66032537175388 7.143750000000024
    vertex 241.9595286869643 -168.15578162784476 8.731250000000024
    vertex 241.9595286869643 -168.15578162784476 7.143750000000024
  endloop
endfacet
facet normal 0.9914448613738107 0.13052619222004916 0.0
  outer loop
    vertex 241.9595286869643 -168.15578162784476 8.731250000000024
    vertex 241.23603814546766 -162.66032537175388 7.143750000000024
    vertex 241.23603814546766 -162.66032537175388 8.731250000000024
  endloop
endfacet
facet normal 0.6087614290087194 -0.793353340291236 0.0
  outer loop
    vertex 235.74058188937678 -183.16964733025725 8.731250000000024
    vertex 231.3431224369643 -186.54393664663655 7.143750000000024
    vertex 235.74058188937678 -183.16964733025725 7.143750000000024
  endloop
endfacet
facet normal 0.6087614290087194 -0.793353340291236 0.0
  outer loop
    vertex 231.3431224369643 -186.54393664663655 7.143750000000024
    vertex 235.74058188937678 -183.16964733025725 8.731250000000024
    vertex 231.3431224369643 -186.54393664663655 8.731250000000024
  endloop
endfacet
facet normal -0.13052619222005116 -0.9914448613738105 7.044639441558406e-15
  outer loop
    vertex 220.7267161869643 -189.38859412784475 8.731250000000024
    vertex 215.23125993087342 -188.66510358634812 7.143750000000024
    vertex 220.7267161869643 -189.38859412784475 7.143750000000024
  endloop
endfacet
facet normal -0.13052619222005116 -0.9914448613738105 7.044639441558406e-15
  outer loop
    vertex 215.23125993087342 -188.66510358634812 7.143750000000024
    vertex 220.7267161869643 -189.38859412784475 8.731250000000024
    vertex 215.23125993087342 -188.66510358634812 8.731250000000024
  endloop
endfacet
facet normal -0.9914448613738105 -0.13052619222005143 7.972083818642247e-15
  outer loop
    vertex 199.4939036869643 -168.15578162784476 8.731250000000024
    vertex 200.21739422846093 -173.65123788393564 7.143750000000024
    vertex 200.21739422846096 -173.65123788393564 8.731250000000024
  endloop
endfacet
facet normal -0.9914448613738105 -0.13052619222005143 7.972083818642247e-15
  outer loop
    vertex 200.21739422846093 -173.65123788393564 7.143750000000024
    vertex 199.4939036869643 -168.15578162784476 8.731250000000024
    vertex 199.4939036869643 -168.1557816278448 7.143750000000024
  endloop
endfacet
facet normal -0.9914448613738107 0.13052619222004916 0.0
  outer loop
    vertex 199.4939036869643 -168.15578162784476 8.731250000000024
    vertex 200.21739422846093 -162.66032537175388 7.143750000000024
    vertex 199.4939036869643 -168.1557816278448 7.143750000000024
  endloop
endfacet
facet normal -0.9914448613738107 0.13052619222004916 0.0
  outer loop
    vertex 200.21739422846093 -162.66032537175388 7.143750000000024
    vertex 199.4939036869643 -168.15578162784476 8.731250000000024
    vertex 200.21739422846093 -162.6603253717539 8.731250000000024
  endloop
endfacet
facet normal 0.0 0.0 1.0
  outer loop
    vertex 231.89709073109015 -161.70656287784476 8.731250000000024
    vertex 235.74058188937678 -153.14191592543227 8.731250000000024
    vertex 229.84728880992515 -159.0352090048839 8.731250000000024
  endloop
endfacet
facet normal 0.0 0.0 1.0
  outer loop
    vertex 235.74058188937678 -153.14191592543227 8.731250000000024
    vertex 231.89709073109015 -161.70656287784476 8.731250000000024
    vertex 239.11487120575606 -157.53937537784478 8.731250000000024
  endloop
endfacet
facet normal 0.0 0.0 1.0
  outer loop
    vertex 239.1148712057561 -178.77218787784477 8.731250000000024
    vertex 233.1856500869897 -171.4941429049093 8.731250000000024
    vertex 231.89709073109015 -174.60500037784476 8.731250000000024
  endloop
endfacet
facet normal 0.0 0.0 1.0
  outer loop
    vertex 233.1856500869897 -171.4941429049093 8.731250000000024
    vertex 239.1148712057561 -178.77218787784477 8.731250000000024
    vertex 241.23603814546766 -173.65123788393564 8.731250000000024
  endloop
endfacet
facet normal 0.0 0.0 1.0
  outer loop
    vertex 233.6251536869643 -168.15578162784476 8.731250000000024
    vertex 241.23603814546766 -162.66032537175388 8.731250000000024
    vertex 233.18565008698968 -164.81742035078022 8.731250000000024
  endloop
endfacet
facet normal 0.0 0.0 1.0
  outer loop
    vertex 241.23603814546766 -162.66032537175388 8.731250000000024
    vertex 233.6251536869643 -168.15578162784476 8.731250000000024
    vertex 241.9595286869643 -168.15578162784476 8.731250000000024
  endloop
endfacet
facet normal 0.0 0.0 1.0
  outer loop
    vertex 227.1759349369643 -156.9854070837189 8.731250000000024
    vertex 226.22217244305517 -147.64645966934143 8.731250000000024
    vertex 224.06507746402886 -155.69684772781937 8.731250000000024
  endloop
endfacet
facet normal 0.0 0.0 1.0
  outer loop
    vertex 226.22217244305517 -147.64645966934143 8.731250000000024
    vertex 227.1759349369643 -156.9854070837189 8.731250000000024
    vertex 231.3431224369643 -149.767626609053 8.731250000000024
  endloop
endfacet
facet normal 0.0 0.0 1.0
  outer loop
    vertex 229.84728880992515 -159.0352090048839 10.318750000000023
    vertex 231.3431224369643 -149.767626609053 10.318750000000023
    vertex 227.1759349369643 -156.9854070837189 10.318750000000023
  endloop
endfacet
facet normal 0.0 0.0 1.0
  outer loop
    vertex 231.3431224369643 -149.767626609053 10.318750000000023
    vertex 229.84728880992515 -159.0352090048839 10.318750000000023
    vertex 235.74058188937678 -153.14191592543227 10.318750000000023
  endloop
endfacet
facet normal 0.7071067811865476 -0.7071067811865476 0.0
  outer loop
    vertex 235.74058188937678 -153.14191592543227 8.731250000000024
    vertex 229.84728880992515 -159.0352090048839 10.318750000000023
    vertex 229.84728880992515 -159.0352090048839 8.731250000000024
  endloop
endfacet
facet normal 0.7071067811865476 -0.7071067811865476 0.0
  outer loop
    vertex 229.84728880992515 -159.0352090048839 10.318750000000023
    vertex 235.74058188937678 -153.14191592543227 8.731250000000024
    vertex 235.74058188937678 -153.14191592543227 10.318750000000023
  endloop
endfacet
facet normal 0.6087614290087194 0.793353340291236 0.0
  outer loop
    vertex 231.3431224369643 -149.767626609053 10.318750000000023
    vertex 235.74058188937678 -153.14191592543227 8.731250000000024
    vertex 231.3431224369643 -149.767626609053 8.731250000000024
  endloop
endfacet
facet normal 0.6087614290087194 0.793353340291236 0.0
  outer loop
    vertex 235.74058188937678 -153.14191592543227 8.731250000000024
    vertex 231.3431224369643 -149.767626609053 10.318750000000023
    vertex 235.74058188937678 -153.14191592543227 10.318750000000023
  endloop
endfacet
facet normal -0.8660254037844387 0.5 0.0
  outer loop
    vertex 231.3431224369643 -149.767626609053 10.318750000000023
    vertex 227.1759349369643 -156.9854070837189 8.731250000000024
    vertex 227.1759349369643 -156.9854070837189 10.318750000000023
  endloop
endfacet
facet normal -0.8660254037844387 0.5 0.0
  outer loop
    vertex 227.1759349369643 -156.9854070837189 8.731250000000024
    vertex 231.3431224369643 -149.767626609053 10.318750000000023
    vertex 231.3431224369643 -149.767626609053 8.731250000000024
  endloop
endfacet
facet normal 0.0 0.0 1.0
  outer loop
    vertex 217.38835490989973 -155.69684772781937 8.731250000000024
    vertex 220.7267161869643 -146.92296912784477 8.731250000000024
    vertex 215.23125993087342 -147.64645966934143 8.731250000000024
  endloop
endfacet
facet normal 0.0 0.0 1.0
  outer loop
    vertex 220.7267161869643 -146.92296912784477 8.731250000000024
    vertex 217.38835490989973 -155.69684772781937 8.731250000000024
    vertex 220.7267161869643 -155.25734412784476 8.731250000000024
  endloop
endfacet
facet normal 0.0 0.0 1.0
  outer loop
    vertex 211.60614356400342 -159.0352090048839 8.731250000000024
    vertex 210.11030993696428 -149.767626609053 8.731250000000024
    vertex 205.7128504845518 -153.14191592543227 8.731250000000024
  endloop
endfacet
facet normal 0.0 0.0 1.0
  outer loop
    vertex 210.11030993696428 -149.767626609053 8.731250000000024
    vertex 211.60614356400342 -159.0352090048839 8.731250000000024
    vertex 214.2774974369643 -156.9854070837189 8.731250000000024
  endloop
endfacet
facet normal 0.0 0.0 1.0
  outer loop
    vertex 200.21739422846096 -173.65123788393564 8.731250000000024
    vertex 207.8282786869643 -168.15578162784476 8.731250000000024
    vertex 199.4939036869643 -168.15578162784476 8.731250000000024
  endloop
endfacet
facet normal 0.0 0.0 1.0
  outer loop
    vertex 207.8282786869643 -168.15578162784476 8.731250000000024
    vertex 200.21739422846096 -173.65123788393564 8.731250000000024
    vertex 208.2677822869389 -171.49414290490932 8.731250000000024
  endloop
endfacet
facet normal 0.38268343236509 -0.9238795325112867 0.0
  outer loop
    vertex 217.38835490989973 -155.69684772781937 10.318750000000023
    vertex 214.2774974369643 -156.9854070837189 8.731250000000024
    vertex 217.38835490989973 -155.69684772781937 8.731250000000024
  endloop
endfacet
facet normal 0.38268343236509 -0.9238795325112867 0.0
  outer loop
    vertex 214.2774974369643 -156.9854070837189 8.731250000000024
    vertex 217.38835490989973 -155.69684772781937 10.318750000000023
    vertex 214.2774974369643 -156.9854070837189 10.318750000000023
  endloop
endfacet
facet normal 0.793353340291236 -0.6087614290087195 0.0
  outer loop
    vertex 211.60614356400342 -159.0352090048839 8.731250000000024
    vertex 209.55634164283845 -161.70656287784476 10.318750000000023
    vertex 209.55634164283845 -161.70656287784476 8.731250000000024
  endloop
endfacet
facet normal 0.793353340291236 -0.6087614290087195 0.0
  outer loop
    vertex 209.55634164283845 -161.70656287784476 10.318750000000023
    vertex 211.60614356400342 -159.0352090048839 8.731250000000024
    vertex 211.60614356400342 -159.0352090048839 10.318750000000023
  endloop
endfacet
facet normal 0.9914448613738112 -0.13052619222004572 0.0
  outer loop
    vertex 208.26778228693888 -164.81742035078022 8.731250000000024
    vertex 207.8282786869643 -168.15578162784476 10.318750000000023
    vertex 207.8282786869643 -168.15578162784476 8.731250000000024
  endloop
endfacet
facet normal 0.9914448613738112 -0.13052619222004572 0.0
  outer loop
    vertex 207.8282786869643 -168.15578162784476 10.318750000000023
    vertex 208.26778228693888 -164.81742035078022 8.731250000000024
    vertex 208.26778228693888 -164.81742035078022 10.318750000000023
  endloop
endfacet
facet normal 0.9238795325112892 0.38268343236508423 0.0
  outer loop
    vertex 208.2677822869389 -171.49414290490932 8.731250000000024
    vertex 209.55634164283845 -174.60500037784476 10.318750000000023
    vertex 209.55634164283845 -174.60500037784476 8.731250000000024
  endloop
endfacet
facet normal 0.9238795325112892 0.38268343236508423 0.0
  outer loop
    vertex 209.55634164283845 -174.60500037784476 10.318750000000023
    vertex 208.2677822869389 -171.49414290490932 8.731250000000024
    vertex 208.2677822869389 -171.49414290490932 10.318750000000023
  endloop
endfacet
facet normal 0.6087614290087195 0.793353340291236 0.0
  outer loop
    vertex 211.60614356400342 -177.27635425080564 10.318750000000023
    vertex 214.2774974369643 -179.3261561719706 8.731250000000024
    vertex 211.60614356400342 -177.27635425080564 8.731250000000024
  endloop
endfacet
facet normal 0.6087614290087195 0.793353340291236 0.0
  outer loop
    vertex 214.2774974369643 -179.3261561719706 8.731250000000024
    vertex 211.60614356400342 -177.27635425080564 10.318750000000023
    vertex 214.2774974369643 -179.3261561719706 10.318750000000023
  endloop
endfacet
facet normal 0.13052619222005146 0.9914448613738105 0.0
  outer loop
    vertex 217.38835490989973 -180.61471552787017 10.318750000000023
    vertex 220.7267161869643 -181.05421912784476 8.731250000000024
    vertex 217.38835490989973 -180.61471552787017 8.731250000000024
  endloop
endfacet
facet normal 0.13052619222005146 0.9914448613738105 0.0
  outer loop
    vertex 220.7267161869643 -181.05421912784476 8.731250000000024
    vertex 217.38835490989973 -180.61471552787017 10.318750000000023
    vertex 220.7267161869643 -181.05421912784476 10.318750000000023
  endloop
endfacet
facet normal -0.38268343236509 0.9238795325112867 0.0
  outer loop
    vertex 224.06507746402886 -180.61471552787017 10.318750000000023
    vertex 227.1759349369643 -179.3261561719706 8.731250000000024
    vertex 224.06507746402886 -180.61471552787017 8.731250000000024
  endloop
endfacet
facet normal -0.38268343236509 0.9238795325112867 0.0
  outer loop
    vertex 227.1759349369643 -179.3261561719706 8.731250000000024
    vertex 224.06507746402886 -180.61471552787017 10.318750000000023
    vertex 227.1759349369643 -179.3261561719706 10.318750000000023
  endloop
endfacet
facet normal -0.793353340291236 0.6087614290087195 0.0
  outer loop
    vertex 231.89709073109015 -174.60500037784476 10.318750000000023
    vertex 229.84728880992515 -177.27635425080564 8.731250000000024
    vertex 229.84728880992515 -177.27635425080564 10.318750000000023
  endloop
endfacet
facet normal -0.793353340291236 0.6087614290087195 0.0
  outer loop
    vertex 229.84728880992515 -177.27635425080564 8.731250000000024
    vertex 231.89709073109015 -174.60500037784476 10.318750000000023
    vertex 231.89709073109015 -174.60500037784476 8.731250000000024
  endloop
endfacet
facet normal -0.9914448613738112 0.13052619222004572 0.0
  outer loop
    vertex 233.6251536869643 -168.15578162784476 10.318750000000023
    vertex 233.1856500869897 -171.4941429049093 8.731250000000024
    vertex 233.1856500869897 -171.4941429049093 10.318750000000023
  endloop
endfacet
facet normal -0.9914448613738112 0.13052619222004572 0.0
  outer loop
    vertex 233.1856500869897 -171.4941429049093 8.731250000000024
    vertex 233.6251536869643 -168.15578162784476 10.318750000000023
    vertex 233.6251536869643 -168.15578162784476 8.731250000000024
  endloop
endfacet
facet normal -0.9238795325112902 -0.38268343236508195 0.0
  outer loop
    vertex 231.89709073109015 -161.70656287784476 10.318750000000023
    vertex 233.18565008698968 -164.81742035078022 8.731250000000024
    vertex 233.18565008698968 -164.81742035078022 10.318750000000023
  endloop
endfacet
facet normal -0.9238795325112902 -0.38268343236508195 0.0
  outer loop
    vertex 233.18565008698968 -164.81742035078022 8.731250000000024
    vertex 231.89709073109015 -161.70656287784476 10.318750000000023
    vertex 231.89709073109015 -161.70656287784476 8.731250000000024
  endloop
endfacet
facet normal -0.6087614290087195 -0.793353340291236 0.0
  outer loop
    vertex 229.84728880992515 -159.0352090048839 10.318750000000023
    vertex 227.1759349369643 -156.9854070837189 8.731250000000024
    vertex 229.84728880992515 -159.0352090048839 8.731250000000024
  endloop
endfacet
facet normal -0.6087614290087195 -0.793353340291236 0.0
  outer loop
    vertex 227.1759349369643 -156.9854070837189 8.731250000000024
    vertex 229.84728880992515 -159.0352090048839 10.318750000000023
    vertex 227.1759349369643 -156.9854070837189 10.318750000000023
  endloop
endfacet
facet normal -0.13052619222005146 -0.9914448613738105 0.0
  outer loop
    vertex 224.06507746402886 -155.69684772781937 10.318750000000023
    vertex 220.7267161869643 -155.25734412784476 8.731250000000024
    vertex 224.06507746402886 -155.69684772781937 8.731250000000024
  endloop
endfacet
facet normal -0.13052619222005146 -0.9914448613738105 0.0
  outer loop
    vertex 220.7267161869643 -155.25734412784476 8.731250000000024
    vertex 224.06507746402886 -155.69684772781937 10.318750000000023
    vertex 220.7267161869643 -155.25734412784476 10.318750000000023
  endloop
endfacet
facet normal 0.0 0.0 1.0
  outer loop
    vertex 208.2677822869389 -171.49414290490932 8.731250000000024
    vertex 208.26778228693888 -164.81742035078022 8.731250000000024
    vertex 207.8282786869643 -168.15578162784476 8.731250000000024
  endloop
endfacet
facet normal 0.0 0.0 1.0
  outer loop
    vertex 208.26778228693888 -164.81742035078022 8.731250000000024
    vertex 208.2677822869389 -171.49414290490932 8.731250000000024
    vertex 209.55634164283845 -161.70656287784476 8.731250000000024
  endloop
endfacet
facet normal 0.0 0.0 1.0
  outer loop
    vertex 209.55634164283845 -161.70656287784476 8.731250000000024
    vertex 208.2677822869389 -171.49414290490932 8.731250000000024
    vertex 209.55634164283845 -174.60500037784476 8.731250000000024
  endloop
endfacet
facet normal 0.0 0.0 1.0
  outer loop
    vertex 209.55634164283845 -161.70656287784476 8.731250000000024
    vertex 209.55634164283845 -174.60500037784476 8.731250000000024
    vertex 211.60614356400342 -177.27635425080564 8.731250000000024
  endloop
endfacet
facet normal 0.0 0.0 1.0
  outer loop
    vertex 209.55634164283845 -161.70656287784476 8.731250000000024
    vertex 211.60614356400342 -177.27635425080564 8.731250000000024
    vertex 211.2017161869643 -168.15578162784476 8.731250000000024
  endloop
endfacet
facet normal 0.0 0.0 1.0
  outer loop
    vertex 211.2017161869643 -168.15578162784476 8.731250000000024
    vertex 211.60614356400342 -177.27635425080564 8.731250000000024
    vertex 211.52627269156093 -170.6210330324463 8.731250000000024
  endloop
endfacet
facet normal 0.0 0.0 1.0
  outer loop
    vertex 211.52627269156093 -170.6210330324463 8.731250000000024
    vertex 211.60614356400342 -177.27635425080564 8.731250000000024
    vertex 212.4778242159175 -172.91828162784478 8.731250000000024
  endloop
endfacet
facet normal 0.0 0.0 1.0
  outer loop
    vertex 212.4778242159175 -172.91828162784478 8.731250000000024
    vertex 211.60614356400342 -177.27635425080564 8.731250000000024
    vertex 214.2774974369643 -179.3261561719706 8.731250000000024
  endloop
endfacet
facet normal 0.0 0.0 1.0
  outer loop
    vertex 212.4778242159175 -172.91828162784478 8.731250000000024
    vertex 214.2774974369643 -179.3261561719706 8.731250000000024
    vertex 213.9915240961624 -174.89097371864665 8.731250000000024
  endloop
endfacet
facet normal 0.0 0.0 1.0
  outer loop
    vertex 213.9915240961624 -174.89097371864665 8.731250000000024
    vertex 214.2774974369643 -179.3261561719706 8.731250000000024
    vertex 215.9642161869643 -176.40467359889155 8.731250000000024
  endloop
endfacet
facet normal 0.0 0.0 1.0
  outer loop
    vertex 215.9642161869643 -176.40467359889155 8.731250000000024
    vertex 214.2774974369643 -179.3261561719706 8.731250000000024
    vertex 217.38835490989973 -180.61471552787017 8.731250000000024
  endloop
endfacet
facet normal 0.0 0.0 1.0
  outer loop
    vertex 215.9642161869643 -176.40467359889155 8.731250000000024
    vertex 217.38835490989973 -180.61471552787017 8.731250000000024
    vertex 218.26146478236276 -177.35622512324815 8.731250000000024
  endloop
endfacet
facet normal 0.0 0.0 1.0
  outer loop
    vertex 218.26146478236276 -177.35622512324815 8.731250000000024
    vertex 217.38835490989973 -180.61471552787017 8.731250000000024
    vertex 220.7267161869643 -181.05421912784476 8.731250000000024
  endloop
endfacet
facet normal 0.0 0.0 1.0
  outer loop
    vertex 218.26146478236276 -177.35622512324815 8.731250000000024
    vertex 220.7267161869643 -181.05421912784476 8.731250000000024
    vertex 220.7267161869643 -177.68078162784477 8.731250000000024
  endloop
endfacet
facet normal 0.0 0.0 1.0
  outer loop
    vertex 220.7267161869643 -177.68078162784477 8.731250000000024
    vertex 220.7267161869643 -181.05421912784476 8.731250000000024
    vertex 224.06507746402886 -180.61471552787017 8.731250000000024
  endloop
endfacet
facet normal 0.0 0.0 1.0
  outer loop
    vertex 220.7267161869643 -177.68078162784477 8.731250000000024
    vertex 224.06507746402886 -180.61471552787017 8.731250000000024
    vertex 223.19196759156583 -177.35622512324815 8.731250000000024
  endloop
endfacet
facet normal 0.0 0.0 1.0
  outer loop
    vertex 223.19196759156583 -177.35622512324815 8.731250000000024
    vertex 224.06507746402886 -180.61471552787017 8.731250000000024
    vertex 225.48921618696428 -176.40467359889155 8.731250000000024
  endloop
endfacet
facet normal 0.0 0.0 1.0
  outer loop
    vertex 225.48921618696428 -176.40467359889155 8.731250000000024
    vertex 224.06507746402886 -180.61471552787017 8.731250000000024
    vertex 227.1759349369643 -179.3261561719706 8.731250000000024
  endloop
endfacet
facet normal 0.0 0.0 1.0
  outer loop
    vertex 225.48921618696428 -176.40467359889155 8.731250000000024
    vertex 227.1759349369643 -179.3261561719706 8.731250000000024
    vertex 227.46190827776616 -174.89097371864665 8.731250000000024
  endloop
endfacet
facet normal 0.0 0.0 1.0
  outer loop
    vertex 227.46190827776616 -174.89097371864665 8.731250000000024
    vertex 227.1759349369643 -179.3261561719706 8.731250000000024
    vertex 229.84728880992515 -177.27635425080564 8.731250000000024
  endloop
endfacet
facet normal 0.0 0.0 1.0
  outer loop
    vertex 227.46190827776616 -174.89097371864665 8.731250000000024
    vertex 229.84728880992515 -177.27635425080564 8.731250000000024
    vertex 228.97560815801108 -172.91828162784478 8.731250000000024
  endloop
endfacet
facet normal 0.0 0.0 1.0
  outer loop
    vertex 228.97560815801108 -172.91828162784478 8.731250000000024
    vertex 229.84728880992515 -177.27635425080564 8.731250000000024
    vertex 229.92715968236766 -170.62103303244626 8.731250000000024
  endloop
endfacet
facet normal 0.0 0.0 1.0
  outer loop
    vertex 229.92715968236766 -170.62103303244626 8.731250000000024
    vertex 229.84728880992515 -177.27635425080564 8.731250000000024
    vertex 231.89709073109015 -174.60500037784476 8.731250000000024
  endloop
endfacet
facet normal 0.0 0.0 1.0
  outer loop
    vertex 229.92715968236766 -170.62103303244626 8.731250000000024
    vertex 231.89709073109015 -174.60500037784476 8.731250000000024
    vertex 230.2517161869643 -168.15578162784476 8.731250000000024
  endloop
endfacet
facet normal 0.0 0.0 1.0
  outer loop
    vertex 211.2017161869643 -168.15578162784476 8.731250000000024
    vertex 211.60614356400342 -159.0352090048839 8.731250000000024
    vertex 209.55634164283845 -161.70656287784476 8.731250000000024
  endloop
endfacet
facet normal 0.0 0.0 1.0
  outer loop
    vertex 211.60614356400342 -159.0352090048839 8.731250000000024
    vertex 211.2017161869643 -168.15578162784476 8.731250000000024
    vertex 211.52627269156093 -165.69053022324326 8.731250000000024
  endloop
endfacet
facet normal 0.0 0.0 1.0
  outer loop
    vertex 211.60614356400342 -159.0352090048839 8.731250000000024
    vertex 211.52627269156093 -165.69053022324326 8.731250000000024
    vertex 212.4778242159175 -163.39328162784477 8.731250000000024
  endloop
endfacet
facet normal 0.0 0.0 1.0
  outer loop
    vertex 211.60614356400342 -159.0352090048839 8.731250000000024
    vertex 212.4778242159175 -163.39328162784477 8.731250000000024
    vertex 214.2774974369643 -156.9854070837189 8.731250000000024
  endloop
endfacet
facet normal 0.0 0.0 1.0
  outer loop
    vertex 214.2774974369643 -156.9854070837189 8.731250000000024
    vertex 212.4778242159175 -163.39328162784477 8.731250000000024
    vertex 213.9915240961624 -161.4205895370429 8.731250000000024
  endloop
endfacet
facet normal 0.0 0.0 1.0
  outer loop
    vertex 214.2774974369643 -156.9854070837189 8.731250000000024
    vertex 213.9915240961624 -161.4205895370429 8.731250000000024
    vertex 215.9642161869643 -159.90688965679797 8.731250000000024
  endloop
endfacet
facet normal 0.0 0.0 1.0
  outer loop
    vertex 214.2774974369643 -156.9854070837189 8.731250000000024
    vertex 215.9642161869643 -159.90688965679797 8.731250000000024
    vertex 217.38835490989973 -155.69684772781937 8.731250000000024
  endloop
endfacet
facet normal 0.0 0.0 1.0
  outer loop
    vertex 217.38835490989973 -155.69684772781937 8.731250000000024
    vertex 215.9642161869643 -159.90688965679797 8.731250000000024
    vertex 218.26146478236276 -158.9553381324414 8.731250000000024
  endloop
endfacet
facet normal 0.0 0.0 1.0
  outer loop
    vertex 217.38835490989973 -155.69684772781937 8.731250000000024
    vertex 218.26146478236276 -158.9553381324414 8.731250000000024
    vertex 220.7267161869643 -155.25734412784476 8.731250000000024
  endloop
endfacet
facet normal 0.0 0.0 1.0
  outer loop
    vertex 220.7267161869643 -155.25734412784476 8.731250000000024
    vertex 218.26146478236276 -158.9553381324414 8.731250000000024
    vertex 220.7267161869643 -158.63078162784475 8.731250000000024
  endloop
endfacet
facet normal 0.0 0.0 1.0
  outer loop
    vertex 220.7267161869643 -155.25734412784476 8.731250000000024
    vertex 220.7267161869643 -158.63078162784475 8.731250000000024
    vertex 223.19196759156583 -158.9553381324414 8.731250000000024
  endloop
endfacet
facet normal 0.0 0.0 1.0
  outer loop
    vertex 220.7267161869643 -155.25734412784476 8.731250000000024
    vertex 223.19196759156583 -158.9553381324414 8.731250000000024
    vertex 224.06507746402886 -155.69684772781937 8.731250000000024
  endloop
endfacet
facet normal 0.0 0.0 1.0
  outer loop
    vertex 224.06507746402886 -155.69684772781937 8.731250000000024
    vertex 223.19196759156583 -158.9553381324414 8.731250000000024
    vertex 225.48921618696428 -159.90688965679797 8.731250000000024
  endloop
endfacet
facet normal 0.0 0.0 1.0
  outer loop
    vertex 224.06507746402886 -155.69684772781937 8.731250000000024
    vertex 225.48921618696428 -159.90688965679797 8.731250000000024
    vertex 227.1759349369643 -156.9854070837189 8.731250000000024
  endloop
endfacet
facet normal 0.0 0.0 1.0
  outer loop
    vertex 227.1759349369643 -156.9854070837189 8.731250000000024
    vertex 225.48921618696428 -159.90688965679797 8.731250000000024
    vertex 227.46190827776616 -161.4205895370429 8.731250000000024
  endloop
endfacet
facet normal 0.0 0.0 1.0
  outer loop
    vertex 227.1759349369643 -156.9854070837189 8.731250000000024
    vertex 227.46190827776616 -161.4205895370429 8.731250000000024
    vertex 229.84728880992515 -159.0352090048839 8.731250000000024
  endloop
endfacet
facet normal 0.0 0.0 1.0
  outer loop
    vertex 229.84728880992515 -159.0352090048839 8.731250000000024
    vertex 227.46190827776616 -161.4205895370429 8.731250000000024
    vertex 228.97560815801108 -163.39328162784477 8.731250000000024
  endloop
endfacet
facet normal 0.0 0.0 1.0
  outer loop
    vertex 229.84728880992515 -159.0352090048839 8.731250000000024
    vertex 228.97560815801108 -163.39328162784477 8.731250000000024
    vertex 229.92715968236766 -165.69053022324326 8.731250000000024
  endloop
endfacet
facet normal 0.0 0.0 1.0
  outer loop
    vertex 229.84728880992515 -159.0352090048839 8.731250000000024
    vertex 229.92715968236766 -165.69053022324326 8.731250000000024
    vertex 231.89709073109015 -161.70656287784476 8.731250000000024
  endloop
endfacet
facet normal 0.0 0.0 1.0
  outer loop
    vertex 231.89709073109015 -161.70656287784476 8.731250000000024
    vertex 229.92715968236766 -165.69053022324326 8.731250000000024
    vertex 230.2517161869643 -168.15578162784476 8.731250000000024
  endloop
endfacet
facet normal 0.0 0.0 1.0
  outer loop
    vertex 231.89709073109015 -161.70656287784476 8.731250000000024
    vertex 230.2517161869643 -168.15578162784476 8.731250000000024
    vertex 231.89709073109015 -174.60500037784476 8.731250000000024
  endloop
endfacet
facet normal 0.0 0.0 1.0
  outer loop
    vertex 231.89709073109015 -161.70656287784476 8.731250000000024
    vertex 231.89709073109015 -174.60500037784476 8.731250000000024
    vertex 233.1856500869897 -171.4941429049093 8.731250000000024
  endloop
endfacet
facet normal 0.0 0.0 1.0
  outer loop
    vertex 231.89709073109015 -161.70656287784476 8.731250000000024
    vertex 233.1856500869897 -171.4941429049093 8.731250000000024
    vertex 233.18565008698968 -164.81742035078022 8.731250000000024
  endloop
endfacet
facet normal 0.0 0.0 1.0
  outer loop
    vertex 233.18565008698968 -164.81742035078022 8.731250000000024
    vertex 233.1856500869897 -171.4941429049093 8.731250000000024
    vertex 233.6251536869643 -168.15578162784476 8.731250000000024
  endloop
endfacet
endsolid scissor
