solid housing-top
facet normal 0.0 0.0 -1.0
  outer loop
    vertex -1.3748153285077958 -0.79375 -60.324999999999996
    vertex -5.388153672641492 -5.388153672641491 -60.324999999999996
    vertex -6.599113576837423 -3.8099999999999987 -60.324999999999996
  endloop
endfacet
facet normal 0.0 0.0 -1.0
  outer loop
    vertex -5.388153672641492 -5.388153672641491 -60.324999999999996
    vertex -1.3748153285077958 -0.79375 -60.324999999999996
    vertex -1.1225320151336446 -1.1225320151336446 -60.324999999999996
  endloop
endfacet
facet normal 0.9238795325112867 -0.38268343236509017 0.0
  outer loop
    vertex 7.360354796322698 -1.9722011236812107 -60.324999999999996
    vertex 6.59911357683742 -3.8100000000000023 -57.15
    vertex 6.59911357683742 -3.8100000000000023 -60.324999999999996
  endloop
endfacet
facet normal 0.9238795325112867 -0.38268343236509017 0.0
  outer loop
    vertex 6.59911357683742 -3.8100000000000023 -57.15
    vertex 7.360354796322698 -1.9722011236812107 -60.324999999999996
    vertex 7.360354796322698 -1.9722011236812107 -57.15
  endloop
endfacet
facet normal 0.6087614290087205 -0.7933533402912352 0.0
  outer loop
    vertex 5.38815367264149 -5.388153672641492 -57.15
    vertex 3.8099999999999974 -6.599113576837423 -60.324999999999996
    vertex 5.38815367264149 -5.388153672641492 -60.324999999999996
  endloop
endfacet
facet normal 0.6087614290087205 -0.7933533402912352 0.0
  outer loop
    vertex 3.8099999999999974 -6.599113576837423 -60.324999999999996
    vertex 5.38815367264149 -5.388153672641492 -57.15
    vertex 3.8099999999999974 -6.599113576837423 -57.15
  endloop
endfacet
facet normal 0.13052619222005127 -0.9914448613738105 0.0
  outer loop
    vertex 1.9722011236812065 -7.3603547963227 -57.15
    vertex 0.0 -7.619999999999999 -60.324999999999996
    vertex 1.9722011236812065 -7.3603547963227 -60.324999999999996
  endloop
endfacet
facet normal 0.13052619222005127 -0.9914448613738105 0.0
  outer loop
    vertex 0.0 -7.619999999999999 -60.324999999999996
    vertex 1.9722011236812065 -7.3603547963227 -57.15
    vertex 0.0 -7.619999999999999 -57.15
  endloop
endfacet
facet normal -0.38268343236508984 -0.9238795325112867 0.0
  outer loop
    vertex -1.9722011236812094 -7.360354796322699 -57.15
    vertex -3.8100000000000005 -6.599113576837421 -60.324999999999996
    vertex -1.9722011236812094 -7.360354796322699 -60.324999999999996
  endloop
endfacet
facet normal -0.38268343236508984 -0.9238795325112867 0.0
  outer loop
    vertex -3.8100000000000005 -6.599113576837421 -60.324999999999996
    vertex -1.9722011236812094 -7.360354796322699 -57.15
    vertex -3.8100000000000005 -6.599113576837421 -57.15
  endloop
endfacet
facet normal -0.7933533402912349 -0.6087614290087209 0.0
  outer loop
    vertex -6.599113576837423 -3.8099999999999987 -57.15
    vertex -5.388153672641492 -5.388153672641491 -60.324999999999996
    vertex -5.388153672641492 -5.388153672641491 -57.15
  endloop
endfacet
facet normal -0.7933533402912349 -0.6087614290087209 0.0
  outer loop
    vertex -5.388153672641492 -5.388153672641491 -60.324999999999996
    vertex -6.599113576837423 -3.8099999999999987 -57.15
    vertex -6.599113576837423 -3.8099999999999987 -60.324999999999996
  endloop
endfacet
facet normal -0.9914448613738105 -0.13052619222005124 0.0
  outer loop
    vertex -7.619999999999999 0.0 -57.15
    vertex -7.3603547963227 -1.972201123681208 -60.324999999999996
    vertex -7.3603547963227 -1.972201123681208 -57.15
  endloop
endfacet
facet normal -0.9914448613738105 -0.13052619222005124 0.0
  outer loop
    vertex -7.3603547963227 -1.972201123681208 -60.324999999999996
    vertex -7.619999999999999 0.0 -57.15
    vertex -7.619999999999999 0.0 -60.324999999999996
  endloop
endfacet
facet normal 0.0 0.0 -1.0
  outer loop
    vertex 5.388153672641495 5.38815367264149 -60.324999999999996
    vertex 1.3748153285077973 0.7937499999999985 -60.324999999999996
    vertex 1.1225320151336446 1.1225320151336433 -60.324999999999996
  endloop
endfacet
facet normal 0.0 0.0 -1.0
  outer loop
    vertex 1.3748153285077973 0.7937499999999985 -60.324999999999996
    vertex 5.388153672641495 5.38815367264149 -60.324999999999996
    vertex 6.599113576837423 3.8099999999999974 -60.324999999999996
  endloop
endfacet
facet normal 0.9659258262890682 -0.2588190451025211 -1.6440076849336655e-19
  outer loop
    vertex -0.4108752341002517 -1.5334072492338964 -60.324999999999996
    vertex -1.9722011236812094 -7.360354796322699 -57.15
    vertex -1.9722011236812094 -7.360354796322699 -60.324999999999996
  endloop
endfacet
facet normal 0.9659258262890682 -0.2588190451025211 -1.6440076849336655e-19
  outer loop
    vertex -1.9722011236812094 -7.360354796322699 -57.15
    vertex -0.4108752341002517 -1.5334072492338964 -60.324999999999996
    vertex -1.9722011236812094 -7.360354796322699 0.0
  endloop
endfacet
facet normal 0.9659258262890682 -0.2588190451025211 -1.6440076849336655e-19
  outer loop
    vertex -1.9722011236812094 -7.360354796322699 0.0
    vertex -0.4108752341002517 -1.5334072492338964 -60.324999999999996
    vertex -1.9722011236812094 -7.360354796322699 3.175
  endloop
endfacet
facet normal 0.9659258262890682 -0.2588190451025211 -1.6440076849336655e-19
  outer loop
    vertex -1.9722011236812094 -7.360354796322699 3.175
    vertex -0.4108752341002517 -1.5334072492338964 -60.324999999999996
    vertex -0.4108752341002517 -1.5334072492338964 3.1749999999999887
  endloop
endfacet
facet normal -1.0 4.5118566284376167e-17 7.691244680480865e-35
  outer loop
    vertex 0.0 -1.5875 3.1749999999999887
    vertex 0.0 -7.619999999999999 0.0
    vertex 0.0 -7.619999999999999 3.175
  endloop
endfacet
facet normal -1.0 4.5118566284376167e-17 7.691244680480865e-35
  outer loop
    vertex 0.0 -7.619999999999999 0.0
    vertex 0.0 -1.5875 3.1749999999999887
    vertex 0.0 -7.619999999999999 -57.15
  endloop
endfacet
facet normal -1.0 4.5118566284376167e-17 7.691244680480865e-35
  outer loop
    vertex 0.0 -7.619999999999999 -57.15
    vertex 0.0 -1.5875 3.1749999999999887
    vertex 0.0 -7.619999999999999 -60.324999999999996
  endloop
endfacet
facet normal -1.0 4.5118566284376167e-17 7.691244680480865e-35
  outer loop
    vertex 0.0 -7.619999999999999 -60.324999999999996
    vertex 0.0 -1.5875 3.1749999999999887
    vertex 0.0 -1.5875 -60.324999999999996
  endloop
endfacet
facet normal -1.742422164593261e-15 7.217348919540173e-16 1.0
  outer loop
    vertex 6.59911357683742 -3.8100000000000023 3.175
    vertex 1.533407249233895 -0.41087523410025306 3.1749999999999887
    vertex 1.3748153285077958 -0.7937500000000014 3.1749999999999887
  endloop
endfacet
facet normal -1.742422164593261e-15 7.217348919540173e-16 1.0
  outer loop
    vertex 1.533407249233895 -0.41087523410025306 3.1749999999999887
    vertex 6.59911357683742 -3.8100000000000023 3.175
    vertex 7.360354796322698 -1.9722011236812107 3.175
  endloop
endfacet
facet normal 1.1481144126778296e-15 -1.496251833526423e-15 1.0
  outer loop
    vertex -1.1225320151336446 1.1225320151336433 3.1749999999999887
    vertex -3.8099999999999947 6.599113576837423 3.175
    vertex -5.388153672641491 5.388153672641493 3.175
  endloop
endfacet
facet normal 1.1481144126778296e-15 -1.496251833526423e-15 1.0
  outer loop
    vertex -3.8099999999999947 6.599113576837423 3.175
    vertex -1.1225320151336446 1.1225320151336433 3.1749999999999887
    vertex -0.7937499999999985 1.3748153285077958 3.1749999999999887
  endloop
endfacet
facet normal -0.9238795325112868 -0.38268343236508934 1.858005646155874e-19
  outer loop
    vertex 6.599113576837423 3.8099999999999974 0.0
    vertex 7.3603547963227 1.9722011236812051 -57.15
    vertex 7.3603547963227 1.9722011236812051 0.0
  endloop
endfacet
facet normal -0.9238795325112868 -0.38268343236508934 1.858005646155874e-19
  outer loop
    vertex 7.3603547963227 1.9722011236812051 -57.15
    vertex 6.599113576837423 3.8099999999999974 0.0
    vertex 6.599113576837423 3.8099999999999974 -57.15
  endloop
endfacet
facet normal 0.38268343236508945 -0.9238795325112868 -7.968066082347146e-34
  outer loop
    vertex -1.9722011236812051 7.3603547963227 0.0
    vertex -3.8099999999999947 6.599113576837423 -57.15
    vertex -1.9722011236812051 7.3603547963227 -57.15
  endloop
endfacet
facet normal 0.38268343236508945 -0.9238795325112868 -7.968066082347146e-34
  outer loop
    vertex -3.8099999999999947 6.599113576837423 -57.15
    vertex -1.9722011236812051 7.3603547963227 0.0
    vertex -3.8099999999999947 6.599113576837423 0.0
  endloop
endfacet
facet normal 2.4617033106683715e-16 -1.8698493046318425e-15 1.0
  outer loop
    vertex -0.41087523410025023 1.533407249233895 3.1749999999999887
    vertex 1.4099832412739487e-15 7.619999999999997 3.175
    vertex -1.9722011236812051 7.3603547963227 3.175
  endloop
endfacet
facet normal 2.4617033106683715e-16 -1.8698493046318425e-15 1.0
  outer loop
    vertex 1.4099832412739487e-15 7.619999999999997 3.175
    vertex -0.41087523410025023 1.533407249233895 3.1749999999999887
    vertex 0.0 1.5875 3.1749999999999887
  endloop
endfacet
facet normal -7.2173489195401655e-16 -1.742422164593261e-15 1.0
  outer loop
    vertex 0.79375 1.3748153285077958 3.1749999999999887
    vertex 1.9722011236812136 7.360354796322698 3.175
    vertex 0.41087523410025306 1.533407249233895 3.1749999999999887
  endloop
endfacet
facet normal -7.2173489195401655e-16 -1.742422164593261e-15 1.0
  outer loop
    vertex 1.9722011236812136 7.360354796322698 3.175
    vertex 0.79375 1.3748153285077958 3.1749999999999887
    vertex 3.810000000000003 6.59911357683742 3.175
  endloop
endfacet
facet normal -0.9914448613738105 0.13052619222005182 3.202290011550847e-21
  outer loop
    vertex 7.619999999999997 -1.4099832412739487e-15 0.0
    vertex 7.360354796322698 -1.9722011236812107 -57.15
    vertex 7.360354796322698 -1.9722011236812107 0.0
  endloop
endfacet
facet normal -0.9914448613738105 0.13052619222005182 3.202290011550847e-21
  outer loop
    vertex 7.360354796322698 -1.9722011236812107 -57.15
    vertex 7.619999999999997 -1.4099832412739487e-15 0.0
    vertex 7.619999999999997 -1.4099832412739487e-15 -57.15
  endloop
endfacet
facet normal -1.869849304631842e-15 -2.461703310668377e-16 1.0
  outer loop
    vertex 1.5875 -1.4099832412739487e-15 3.1749999999999887
    vertex 7.3603547963227 1.9722011236812051 3.175
    vertex 1.5334072492338964 0.41087523410025023 3.1749999999999887
  endloop
endfacet
facet normal -1.869849304631842e-15 -2.461703310668377e-16 1.0
  outer loop
    vertex 7.3603547963227 1.9722011236812051 3.175
    vertex 1.5875 -1.4099832412739487e-15 3.1749999999999887
    vertex 7.619999999999997 -1.4099832412739487e-15 3.175
  endloop
endfacet
facet normal 0.866025403784439 0.49999999999999933 9.451928545552134e-19
  outer loop
    vertex -3.8099999999999947 6.599113576837423 -60.324999999999996
    vertex -0.7937499999999985 1.3748153285077958 3.1749999999999887
    vertex -0.7937499999999985 1.3748153285077958 -60.324999999999996
  endloop
endfacet
facet normal 0.866025403784439 0.49999999999999933 9.451928545552134e-19
  outer loop
    vertex -0.7937499999999985 1.3748153285077958 3.1749999999999887
    vertex -3.8099999999999947 6.599113576837423 -60.324999999999996
    vertex -3.8099999999999947 6.599113576837423 3.175
  endloop
endfacet
facet normal 0.866025403784439 0.49999999999999933 9.451928545552134e-19
  outer loop
    vertex -3.8099999999999947 6.599113576837423 3.175
    vertex -3.8099999999999947 6.599113576837423 -60.324999999999996
    vertex -3.8099999999999947 6.599113576837423 -57.15
  endloop
endfacet
facet normal 0.866025403784439 0.49999999999999933 9.451928545552134e-19
  outer loop
    vertex -3.8099999999999947 6.599113576837423 3.175
    vertex -3.8099999999999947 6.599113576837423 -57.15
    vertex -3.8099999999999947 6.599113576837423 0.0
  endloop
endfacet
facet normal 0.2588190451025207 -0.9659258262890684 -6.536685926007743e-19
  outer loop
    vertex -1.5334072492338964 -0.4108752341002517 3.1749999999999887
    vertex -7.3603547963227 -1.972201123681208 -60.324999999999996
    vertex -1.5334072492338964 -0.4108752341002517 -60.324999999999996
  endloop
endfacet
facet normal 0.2588190451025207 -0.9659258262890684 -6.536685926007743e-19
  outer loop
    vertex -7.3603547963227 -1.972201123681208 -60.324999999999996
    vertex -1.5334072492338964 -0.4108752341002517 3.1749999999999887
    vertex -7.3603547963227 -1.972201123681208 -57.15
  endloop
endfacet
facet normal 0.2588190451025207 -0.9659258262890684 -6.536685926007743e-19
  outer loop
    vertex -7.3603547963227 -1.972201123681208 -57.15
    vertex -1.5334072492338964 -0.4108752341002517 3.1749999999999887
    vertex -7.3603547963227 -1.972201123681208 0.0
  endloop
endfacet
facet normal 0.2588190451025207 -0.9659258262890684 -6.536685926007743e-19
  outer loop
    vertex -7.3603547963227 -1.972201123681208 0.0
    vertex -1.5334072492338964 -0.4108752341002517 3.1749999999999887
    vertex -7.3603547963227 -1.972201123681208 3.175
  endloop
endfacet
facet normal -0.49999999999999983 0.8660254037844387 -4.234638617320259e-19
  outer loop
    vertex -6.599113576837423 -3.8099999999999987 -57.15
    vertex -1.3748153285077958 -0.79375 -60.324999999999996
    vertex -6.599113576837423 -3.8099999999999987 -60.324999999999996
  endloop
endfacet
facet normal -0.49999999999999983 0.8660254037844387 -4.234638617320259e-19
  outer loop
    vertex -1.3748153285077958 -0.79375 -60.324999999999996
    vertex -6.599113576837423 -3.8099999999999987 -57.15
    vertex -1.3748153285077958 -0.79375 3.1749999999999887
  endloop
endfacet
facet normal -0.49999999999999983 0.8660254037844387 -4.234638617320259e-19
  outer loop
    vertex -1.3748153285077958 -0.79375 3.1749999999999887
    vertex -6.599113576837423 -3.8099999999999987 -57.15
    vertex -6.599113576837423 -3.8099999999999987 0.0
  endloop
endfacet
facet normal -0.49999999999999983 0.8660254037844387 -4.234638617320259e-19
  outer loop
    vertex -1.3748153285077958 -0.79375 3.1749999999999887
    vertex -6.599113576837423 -3.8099999999999987 0.0
    vertex -6.599113576837423 -3.8099999999999987 3.175
  endloop
endfacet
facet normal 0.9238795325112867 0.3826834323650897 1.858005646155875e-19
  outer loop
    vertex -7.3603547963227 -1.972201123681208 -57.15
    vertex -6.599113576837423 -3.8099999999999987 0.0
    vertex -6.599113576837423 -3.8099999999999987 -57.15
  endloop
endfacet
facet normal 0.9238795325112867 0.3826834323650897 1.858005646155875e-19
  outer loop
    vertex -6.599113576837423 -3.8099999999999987 0.0
    vertex -7.3603547963227 -1.972201123681208 -57.15
    vertex -7.3603547963227 -1.972201123681208 0.0
  endloop
endfacet
facet normal 0.9914448613738103 -0.13052619222005224 -1.7731017745731664e-19
  outer loop
    vertex -7.360354796322698 1.9722011236812136 -57.15
    vertex -7.619999999999999 0.0 0.0
    vertex -7.619999999999999 0.0 -57.15
  endloop
endfacet
facet normal 0.9914448613738103 -0.13052619222005224 -1.7731017745731664e-19
  outer loop
    vertex -7.619999999999999 0.0 0.0
    vertex -7.360354796322698 1.9722011236812136 -57.15
    vertex -7.360354796322698 1.9722011236812136 0.0
  endloop
endfacet
facet normal 1.7424221645932604e-15 -7.217348919540171e-16 1.0
  outer loop
    vertex -1.533407249233895 0.41087523410025306 3.1749999999999887
    vertex -6.59911357683742 3.810000000000003 3.175
    vertex -7.360354796322698 1.9722011236812136 3.175
  endloop
endfacet
facet normal 1.7424221645932604e-15 -7.217348919540171e-16 1.0
  outer loop
    vertex -6.59911357683742 3.810000000000003 3.175
    vertex -1.533407249233895 0.41087523410025306 3.1749999999999887
    vertex -1.3748153285077958 0.79375 3.1749999999999887
  endloop
endfacet
facet normal -0.13052619222005238 -0.9914448613738103 -1.7731017745731657e-19
  outer loop
    vertex 1.9722011236812136 7.360354796322698 0.0
    vertex 1.4099832412739487e-15 7.619999999999997 -57.15
    vertex 1.9722011236812136 7.360354796322698 -57.15
  endloop
endfacet
facet normal -0.13052619222005238 -0.9914448613738103 -1.7731017745731657e-19
  outer loop
    vertex 1.4099832412739487e-15 7.619999999999997 -57.15
    vertex 1.9722011236812136 7.360354796322698 0.0
    vertex 1.4099832412739487e-15 7.619999999999997 0.0
  endloop
endfacet
facet normal -0.8660254037844387 0.5000000000000001 -9.451928545552061e-19
  outer loop
    vertex -0.79375 -1.3748153285077973 3.1749999999999887
    vertex -3.8100000000000005 -6.599113576837421 0.0
    vertex -3.8100000000000005 -6.599113576837421 3.175
  endloop
endfacet
facet normal -0.8660254037844387 0.5000000000000001 -9.451928545552061e-19
  outer loop
    vertex -3.8100000000000005 -6.599113576837421 0.0
    vertex -0.79375 -1.3748153285077973 3.1749999999999887
    vertex -3.8100000000000005 -6.599113576837421 -57.15
  endloop
endfacet
facet normal -0.8660254037844387 0.5000000000000001 -9.451928545552061e-19
  outer loop
    vertex -3.8100000000000005 -6.599113576837421 -57.15
    vertex -0.79375 -1.3748153285077973 3.1749999999999887
    vertex -3.8100000000000005 -6.599113576837421 -60.324999999999996
  endloop
endfacet
facet normal -0.8660254037844387 0.5000000000000001 -9.451928545552061e-19
  outer loop
    vertex -3.8100000000000005 -6.599113576837421 -60.324999999999996
    vertex -0.79375 -1.3748153285077973 3.1749999999999887
    vertex -0.79375 -1.3748153285077973 -60.324999999999996
  endloop
endfacet
facet normal 1.4962518335264229e-15 1.148114412677828e-15 1.0
  outer loop
    vertex -5.388153672641492 -5.388153672641491 3.175
    vertex -1.3748153285077958 -0.79375 3.1749999999999887
    vertex -6.599113576837423 -3.8099999999999987 3.175
  endloop
endfacet
facet normal 1.4962518335264229e-15 1.148114412677828e-15 1.0
  outer loop
    vertex -1.3748153285077958 -0.79375 3.1749999999999887
    vertex -5.388153672641492 -5.388153672641491 3.175
    vertex -1.1225320151336446 -1.1225320151336446 3.1749999999999887
  endloop
endfacet
facet normal 0.7933533402912352 -0.6087614290087208 -5.911320306027932e-19
  outer loop
    vertex -5.388153672641491 5.388153672641493 -57.15
    vertex -6.59911357683742 3.810000000000003 0.0
    vertex -6.59911357683742 3.810000000000003 -57.15
  endloop
endfacet
facet normal 0.7933533402912352 -0.6087614290087208 -5.911320306027932e-19
  outer loop
    vertex -6.59911357683742 3.810000000000003 0.0
    vertex -5.388153672641491 5.388153672641493 -57.15
    vertex -5.388153672641491 5.388153672641493 0.0
  endloop
endfacet
facet normal 1.869849304631843e-15 2.461703310668372e-16 1.0
  outer loop
    vertex -7.3603547963227 -1.972201123681208 3.175
    vertex -1.5875 0.0 3.1749999999999887
    vertex -7.619999999999999 0.0 3.175
  endloop
endfacet
facet normal 1.869849304631843e-15 2.461703310668372e-16 1.0
  outer loop
    vertex -1.5875 0.0 3.1749999999999887
    vertex -7.3603547963227 -1.972201123681208 3.175
    vertex -1.5334072492338964 -0.4108752341002517 3.1749999999999887
  endloop
endfacet
facet normal -0.608761429008721 -0.7933533402912348 6.807551457917502e-19
  outer loop
    vertex 5.388153672641495 5.38815367264149 0.0
    vertex 3.810000000000003 6.59911357683742 -57.15
    vertex 5.388153672641495 5.38815367264149 -57.15
  endloop
endfacet
facet normal -0.608761429008721 -0.7933533402912348 6.807551457917502e-19
  outer loop
    vertex 3.810000000000003 6.59911357683742 -57.15
    vertex 5.388153672641495 5.38815367264149 0.0
    vertex 3.810000000000003 6.59911357683742 0.0
  endloop
endfacet
facet normal -1.4962518335264233e-15 -1.1481144126778288e-15 1.0
  outer loop
    vertex 1.3748153285077973 0.7937499999999985 3.1749999999999887
    vertex 5.388153672641495 5.38815367264149 3.175
    vertex 1.1225320151336446 1.1225320151336433 3.1749999999999887
  endloop
endfacet
facet normal -1.4962518335264233e-15 -1.1481144126778288e-15 1.0
  outer loop
    vertex 5.388153672641495 5.38815367264149 3.175
    vertex 1.3748153285077973 0.7937499999999985 3.1749999999999887
    vertex 6.599113576837423 3.8099999999999974 3.175
  endloop
endfacet
facet normal -0.7933533402912352 0.6087614290087209 -2.955660153013959e-19
  outer loop
    vertex 6.59911357683742 -3.8100000000000023 0.0
    vertex 5.38815367264149 -5.388153672641492 -57.15
    vertex 5.38815367264149 -5.388153672641492 0.0
  endloop
endfacet
facet normal -0.7933533402912352 0.6087614290087209 -2.955660153013959e-19
  outer loop
    vertex 5.38815367264149 -5.388153672641492 -57.15
    vertex 6.59911357683742 -3.8100000000000023 0.0
    vertex 6.59911357683742 -3.8100000000000023 -57.15
  endloop
endfacet
facet normal 0.0 0.0 -1.0
  outer loop
    vertex -1.5875 0.0 -60.324999999999996
    vertex -7.3603547963227 -1.972201123681208 -60.324999999999996
    vertex -7.619999999999999 0.0 -60.324999999999996
  endloop
endfacet
facet normal 0.0 0.0 -1.0
  outer loop
    vertex -7.3603547963227 -1.972201123681208 -60.324999999999996
    vertex -1.5875 0.0 -60.324999999999996
    vertex -1.5334072492338964 -0.4108752341002517 -60.324999999999996
  endloop
endfacet
facet normal 0.0 0.0 -1.0
  outer loop
    vertex 1.4099832412739487e-15 7.619999999999997 -60.324999999999996
    vertex -0.41087523410025023 1.533407249233895 -60.324999999999996
    vertex -1.9722011236812051 7.3603547963227 -60.324999999999996
  endloop
endfacet
facet normal 0.0 0.0 -1.0
  outer loop
    vertex -0.41087523410025023 1.533407249233895 -60.324999999999996
    vertex 1.4099832412739487e-15 7.619999999999997 -60.324999999999996
    vertex 0.0 1.5875 -60.324999999999996
  endloop
endfacet
facet normal 0.0 0.0 -1.0
  outer loop
    vertex 1.9722011236812136 7.360354796322698 -60.324999999999996
    vertex 0.79375 1.3748153285077958 -60.324999999999996
    vertex 0.41087523410025306 1.533407249233895 -60.324999999999996
  endloop
endfacet
facet normal 0.0 0.0 -1.0
  outer loop
    vertex 0.79375 1.3748153285077958 -60.324999999999996
    vertex 1.9722011236812136 7.360354796322698 -60.324999999999996
    vertex 3.810000000000003 6.59911357683742 -60.324999999999996
  endloop
endfacet
facet normal 0.13052619222005182 0.9914448613738105 3.202290011550847e-21
  outer loop
    vertex -1.9722011236812094 -7.360354796322699 0.0
    vertex 0.0 -7.619999999999999 -57.15
    vertex -1.9722011236812094 -7.360354796322699 -57.15
  endloop
endfacet
facet normal 0.13052619222005182 0.9914448613738105 3.202290011550847e-21
  outer loop
    vertex 0.0 -7.619999999999999 -57.15
    vertex -1.9722011236812094 -7.360354796322699 0.0
    vertex 0.0 -7.619999999999999 0.0
  endloop
endfacet
facet normal 0.0 0.0 -1.0
  outer loop
    vertex 1.533407249233895 -0.41087523410025306 -60.324999999999996
    vertex 6.59911357683742 -3.8100000000000023 -60.324999999999996
    vertex 1.3748153285077958 -0.7937500000000014 -60.324999999999996
  endloop
endfacet
facet normal 0.0 0.0 -1.0
  outer loop
    vertex 6.59911357683742 -3.8100000000000023 -60.324999999999996
    vertex 1.533407249233895 -0.41087523410025306 -60.324999999999996
    vertex 7.360354796322698 -1.9722011236812107 -60.324999999999996
  endloop
endfacet
facet normal 0.0 0.0 -1.0
  outer loop
    vertex 0.4108752341002517 -1.5334072492338964 -60.324999999999996
    vertex 0.0 -7.619999999999999 -60.324999999999996
    vertex 0.0 -1.5875 -60.324999999999996
  endloop
endfacet
facet normal 0.0 0.0 -1.0
  outer loop
    vertex 0.0 -7.619999999999999 -60.324999999999996
    vertex 0.4108752341002517 -1.5334072492338964 -60.324999999999996
    vertex 1.9722011236812065 -7.3603547963227 -60.324999999999996
  endloop
endfacet
facet normal 7.217348919540161e-16 1.7424221645932616e-15 1.0
  outer loop
    vertex -1.9722011236812094 -7.360354796322699 3.175
    vertex -0.79375 -1.3748153285077973 3.1749999999999887
    vertex -3.8100000000000005 -6.599113576837421 3.175
  endloop
endfacet
facet normal 7.217348919540161e-16 1.7424221645932616e-15 1.0
  outer loop
    vertex -0.79375 -1.3748153285077973 3.1749999999999887
    vertex -1.9722011236812094 -7.360354796322699 3.175
    vertex -0.4108752341002517 -1.5334072492338964 3.1749999999999887
  endloop
endfacet
facet normal 0.7071067811865476 0.7071067811865476 0.0
  outer loop
    vertex 1.1225320151336446 -1.1225320151336446 -60.324999999999996
    vertex 5.38815367264149 -5.388153672641492 -57.15
    vertex 5.38815367264149 -5.388153672641492 -60.324999999999996
  endloop
endfacet
facet normal 0.7071067811865476 0.7071067811865476 0.0
  outer loop
    vertex 5.38815367264149 -5.388153672641492 -57.15
    vertex 1.1225320151336446 -1.1225320151336446 -60.324999999999996
    vertex 5.38815367264149 -5.388153672641492 0.0
  endloop
endfacet
facet normal 0.7071067811865476 0.7071067811865476 0.0
  outer loop
    vertex 5.38815367264149 -5.388153672641492 0.0
    vertex 1.1225320151336446 -1.1225320151336446 -60.324999999999996
    vertex 5.38815367264149 -5.388153672641492 3.175
  endloop
endfacet
facet normal 0.7071067811865476 0.7071067811865476 0.0
  outer loop
    vertex 5.38815367264149 -5.388153672641492 3.175
    vertex 1.1225320151336446 -1.1225320151336446 -60.324999999999996
    vertex 1.1225320151336446 -1.1225320151336446 3.1749999999999887
  endloop
endfacet
facet normal -0.5000000000000003 -0.8660254037844385 -9.451928545552034e-19
  outer loop
    vertex 6.59911357683742 -3.8100000000000023 -57.15
    vertex 1.3748153285077958 -0.7937500000000014 -60.324999999999996
    vertex 6.59911357683742 -3.8100000000000023 -60.324999999999996
  endloop
endfacet
facet normal -0.5000000000000003 -0.8660254037844385 -9.451928545552034e-19
  outer loop
    vertex 1.3748153285077958 -0.7937500000000014 -60.324999999999996
    vertex 6.59911357683742 -3.8100000000000023 -57.15
    vertex 1.3748153285077958 -0.7937500000000014 3.1749999999999887
  endloop
endfacet
facet normal -0.5000000000000003 -0.8660254037844385 -9.451928545552034e-19
  outer loop
    vertex 1.3748153285077958 -0.7937500000000014 3.1749999999999887
    vertex 6.59911357683742 -3.8100000000000023 -57.15
    vertex 6.59911357683742 -3.8100000000000023 0.0
  endloop
endfacet
facet normal -0.5000000000000003 -0.8660254037844385 -9.451928545552034e-19
  outer loop
    vertex 1.3748153285077958 -0.7937500000000014 3.1749999999999887
    vertex 6.59911357683742 -3.8100000000000023 0.0
    vertex 6.59911357683742 -3.8100000000000023 3.175
  endloop
endfacet
facet normal -0.25881904510252046 0.9659258262890684 -6.536685926007743e-19
  outer loop
    vertex 1.5334072492338964 0.41087523410025023 3.1749999999999887
    vertex 7.3603547963227 1.9722011236812051 -60.324999999999996
    vertex 1.5334072492338964 0.41087523410025023 -60.324999999999996
  endloop
endfacet
facet normal -0.25881904510252046 0.9659258262890684 -6.536685926007743e-19
  outer loop
    vertex 7.3603547963227 1.9722011236812051 -60.324999999999996
    vertex 1.5334072492338964 0.41087523410025023 3.1749999999999887
    vertex 7.3603547963227 1.9722011236812051 -57.15
  endloop
endfacet
facet normal -0.25881904510252046 0.9659258262890684 -6.536685926007743e-19
  outer loop
    vertex 7.3603547963227 1.9722011236812051 -57.15
    vertex 1.5334072492338964 0.41087523410025023 3.1749999999999887
    vertex 7.3603547963227 1.9722011236812051 0.0
  endloop
endfacet
facet normal -0.25881904510252046 0.9659258262890684 -6.536685926007743e-19
  outer loop
    vertex 7.3603547963227 1.9722011236812051 0.0
    vertex 1.5334072492338964 0.41087523410025023 3.1749999999999887
    vertex 7.3603547963227 1.9722011236812051 3.175
  endloop
endfacet
facet normal 0.4999999999999999 -0.8660254037844387 -4.234638617320259e-19
  outer loop
    vertex 6.599113576837423 3.8099999999999974 -57.15
    vertex 1.3748153285077973 0.7937499999999985 -60.324999999999996
    vertex 6.599113576837423 3.8099999999999974 -60.324999999999996
  endloop
endfacet
facet normal 0.4999999999999999 -0.8660254037844387 -4.234638617320259e-19
  outer loop
    vertex 1.3748153285077973 0.7937499999999985 -60.324999999999996
    vertex 6.599113576837423 3.8099999999999974 -57.15
    vertex 1.3748153285077973 0.7937499999999985 3.1749999999999887
  endloop
endfacet
facet normal 0.4999999999999999 -0.8660254037844387 -4.234638617320259e-19
  outer loop
    vertex 1.3748153285077973 0.7937499999999985 3.1749999999999887
    vertex 6.599113576837423 3.8099999999999974 -57.15
    vertex 6.599113576837423 3.8099999999999974 0.0
  endloop
endfacet
facet normal 0.4999999999999999 -0.8660254037844387 -4.234638617320259e-19
  outer loop
    vertex 1.3748153285077973 0.7937499999999985 3.1749999999999887
    vertex 6.599113576837423 3.8099999999999974 0.0
    vertex 6.599113576837423 3.8099999999999974 3.175
  endloop
endfacet
facet normal -0.7071067811865471 0.707106781186548 2.2350070586245865e-18
  outer loop
    vertex 1.1225320151336446 1.1225320151336433 3.1749999999999887
    vertex 5.388153672641495 5.38815367264149 -60.324999999999996
    vertex 1.1225320151336446 1.1225320151336433 -60.324999999999996
  endloop
endfacet
facet normal -0.7071067811865471 0.707106781186548 2.2350070586245865e-18
  outer loop
    vertex 5.388153672641495 5.38815367264149 -60.324999999999996
    vertex 1.1225320151336446 1.1225320151336433 3.1749999999999887
    vertex 5.388153672641495 5.38815367264149 -57.15
  endloop
endfacet
facet normal -0.7071067811865471 0.707106781186548 2.2350070586245865e-18
  outer loop
    vertex 5.388153672641495 5.38815367264149 -57.15
    vertex 1.1225320151336446 1.1225320151336433 3.1749999999999887
    vertex 5.388153672641495 5.38815367264149 0.0
  endloop
endfacet
facet normal -0.7071067811865471 0.707106781186548 2.2350070586245865e-18
  outer loop
    vertex 5.388153672641495 5.38815367264149 0.0
    vertex 1.1225320151336446 1.1225320151336433 3.1749999999999887
    vertex 5.388153672641495 5.38815367264149 3.175
  endloop
endfacet
facet normal 0.8660254037844385 -0.5000000000000003 -9.45192854555203e-19
  outer loop
    vertex 3.810000000000003 6.59911357683742 -60.324999999999996
    vertex 0.79375 1.3748153285077958 3.1749999999999887
    vertex 0.79375 1.3748153285077958 -60.324999999999996
  endloop
endfacet
facet normal 0.8660254037844385 -0.5000000000000003 -9.45192854555203e-19
  outer loop
    vertex 0.79375 1.3748153285077958 3.1749999999999887
    vertex 3.810000000000003 6.59911357683742 -60.324999999999996
    vertex 3.810000000000003 6.59911357683742 3.175
  endloop
endfacet
facet normal 0.8660254037844385 -0.5000000000000003 -9.45192854555203e-19
  outer loop
    vertex 3.810000000000003 6.59911357683742 3.175
    vertex 3.810000000000003 6.59911357683742 -60.324999999999996
    vertex 3.810000000000003 6.59911357683742 -57.15
  endloop
endfacet
facet normal 0.8660254037844385 -0.5000000000000003 -9.45192854555203e-19
  outer loop
    vertex 3.810000000000003 6.59911357683742 3.175
    vertex 3.810000000000003 6.59911357683742 -57.15
    vertex 3.810000000000003 6.59911357683742 0.0
  endloop
endfacet
facet normal 0.7071067811865474 -0.7071067811865477 -2.474482733536057e-33
  outer loop
    vertex -1.1225320151336446 -1.1225320151336446 3.1749999999999887
    vertex -5.388153672641492 -5.388153672641491 -60.324999999999996
    vertex -1.1225320151336446 -1.1225320151336446 -60.324999999999996
  endloop
endfacet
facet normal 0.7071067811865474 -0.7071067811865477 -2.474482733536057e-33
  outer loop
    vertex -5.388153672641492 -5.388153672641491 -60.324999999999996
    vertex -1.1225320151336446 -1.1225320151336446 3.1749999999999887
    vertex -5.388153672641492 -5.388153672641491 -57.15
  endloop
endfacet
facet normal 0.7071067811865474 -0.7071067811865477 -2.474482733536057e-33
  outer loop
    vertex -5.388153672641492 -5.388153672641491 -57.15
    vertex -1.1225320151336446 -1.1225320151336446 3.1749999999999887
    vertex -5.388153672641492 -5.388153672641491 0.0
  endloop
endfacet
facet normal 0.7071067811865474 -0.7071067811865477 -2.474482733536057e-33
  outer loop
    vertex -5.388153672641492 -5.388153672641491 0.0
    vertex -1.1225320151336446 -1.1225320151336446 3.1749999999999887
    vertex -5.388153672641492 -5.388153672641491 3.175
  endloop
endfacet
facet normal -0.25881904510252157 -0.9659258262890682 -1.0960051232891464e-19
  outer loop
    vertex -1.533407249233895 0.41087523410025306 3.1749999999999887
    vertex -7.360354796322698 1.9722011236812136 -60.324999999999996
    vertex -1.533407249233895 0.41087523410025306 -60.324999999999996
  endloop
endfacet
facet normal -0.25881904510252157 -0.9659258262890682 -1.0960051232891464e-19
  outer loop
    vertex -7.360354796322698 1.9722011236812136 -60.324999999999996
    vertex -1.533407249233895 0.41087523410025306 3.1749999999999887
    vertex -7.360354796322698 1.9722011236812136 -57.15
  endloop
endfacet
facet normal -0.25881904510252157 -0.9659258262890682 -1.0960051232891464e-19
  outer loop
    vertex -7.360354796322698 1.9722011236812136 -57.15
    vertex -1.533407249233895 0.41087523410025306 3.1749999999999887
    vertex -7.360354796322698 1.9722011236812136 0.0
  endloop
endfacet
facet normal -0.25881904510252157 -0.9659258262890682 -1.0960051232891464e-19
  outer loop
    vertex -7.360354796322698 1.9722011236812136 0.0
    vertex -1.533407249233895 0.41087523410025306 3.1749999999999887
    vertex -7.360354796322698 1.9722011236812136 3.175
  endloop
endfacet
facet normal 6.123233995736765e-17 1.0 5.425021026579067e-35
  outer loop
    vertex -7.619999999999999 0.0 -57.15
    vertex -1.5875 0.0 -60.324999999999996
    vertex -7.619999999999999 0.0 -60.324999999999996
  endloop
endfacet
facet normal 6.123233995736765e-17 1.0 5.425021026579067e-35
  outer loop
    vertex -1.5875 0.0 -60.324999999999996
    vertex -7.619999999999999 0.0 -57.15
    vertex -1.5875 0.0 3.1749999999999887
  endloop
endfacet
facet normal 6.123233995736765e-17 1.0 5.425021026579067e-35
  outer loop
    vertex -1.5875 0.0 3.1749999999999887
    vertex -7.619999999999999 0.0 -57.15
    vertex -7.619999999999999 0.0 0.0
  endloop
endfacet
facet normal 6.123233995736765e-17 1.0 5.425021026579067e-35
  outer loop
    vertex -1.5875 0.0 3.1749999999999887
    vertex -7.619999999999999 0.0 0.0
    vertex -7.619999999999999 0.0 3.175
  endloop
endfacet
facet normal 0.9659258262890684 0.25881904510252063 -6.536685926007743e-19
  outer loop
    vertex 0.4108752341002517 -1.5334072492338964 -60.324999999999996
    vertex 1.9722011236812065 -7.3603547963227 -57.15
    vertex 1.9722011236812065 -7.3603547963227 -60.324999999999996
  endloop
endfacet
facet normal 0.9659258262890684 0.25881904510252063 -6.536685926007743e-19
  outer loop
    vertex 1.9722011236812065 -7.3603547963227 -57.15
    vertex 0.4108752341002517 -1.5334072492338964 -60.324999999999996
    vertex 1.9722011236812065 -7.3603547963227 0.0
  endloop
endfacet
facet normal 0.9659258262890684 0.25881904510252063 -6.536685926007743e-19
  outer loop
    vertex 1.9722011236812065 -7.3603547963227 0.0
    vertex 0.4108752341002517 -1.5334072492338964 -60.324999999999996
    vertex 1.9722011236812065 -7.3603547963227 3.175
  endloop
endfacet
facet normal 0.9659258262890684 0.25881904510252063 -6.536685926007743e-19
  outer loop
    vertex 1.9722011236812065 -7.3603547963227 3.175
    vertex 0.4108752341002517 -1.5334072492338964 -60.324999999999996
    vertex 0.4108752341002517 -1.5334072492338964 3.1749999999999887
  endloop
endfacet
facet normal -0.8660254037844387 -0.4999999999999999 -4.234638617320267e-19
  outer loop
    vertex 0.79375 -1.3748153285077973 3.1749999999999887
    vertex 3.8099999999999974 -6.599113576837423 0.0
    vertex 3.8099999999999974 -6.599113576837423 3.175
  endloop
endfacet
facet normal -0.8660254037844387 -0.4999999999999999 -4.234638617320267e-19
  outer loop
    vertex 3.8099999999999974 -6.599113576837423 0.0
    vertex 0.79375 -1.3748153285077973 3.1749999999999887
    vertex 3.8099999999999974 -6.599113576837423 -57.15
  endloop
endfacet
facet normal -0.8660254037844387 -0.4999999999999999 -4.234638617320267e-19
  outer loop
    vertex 3.8099999999999974 -6.599113576837423 -57.15
    vertex 0.79375 -1.3748153285077973 3.1749999999999887
    vertex 3.8099999999999974 -6.599113576837423 -60.324999999999996
  endloop
endfacet
facet normal -0.8660254037844387 -0.4999999999999999 -4.234638617320267e-19
  outer loop
    vertex 3.8099999999999974 -6.599113576837423 -60.324999999999996
    vertex 0.79375 -1.3748153285077973 3.1749999999999887
    vertex 0.79375 -1.3748153285077973 -60.324999999999996
  endloop
endfacet
facet normal 0.25881904510252096 0.9659258262890682 6.536685926007711e-19
  outer loop
    vertex 1.533407249233895 -0.41087523410025306 3.1749999999999887
    vertex 7.360354796322698 -1.9722011236812107 -60.324999999999996
    vertex 1.533407249233895 -0.41087523410025306 -60.324999999999996
  endloop
endfacet
facet normal 0.25881904510252096 0.9659258262890682 6.536685926007711e-19
  outer loop
    vertex 7.360354796322698 -1.9722011236812107 -60.324999999999996
    vertex 1.533407249233895 -0.41087523410025306 3.1749999999999887
    vertex 7.360354796322698 -1.9722011236812107 -57.15
  endloop
endfacet
facet normal 0.25881904510252096 0.9659258262890682 6.536685926007711e-19
  outer loop
    vertex 7.360354796322698 -1.9722011236812107 -57.15
    vertex 1.533407249233895 -0.41087523410025306 3.1749999999999887
    vertex 7.360354796322698 -1.9722011236812107 0.0
  endloop
endfacet
facet normal 0.25881904510252096 0.9659258262890682 6.536685926007711e-19
  outer loop
    vertex 7.360354796322698 -1.9722011236812107 0.0
    vertex 1.533407249233895 -0.41087523410025306 3.1749999999999887
    vertex 7.360354796322698 -1.9722011236812107 3.175
  endloop
endfacet
facet normal -2.9004792611384685e-17 -1.0 1.1845490147539603e-35
  outer loop
    vertex 7.619999999999997 -1.4099832412739487e-15 -57.15
    vertex 1.5875 -1.4099832412739487e-15 -60.324999999999996
    vertex 7.619999999999997 -1.4099832412739487e-15 -60.324999999999996
  endloop
endfacet
facet normal -2.9004792611384685e-17 -1.0 1.1845490147539603e-35
  outer loop
    vertex 1.5875 -1.4099832412739487e-15 -60.324999999999996
    vertex 7.619999999999997 -1.4099832412739487e-15 -57.15
    vertex 1.5875 -1.4099832412739487e-15 3.1749999999999887
  endloop
endfacet
facet normal -2.9004792611384685e-17 -1.0 1.1845490147539603e-35
  outer loop
    vertex 1.5875 -1.4099832412739487e-15 3.1749999999999887
    vertex 7.619999999999997 -1.4099832412739487e-15 -57.15
    vertex 7.619999999999997 -1.4099832412739487e-15 0.0
  endloop
endfacet
facet normal -2.9004792611384685e-17 -1.0 1.1845490147539603e-35
  outer loop
    vertex 1.5875 -1.4099832412739487e-15 3.1749999999999887
    vertex 7.619999999999997 -1.4099832412739487e-15 0.0
    vertex 7.619999999999997 -1.4099832412739487e-15 3.175
  endloop
endfacet
facet normal -0.7071067811865476 -0.7071067811865475 8.248275778453517e-34
  outer loop
    vertex -5.388153672641491 5.388153672641493 3.175
    vertex -1.1225320151336446 1.1225320151336433 -60.324999999999996
    vertex -1.1225320151336446 1.1225320151336433 3.1749999999999887
  endloop
endfacet
facet normal -0.7071067811865476 -0.7071067811865475 8.248275778453517e-34
  outer loop
    vertex -1.1225320151336446 1.1225320151336433 -60.324999999999996
    vertex -5.388153672641491 5.388153672641493 3.175
    vertex -5.388153672641491 5.388153672641493 -60.324999999999996
  endloop
endfacet
facet normal -0.7071067811865476 -0.7071067811865475 8.248275778453517e-34
  outer loop
    vertex -5.388153672641491 5.388153672641493 -60.324999999999996
    vertex -5.388153672641491 5.388153672641493 3.175
    vertex -5.388153672641491 5.388153672641493 0.0
  endloop
endfacet
facet normal -0.7071067811865476 -0.7071067811865475 8.248275778453517e-34
  outer loop
    vertex -5.388153672641491 5.388153672641493 -60.324999999999996
    vertex -5.388153672641491 5.388153672641493 0.0
    vertex -5.388153672641491 5.388153672641493 -57.15
  endloop
endfacet
facet normal 0.5000000000000007 0.8660254037844384 4.2346386173203207e-19
  outer loop
    vertex -6.59911357683742 3.810000000000003 -57.15
    vertex -1.3748153285077958 0.79375 -60.324999999999996
    vertex -6.59911357683742 3.810000000000003 -60.324999999999996
  endloop
endfacet
facet normal 0.5000000000000007 0.8660254037844384 4.2346386173203207e-19
  outer loop
    vertex -1.3748153285077958 0.79375 -60.324999999999996
    vertex -6.59911357683742 3.810000000000003 -57.15
    vertex -1.3748153285077958 0.79375 3.1749999999999887
  endloop
endfacet
facet normal 0.5000000000000007 0.8660254037844384 4.2346386173203207e-19
  outer loop
    vertex -1.3748153285077958 0.79375 3.1749999999999887
    vertex -6.59911357683742 3.810000000000003 -57.15
    vertex -6.59911357683742 3.810000000000003 0.0
  endloop
endfacet
facet normal 0.5000000000000007 0.8660254037844384 4.2346386173203207e-19
  outer loop
    vertex -1.3748153285077958 0.79375 3.1749999999999887
    vertex -6.59911357683742 3.810000000000003 0.0
    vertex -6.59911357683742 3.810000000000003 3.175
  endloop
endfacet
facet normal 0.0 0.0 -1.0
  outer loop
    vertex 1.1225320151336446 -1.1225320151336446 -60.324999999999996
    vertex 3.8099999999999974 -6.599113576837423 -60.324999999999996
    vertex 0.79375 -1.3748153285077973 -60.324999999999996
  endloop
endfacet
facet normal 0.0 0.0 -1.0
  outer loop
    vertex 3.8099999999999974 -6.599113576837423 -60.324999999999996
    vertex 1.1225320151336446 -1.1225320151336446 -60.324999999999996
    vertex 5.38815367264149 -5.388153672641492 -60.324999999999996
  endloop
endfacet
facet normal -0.9659258262890682 0.25881904510252135 -1.096005123289134e-19
  outer loop
    vertex 1.9722011236812136 7.360354796322698 3.175
    vertex 0.41087523410025306 1.533407249233895 -60.324999999999996
    vertex 0.41087523410025306 1.533407249233895 3.1749999999999887
  endloop
endfacet
facet normal -0.9659258262890682 0.25881904510252135 -1.096005123289134e-19
  outer loop
    vertex 0.41087523410025306 1.533407249233895 -60.324999999999996
    vertex 1.9722011236812136 7.360354796322698 3.175
    vertex 1.9722011236812136 7.360354796322698 -60.324999999999996
  endloop
endfacet
facet normal -0.9659258262890682 0.25881904510252135 -1.096005123289134e-19
  outer loop
    vertex 1.9722011236812136 7.360354796322698 -60.324999999999996
    vertex 1.9722011236812136 7.360354796322698 3.175
    vertex 1.9722011236812136 7.360354796322698 0.0
  endloop
endfacet
facet normal -0.9659258262890682 0.25881904510252135 -1.096005123289134e-19
  outer loop
    vertex 1.9722011236812136 7.360354796322698 -60.324999999999996
    vertex 1.9722011236812136 7.360354796322698 0.0
    vertex 1.9722011236812136 7.360354796322698 -57.15
  endloop
endfacet
facet normal 1.0 -1.6758324619911143e-16 -3.4428045215593746e-34
  outer loop
    vertex 1.4099832412739487e-15 7.619999999999997 -60.324999999999996
    vertex 0.0 1.5875 3.1749999999999887
    vertex 0.0 1.5875 -60.324999999999996
  endloop
endfacet
facet normal 1.0 -1.6758324619911143e-16 -3.4428045215593746e-34
  outer loop
    vertex 0.0 1.5875 3.1749999999999887
    vertex 1.4099832412739487e-15 7.619999999999997 -60.324999999999996
    vertex 1.4099832412739487e-15 7.619999999999997 3.175
  endloop
endfacet
facet normal 1.0 -1.6758324619911143e-16 -3.4428045215593746e-34
  outer loop
    vertex 1.4099832412739487e-15 7.619999999999997 3.175
    vertex 1.4099832412739487e-15 7.619999999999997 -60.324999999999996
    vertex 1.4099832412739487e-15 7.619999999999997 -57.15
  endloop
endfacet
facet normal 1.0 -1.6758324619911143e-16 -3.4428045215593746e-34
  outer loop
    vertex 1.4099832412739487e-15 7.619999999999997 3.175
    vertex 1.4099832412739487e-15 7.619999999999997 -57.15
    vertex 1.4099832412739487e-15 7.619999999999997 0.0
  endloop
endfacet
facet normal 0.6087614290087209 0.7933533402912352 -5.911320306027944e-19
  outer loop
    vertex -5.388153672641492 -5.388153672641491 0.0
    vertex -3.8100000000000005 -6.599113576837421 -57.15
    vertex -5.388153672641492 -5.388153672641491 -57.15
  endloop
endfacet
facet normal 0.6087614290087209 0.7933533402912352 -5.911320306027944e-19
  outer loop
    vertex -3.8100000000000005 -6.599113576837421 -57.15
    vertex -5.388153672641492 -5.388153672641491 0.0
    vertex -3.8100000000000005 -6.599113576837421 0.0
  endloop
endfacet
facet normal -0.38268343236508967 0.9238795325112868 3.716011292311736e-19
  outer loop
    vertex 1.9722011236812065 -7.3603547963227 0.0
    vertex 3.8099999999999974 -6.599113576837423 -57.15
    vertex 1.9722011236812065 -7.3603547963227 -57.15
  endloop
endfacet
facet normal -0.38268343236508967 0.9238795325112868 3.716011292311736e-19
  outer loop
    vertex 3.8099999999999974 -6.599113576837423 -57.15
    vertex 1.9722011236812065 -7.3603547963227 0.0
    vertex 3.8099999999999974 -6.599113576837423 0.0
  endloop
endfacet
facet normal -2.4617033106683686e-16 1.8698493046318425e-15 1.0
  outer loop
    vertex 1.9722011236812065 -7.3603547963227 3.175
    vertex 0.0 -1.5875 3.1749999999999887
    vertex 0.0 -7.619999999999999 3.175
  endloop
endfacet
facet normal -2.4617033106683686e-16 1.8698493046318425e-15 1.0
  outer loop
    vertex 0.0 -1.5875 3.1749999999999887
    vertex 1.9722011236812065 -7.3603547963227 3.175
    vertex 0.4108752341002517 -1.5334072492338964 3.1749999999999887
  endloop
endfacet
facet normal -1.1481144126778282e-15 1.4962518335264245e-15 1.0
  outer loop
    vertex 3.8099999999999974 -6.599113576837423 3.175
    vertex 1.1225320151336446 -1.1225320151336446 3.1749999999999887
    vertex 0.79375 -1.3748153285077973 3.1749999999999887
  endloop
endfacet
facet normal -1.1481144126778282e-15 1.4962518335264245e-15 1.0
  outer loop
    vertex 1.1225320151336446 -1.1225320151336446 3.1749999999999887
    vertex 3.8099999999999974 -6.599113576837423 3.175
    vertex 5.38815367264149 -5.388153672641492 3.175
  endloop
endfacet
facet normal -0.9238795325112867 0.38268343236509017 0.0
  outer loop
    vertex -6.59911357683742 3.810000000000003 -57.15
    vertex -7.360354796322698 1.9722011236812136 -60.324999999999996
    vertex -7.360354796322698 1.9722011236812136 -57.15
  endloop
endfacet
facet normal -0.9238795325112867 0.38268343236509017 0.0
  outer loop
    vertex -7.360354796322698 1.9722011236812136 -60.324999999999996
    vertex -6.59911357683742 3.810000000000003 -57.15
    vertex -6.59911357683742 3.810000000000003 -60.324999999999996
  endloop
endfacet
facet normal -0.6087614290087197 0.7933533402912358 0.0
  outer loop
    vertex -5.388153672641491 5.388153672641493 -57.15
    vertex -3.8099999999999947 6.599113576837423 -60.324999999999996
    vertex -5.388153672641491 5.388153672641493 -60.324999999999996
  endloop
endfacet
facet normal -0.6087614290087197 0.7933533402912358 0.0
  outer loop
    vertex -3.8099999999999947 6.599113576837423 -60.324999999999996
    vertex -5.388153672641491 5.388153672641493 -57.15
    vertex -3.8099999999999947 6.599113576837423 -57.15
  endloop
endfacet
facet normal -0.13052619222005138 0.9914448613738105 0.0
  outer loop
    vertex -1.9722011236812051 7.3603547963227 -57.15
    vertex 1.4099832412739487e-15 7.619999999999997 -60.324999999999996
    vertex -1.9722011236812051 7.3603547963227 -60.324999999999996
  endloop
endfacet
facet normal -0.13052619222005138 0.9914448613738105 0.0
  outer loop
    vertex 1.4099832412739487e-15 7.619999999999997 -60.324999999999996
    vertex -1.9722011236812051 7.3603547963227 -57.15
    vertex 1.4099832412739487e-15 7.619999999999997 -57.15
  endloop
endfacet
facet normal 0.38268343236508995 0.9238795325112867 0.0
  outer loop
    vertex 1.9722011236812136 7.360354796322698 -57.15
    vertex 3.810000000000003 6.59911357683742 -60.324999999999996
    vertex 1.9722011236812136 7.360354796322698 -60.324999999999996
  endloop
endfacet
facet normal 0.38268343236508995 0.9238795325112867 0.0
  outer loop
    vertex 3.810000000000003 6.59911357683742 -60.324999999999996
    vertex 1.9722011236812136 7.360354796322698 -57.15
    vertex 3.810000000000003 6.59911357683742 -57.15
  endloop
endfacet
facet normal 0.7933533402912354 0.6087614290087203 0.0
  outer loop
    vertex 5.388153672641495 5.38815367264149 -60.324999999999996
    vertex 6.599113576837423 3.8099999999999974 -57.15
    vertex 6.599113576837423 3.8099999999999974 -60.324999999999996
  endloop
endfacet
facet normal 0.7933533402912354 0.6087614290087203 0.0
  outer loop
    vertex 6.599113576837423 3.8099999999999974 -57.15
    vertex 5.388153672641495 5.38815367264149 -60.324999999999996
    vertex 5.388153672641495 5.38815367264149 -57.15
  endloop
endfacet
facet normal 0.9914448613738105 0.1305261922200514 0.0
  outer loop
    vertex 7.3603547963227 1.9722011236812051 -60.324999999999996
    vertex 7.619999999999997 -1.4099832412739487e-15 -57.15
    vertex 7.619999999999997 -1.4099832412739487e-15 -60.324999999999996
  endloop
endfacet
facet normal 0.9914448613738105 0.1305261922200514 0.0
  outer loop
    vertex 7.619999999999997 -1.4099832412739487e-15 -57.15
    vertex 7.3603547963227 1.9722011236812051 -60.324999999999996
    vertex 7.3603547963227 1.9722011236812051 -57.15
  endloop
endfacet
facet normal 0.9914448613738105 0.13052619222005152 4.888200567625405e-34
  outer loop
    vertex -1.5875 0.0 -60.324999999999996
    vertex -1.5334072492338964 -0.4108752341002517 3.1749999999999887
    vertex -1.5334072492338964 -0.4108752341002517 -60.324999999999996
  endloop
endfacet
facet normal 0.9914448613738105 0.13052619222005152 4.888200567625405e-34
  outer loop
    vertex -1.5334072492338964 -0.4108752341002517 3.1749999999999887
    vertex -1.5875 0.0 -60.324999999999996
    vertex -1.5875 0.0 3.1749999999999887
  endloop
endfacet
facet normal 0.9238795325112865 -0.38268343236509067 -4.5550777770751174e-34
  outer loop
    vertex -1.3748153285077958 0.79375 -60.324999999999996
    vertex -1.533407249233895 0.41087523410025306 3.1749999999999887
    vertex -1.533407249233895 0.41087523410025306 -60.324999999999996
  endloop
endfacet
facet normal 0.9238795325112865 -0.38268343236509067 -4.5550777770751174e-34
  outer loop
    vertex -1.533407249233895 0.41087523410025306 3.1749999999999887
    vertex -1.3748153285077958 0.79375 -60.324999999999996
    vertex -1.3748153285077958 0.79375 3.1749999999999887
  endloop
endfacet
facet normal 0.6087614290087199 -0.7933533402912359 3.001425574696598e-34
  outer loop
    vertex -0.7937499999999985 1.3748153285077958 3.1749999999999887
    vertex -1.1225320151336446 1.1225320151336433 -60.324999999999996
    vertex -0.7937499999999985 1.3748153285077958 -60.324999999999996
  endloop
endfacet
facet normal 0.6087614290087199 -0.7933533402912359 3.001425574696598e-34
  outer loop
    vertex -1.1225320151336446 1.1225320151336433 -60.324999999999996
    vertex -0.7937499999999985 1.3748153285077958 3.1749999999999887
    vertex -1.1225320151336446 1.1225320151336433 3.1749999999999887
  endloop
endfacet
facet normal 0.13052619222005124 -0.9914448613738105 -1.6088595335900223e-35
  outer loop
    vertex 0.0 1.5875 3.1749999999999887
    vertex -0.41087523410025023 1.533407249233895 -60.324999999999996
    vertex 0.0 1.5875 -60.324999999999996
  endloop
endfacet
facet normal 0.13052619222005124 -0.9914448613738105 -1.6088595335900223e-35
  outer loop
    vertex -0.41087523410025023 1.533407249233895 -60.324999999999996
    vertex 0.0 1.5875 3.1749999999999887
    vertex -0.41087523410025023 1.533407249233895 3.1749999999999887
  endloop
endfacet
facet normal -0.38268343236509034 -0.9238795325112865 2.668302784146311e-34
  outer loop
    vertex 0.79375 1.3748153285077958 3.1749999999999887
    vertex 0.41087523410025306 1.533407249233895 -60.324999999999996
    vertex 0.79375 1.3748153285077958 -60.324999999999996
  endloop
endfacet
facet normal -0.38268343236509034 -0.9238795325112865 2.668302784146311e-34
  outer loop
    vertex 0.41087523410025306 1.533407249233895 -60.324999999999996
    vertex 0.79375 1.3748153285077958 3.1749999999999887
    vertex 0.41087523410025306 1.533407249233895 3.1749999999999887
  endloop
endfacet
facet normal -0.7933533402912354 -0.6087614290087204 3.0014255746966002e-34
  outer loop
    vertex 1.1225320151336446 1.1225320151336433 3.1749999999999887
    vertex 1.3748153285077973 0.7937499999999985 -60.324999999999996
    vertex 1.3748153285077973 0.7937499999999985 3.1749999999999887
  endloop
endfacet
facet normal -0.7933533402912354 -0.6087614290087204 3.0014255746966002e-34
  outer loop
    vertex 1.3748153285077973 0.7937499999999985 -60.324999999999996
    vertex 1.1225320151336446 1.1225320151336433 3.1749999999999887
    vertex 1.1225320151336446 1.1225320151336433 -60.324999999999996
  endloop
endfacet
facet normal -0.9914448613738105 -0.13052619222005124 -9.61551518189181e-34
  outer loop
    vertex 1.5334072492338964 0.41087523410025023 3.1749999999999887
    vertex 1.5875 -1.4099832412739487e-15 -60.324999999999996
    vertex 1.5875 -1.4099832412739487e-15 3.1749999999999887
  endloop
endfacet
facet normal -0.9914448613738105 -0.13052619222005124 -9.61551518189181e-34
  outer loop
    vertex 1.5875 -1.4099832412739487e-15 -60.324999999999996
    vertex 1.5334072492338964 0.41087523410025023 3.1749999999999887
    vertex 1.5334072492338964 0.41087523410025023 -60.324999999999996
  endloop
endfacet
facet normal -0.9238795325112867 0.38268343236508995 -1.0621598943857633e-19
  outer loop
    vertex 1.533407249233895 -0.41087523410025306 3.1749999999999887
    vertex 1.3748153285077958 -0.7937500000000014 -60.324999999999996
    vertex 1.3748153285077958 -0.7937500000000014 3.1749999999999887
  endloop
endfacet
facet normal -0.9238795325112867 0.38268343236508995 -1.0621598943857633e-19
  outer loop
    vertex 1.3748153285077958 -0.7937500000000014 -60.324999999999996
    vertex 1.533407249233895 -0.41087523410025306 3.1749999999999887
    vertex 1.533407249233895 -0.41087523410025306 -60.324999999999996
  endloop
endfacet
facet normal -0.6087614290087204 0.7933533402912355 -5.41224675098741e-34
  outer loop
    vertex 0.79375 -1.3748153285077973 3.1749999999999887
    vertex 1.1225320151336446 -1.1225320151336446 -60.324999999999996
    vertex 0.79375 -1.3748153285077973 -60.324999999999996
  endloop
endfacet
facet normal -0.6087614290087204 0.7933533402912355 -5.41224675098741e-34
  outer loop
    vertex 1.1225320151336446 -1.1225320151336446 -60.324999999999996
    vertex 0.79375 -1.3748153285077973 3.1749999999999887
    vertex 1.1225320151336446 -1.1225320151336446 3.1749999999999887
  endloop
endfacet
facet normal -0.13052619222005113 0.9914448613738105 0.0
  outer loop
    vertex 0.0 -1.5875 3.1749999999999887
    vertex 0.4108752341002517 -1.5334072492338964 -60.324999999999996
    vertex 0.0 -1.5875 -60.324999999999996
  endloop
endfacet
facet normal -0.13052619222005113 0.9914448613738105 0.0
  outer loop
    vertex 0.4108752341002517 -1.5334072492338964 -60.324999999999996
    vertex 0.0 -1.5875 3.1749999999999887
    vertex 0.4108752341002517 -1.5334072492338964 3.1749999999999887
  endloop
endfacet
facet normal 0.3826834323650899 0.9238795325112867 9.433874964644023e-35
  outer loop
    vertex -0.79375 -1.3748153285077973 3.1749999999999887
    vertex -0.4108752341002517 -1.5334072492338964 -60.324999999999996
    vertex -0.79375 -1.3748153285077973 -60.324999999999996
  endloop
endfacet
facet normal 0.3826834323650899 0.9238795325112867 9.433874964644023e-35
  outer loop
    vertex -0.4108752341002517 -1.5334072492338964 -60.324999999999996
    vertex -0.79375 -1.3748153285077973 3.1749999999999887
    vertex -0.4108752341002517 -1.5334072492338964 3.1749999999999887
  endloop
endfacet
facet normal 0.7933533402912352 0.6087614290087205 3.0014255746966007e-34
  outer loop
    vertex -1.3748153285077958 -0.79375 -60.324999999999996
    vertex -1.1225320151336446 -1.1225320151336446 3.1749999999999887
    vertex -1.1225320151336446 -1.1225320151336446 -60.324999999999996
  endloop
endfacet
facet normal 0.7933533402912352 0.6087614290087205 3.0014255746966007e-34
  outer loop
    vertex -1.1225320151336446 -1.1225320151336446 3.1749999999999887
    vertex -1.3748153285077958 -0.79375 -60.324999999999996
    vertex -1.3748153285077958 -0.79375 3.1749999999999887
  endloop
endfacet
facet normal 0.0 0.0 -1.0
  outer loop
    vertex 7.3603547963227 1.9722011236812051 -60.324999999999996
    vertex 1.5875 -1.4099832412739487e-15 -60.324999999999996
    vertex 1.5334072492338964 0.41087523410025023 -60.324999999999996
  endloop
endfacet
facet normal 0.0 0.0 -1.0
  outer loop
    vertex 1.5875 -1.4099832412739487e-15 -60.324999999999996
    vertex 7.3603547963227 1.9722011236812051 -60.324999999999996
    vertex 7.619999999999997 -1.4099832412739487e-15 -60.324999999999996
  endloop
endfacet
facet normal -0.7933533402912353 0.6087614290087205 0.0
  outer loop
    vertex -7.184204896855323 7.184204896855323 0.0
    vertex -8.798818102449893 5.0800000000000045 -57.15
    vertex -8.798818102449893 5.0800000000000045 0.0
  endloop
endfacet
facet normal -0.7933533402912353 0.6087614290087205 0.0
  outer loop
    vertex -8.798818102449893 5.0800000000000045 -57.15
    vertex -7.184204896855323 7.184204896855323 0.0
    vertex -7.184204896855323 7.184204896855323 -57.15
  endloop
endfacet
facet normal -0.6087614290087201 0.7933533402912356 0.0
  outer loop
    vertex -7.184204896855323 7.184204896855323 0.0
    vertex -5.079999999999993 8.798818102449902 -57.15
    vertex -7.184204896855323 7.184204896855323 -57.15
  endloop
endfacet
facet normal -0.6087614290087201 0.7933533402912356 0.0
  outer loop
    vertex -5.079999999999993 8.798818102449902 -57.15
    vertex -7.184204896855323 7.184204896855323 0.0
    vertex -5.079999999999993 8.798818102449902 0.0
  endloop
endfacet
facet normal -0.3826834323650895 0.9238795325112868 0.0
  outer loop
    vertex -5.079999999999993 8.798818102449902 0.0
    vertex -2.6296014982416063 9.813806395096936 -57.15
    vertex -5.079999999999993 8.798818102449902 -57.15
  endloop
endfacet
facet normal -0.3826834323650895 0.9238795325112868 0.0
  outer loop
    vertex -2.6296014982416063 9.813806395096936 -57.15
    vertex -5.079999999999993 8.798818102449902 0.0
    vertex -2.6296014982416063 9.813806395096936 0.0
  endloop
endfacet
facet normal -0.13052619222005102 0.9914448613738106 0.0
  outer loop
    vertex -2.6296014982416063 9.813806395096936 0.0
    vertex 1.4099832412739487e-15 10.16 -57.15
    vertex -2.6296014982416063 9.813806395096936 -57.15
  endloop
endfacet
facet normal -0.13052619222005102 0.9914448613738106 0.0
  outer loop
    vertex 1.4099832412739487e-15 10.16 -57.15
    vertex -2.6296014982416063 9.813806395096936 0.0
    vertex 1.4099832412739487e-15 10.16 0.0
  endloop
endfacet
facet normal 0.13052619222005218 0.9914448613738104 0.0
  outer loop
    vertex 1.4099832412739487e-15 10.16 0.0
    vertex 2.629601498241619 9.813806395096933 -57.15
    vertex 1.4099832412739487e-15 10.16 -57.15
  endloop
endfacet
facet normal 0.13052619222005218 0.9914448613738104 0.0
  outer loop
    vertex 2.629601498241619 9.813806395096933 -57.15
    vertex 1.4099832412739487e-15 10.16 0.0
    vertex 2.629601498241619 9.813806395096933 0.0
  endloop
endfacet
facet normal 0.3826834323650905 0.9238795325112865 0.0
  outer loop
    vertex 2.629601498241619 9.813806395096933 0.0
    vertex 5.0800000000000045 8.798818102449893 -57.15
    vertex 2.629601498241619 9.813806395096933 -57.15
  endloop
endfacet
facet normal 0.3826834323650905 0.9238795325112865 0.0
  outer loop
    vertex 5.0800000000000045 8.798818102449893 -57.15
    vertex 2.629601498241619 9.813806395096933 0.0
    vertex 5.0800000000000045 8.798818102449893 0.0
  endloop
endfacet
facet normal 0.6087614290087211 0.7933533402912348 0.0
  outer loop
    vertex 5.0800000000000045 8.798818102449893 0.0
    vertex 7.184204896855328 7.1842048968553165 -57.15
    vertex 5.0800000000000045 8.798818102449893 -57.15
  endloop
endfacet
facet normal 0.6087614290087211 0.7933533402912348 0.0
  outer loop
    vertex 7.184204896855328 7.1842048968553165 -57.15
    vertex 5.0800000000000045 8.798818102449893 0.0
    vertex 7.184204896855328 7.1842048968553165 0.0
  endloop
endfacet
facet normal 0.793353340291235 0.6087614290087208 0.0
  outer loop
    vertex 7.184204896855328 7.1842048968553165 -57.15
    vertex 8.798818102449898 5.079999999999998 0.0
    vertex 8.798818102449898 5.079999999999998 -57.15
  endloop
endfacet
facet normal 0.793353340291235 0.6087614290087208 0.0
  outer loop
    vertex 8.798818102449898 5.079999999999998 0.0
    vertex 7.184204896855328 7.1842048968553165 -57.15
    vertex 7.184204896855328 7.1842048968553165 0.0
  endloop
endfacet
facet normal 0.9238795325112868 0.38268343236508934 0.0
  outer loop
    vertex 8.798818102449898 5.079999999999998 -57.15
    vertex 9.813806395096936 2.6296014982416076 0.0
    vertex 9.813806395096936 2.6296014982416076 -57.15
  endloop
endfacet
facet normal 0.9238795325112868 0.38268343236508934 0.0
  outer loop
    vertex 9.813806395096936 2.6296014982416076 0.0
    vertex 8.798818102449898 5.079999999999998 -57.15
    vertex 8.798818102449898 5.079999999999998 0.0
  endloop
endfacet
facet normal 0.9914448613738106 0.13052619222005102 0.0
  outer loop
    vertex 9.813806395096936 2.6296014982416076 -57.15
    vertex 10.16 -1.4099832412739487e-15 0.0
    vertex 10.16 -1.4099832412739487e-15 -57.15
  endloop
endfacet
facet normal 0.9914448613738106 0.13052619222005102 0.0
  outer loop
    vertex 10.16 -1.4099832412739487e-15 0.0
    vertex 9.813806395096936 2.6296014982416076 -57.15
    vertex 9.813806395096936 2.6296014982416076 0.0
  endloop
endfacet
facet normal 0.9914448613738104 -0.13052619222005185 0.0
  outer loop
    vertex 10.16 -1.4099832412739487e-15 -57.15
    vertex 9.813806395096933 -2.6296014982416134 0.0
    vertex 9.813806395096933 -2.6296014982416134 -57.15
  endloop
endfacet
facet normal 0.9914448613738104 -0.13052619222005185 0.0
  outer loop
    vertex 9.813806395096933 -2.6296014982416134 0.0
    vertex 10.16 -1.4099832412739487e-15 -57.15
    vertex 10.16 -1.4099832412739487e-15 0.0
  endloop
endfacet
facet normal 0.9238795325112866 -0.38268343236508995 0.0
  outer loop
    vertex 9.813806395096933 -2.6296014982416134 -57.15
    vertex 8.798818102449896 -5.080000000000004 0.0
    vertex 8.798818102449896 -5.080000000000004 -57.15
  endloop
endfacet
facet normal 0.9238795325112866 -0.38268343236508995 0.0
  outer loop
    vertex 8.798818102449896 -5.080000000000004 0.0
    vertex 9.813806395096933 -2.6296014982416134 -57.15
    vertex 9.813806395096933 -2.6296014982416134 0.0
  endloop
endfacet
facet normal 0.793353340291235 -0.6087614290087208 0.0
  outer loop
    vertex 8.798818102449896 -5.080000000000004 -57.15
    vertex 7.184204896855323 -7.184204896855324 0.0
    vertex 7.184204896855323 -7.184204896855324 -57.15
  endloop
endfacet
facet normal 0.793353340291235 -0.6087614290087208 0.0
  outer loop
    vertex 7.184204896855323 -7.184204896855324 0.0
    vertex 8.798818102449896 -5.080000000000004 -57.15
    vertex 8.798818102449896 -5.080000000000004 0.0
  endloop
endfacet
facet normal 0.6087614290087208 -0.7933533402912352 0.0
  outer loop
    vertex 7.184204896855323 -7.184204896855324 0.0
    vertex 5.079999999999998 -8.798818102449898 -57.15
    vertex 7.184204896855323 -7.184204896855324 -57.15
  endloop
endfacet
facet normal 0.6087614290087208 -0.7933533402912352 0.0
  outer loop
    vertex 5.079999999999998 -8.798818102449898 -57.15
    vertex 7.184204896855323 -7.184204896855324 0.0
    vertex 5.079999999999998 -8.798818102449898 0.0
  endloop
endfacet
facet normal 0.3826834323650893 -0.923879532511287 0.0
  outer loop
    vertex 5.079999999999998 -8.798818102449898 0.0
    vertex 2.6296014982416107 -9.813806395096934 -57.15
    vertex 5.079999999999998 -8.798818102449898 -57.15
  endloop
endfacet
facet normal 0.3826834323650893 -0.923879532511287 0.0
  outer loop
    vertex 2.6296014982416107 -9.813806395096934 -57.15
    vertex 5.079999999999998 -8.798818102449898 0.0
    vertex 2.6296014982416107 -9.813806395096934 0.0
  endloop
endfacet
facet normal 0.13052619222005143 -0.9914448613738105 0.0
  outer loop
    vertex 2.6296014982416107 -9.813806395096934 0.0
    vertex 0.0 -10.16 -57.15
    vertex 2.6296014982416107 -9.813806395096934 -57.15
  endloop
endfacet
facet normal 0.13052619222005143 -0.9914448613738105 0.0
  outer loop
    vertex 0.0 -10.16 -57.15
    vertex 2.6296014982416107 -9.813806395096934 0.0
    vertex 0.0 -10.16 0.0
  endloop
endfacet
facet normal -0.13052619222005182 -0.9914448613738104 -0.0
  outer loop
    vertex 0.0 -10.16 0.0
    vertex -2.6296014982416134 -9.813806395096933 -57.15
    vertex 0.0 -10.16 -57.15
  endloop
endfacet
facet normal -0.13052619222005182 -0.9914448613738104 -0.0
  outer loop
    vertex -2.6296014982416134 -9.813806395096933 -57.15
    vertex 0.0 -10.16 0.0
    vertex -2.6296014982416134 -9.813806395096933 0.0
  endloop
endfacet
facet normal -0.3826834323650897 -0.9238795325112868 -0.0
  outer loop
    vertex -2.6296014982416134 -9.813806395096933 0.0
    vertex -5.080000000000002 -8.798818102449896 -57.15
    vertex -2.6296014982416134 -9.813806395096933 -57.15
  endloop
endfacet
facet normal -0.3826834323650897 -0.9238795325112868 -0.0
  outer loop
    vertex -5.080000000000002 -8.798818102449896 -57.15
    vertex -2.6296014982416134 -9.813806395096933 0.0
    vertex -5.080000000000002 -8.798818102449896 0.0
  endloop
endfacet
facet normal -0.6087614290087208 -0.7933533402912352 -0.0
  outer loop
    vertex -5.080000000000002 -8.798818102449896 0.0
    vertex -7.184204896855324 -7.184204896855323 -57.15
    vertex -5.080000000000002 -8.798818102449896 -57.15
  endloop
endfacet
facet normal -0.6087614290087208 -0.7933533402912352 -0.0
  outer loop
    vertex -7.184204896855324 -7.184204896855323 -57.15
    vertex -5.080000000000002 -8.798818102449896 0.0
    vertex -7.184204896855324 -7.184204896855323 0.0
  endloop
endfacet
facet normal -0.7933533402912353 -0.6087614290087207 -0.0
  outer loop
    vertex -8.798818102449898 -5.079999999999999 0.0
    vertex -7.184204896855324 -7.184204896855323 -57.15
    vertex -7.184204896855324 -7.184204896855323 0.0
  endloop
endfacet
facet normal -0.7933533402912353 -0.6087614290087207 -0.0
  outer loop
    vertex -7.184204896855324 -7.184204896855323 -57.15
    vertex -8.798818102449898 -5.079999999999999 0.0
    vertex -8.798818102449898 -5.079999999999999 -57.15
  endloop
endfacet
facet normal -0.9914448613738105 -0.13052619222005127 0.0
  outer loop
    vertex -7.619999999999999 0.0 3.175
    vertex -7.3603547963227 -1.972201123681208 0.0
    vertex -7.3603547963227 -1.972201123681208 3.175
  endloop
endfacet
facet normal -0.9914448613738105 -0.13052619222005127 0.0
  outer loop
    vertex -7.3603547963227 -1.972201123681208 0.0
    vertex -7.619999999999999 0.0 3.175
    vertex -7.619999999999999 0.0 0.0
  endloop
endfacet
facet normal -0.7933533402912349 -0.6087614290087209 0.0
  outer loop
    vertex -6.599113576837423 -3.8099999999999987 3.175
    vertex -5.388153672641492 -5.388153672641491 0.0
    vertex -5.388153672641492 -5.388153672641491 3.175
  endloop
endfacet
facet normal -0.7933533402912349 -0.6087614290087209 0.0
  outer loop
    vertex -5.388153672641492 -5.388153672641491 0.0
    vertex -6.599113576837423 -3.8099999999999987 3.175
    vertex -6.599113576837423 -3.8099999999999987 0.0
  endloop
endfacet
facet normal -0.38268343236508984 -0.9238795325112867 0.0
  outer loop
    vertex -1.9722011236812094 -7.360354796322699 3.175
    vertex -3.8100000000000005 -6.599113576837421 0.0
    vertex -1.9722011236812094 -7.360354796322699 0.0
  endloop
endfacet
facet normal -0.38268343236508984 -0.9238795325112867 0.0
  outer loop
    vertex -3.8100000000000005 -6.599113576837421 0.0
    vertex -1.9722011236812094 -7.360354796322699 3.175
    vertex -3.8100000000000005 -6.599113576837421 3.175
  endloop
endfacet
facet normal -0.9238795325112867 0.3826834323650901 0.0
  outer loop
    vertex -6.59911357683742 3.810000000000003 3.175
    vertex -7.360354796322698 1.9722011236812136 0.0
    vertex -7.360354796322698 1.9722011236812136 3.175
  endloop
endfacet
facet normal -0.9238795325112867 0.3826834323650901 0.0
  outer loop
    vertex -7.360354796322698 1.9722011236812136 0.0
    vertex -6.59911357683742 3.810000000000003 3.175
    vertex -6.59911357683742 3.810000000000003 0.0
  endloop
endfacet
facet normal -0.6087614290087197 0.7933533402912358 0.0
  outer loop
    vertex -5.388153672641491 5.388153672641493 3.175
    vertex -3.8099999999999947 6.599113576837423 0.0
    vertex -5.388153672641491 5.388153672641493 0.0
  endloop
endfacet
facet normal -0.6087614290087197 0.7933533402912358 0.0
  outer loop
    vertex -3.8099999999999947 6.599113576837423 0.0
    vertex -5.388153672641491 5.388153672641493 3.175
    vertex -3.8099999999999947 6.599113576837423 3.175
  endloop
endfacet
facet normal -0.1305261922200514 0.9914448613738105 0.0
  outer loop
    vertex -1.9722011236812051 7.3603547963227 3.175
    vertex 1.4099832412739487e-15 7.619999999999997 0.0
    vertex -1.9722011236812051 7.3603547963227 0.0
  endloop
endfacet
facet normal -0.1305261922200514 0.9914448613738105 0.0
  outer loop
    vertex 1.4099832412739487e-15 7.619999999999997 0.0
    vertex -1.9722011236812051 7.3603547963227 3.175
    vertex 1.4099832412739487e-15 7.619999999999997 3.175
  endloop
endfacet
facet normal 0.38268343236508995 0.9238795325112867 0.0
  outer loop
    vertex 1.9722011236812136 7.360354796322698 3.175
    vertex 3.810000000000003 6.59911357683742 0.0
    vertex 1.9722011236812136 7.360354796322698 0.0
  endloop
endfacet
facet normal 0.38268343236508995 0.9238795325112867 0.0
  outer loop
    vertex 3.810000000000003 6.59911357683742 0.0
    vertex 1.9722011236812136 7.360354796322698 3.175
    vertex 3.810000000000003 6.59911357683742 3.175
  endloop
endfacet
facet normal 0.7933533402912354 0.6087614290087203 0.0
  outer loop
    vertex 5.388153672641495 5.38815367264149 0.0
    vertex 6.599113576837423 3.8099999999999974 3.175
    vertex 6.599113576837423 3.8099999999999974 0.0
  endloop
endfacet
facet normal 0.7933533402912354 0.6087614290087203 0.0
  outer loop
    vertex 6.599113576837423 3.8099999999999974 3.175
    vertex 5.388153672641495 5.38815367264149 0.0
    vertex 5.388153672641495 5.38815367264149 3.175
  endloop
endfacet
facet normal 0.9914448613738105 0.13052619222005143 0.0
  outer loop
    vertex 7.3603547963227 1.9722011236812051 0.0
    vertex 7.619999999999997 -1.4099832412739487e-15 3.175
    vertex 7.619999999999997 -1.4099832412739487e-15 0.0
  endloop
endfacet
facet normal 0.9914448613738105 0.13052619222005143 0.0
  outer loop
    vertex 7.619999999999997 -1.4099832412739487e-15 3.175
    vertex 7.3603547963227 1.9722011236812051 0.0
    vertex 7.3603547963227 1.9722011236812051 3.175
  endloop
endfacet
facet normal 0.9238795325112867 -0.38268343236509017 0.0
  outer loop
    vertex 7.360354796322698 -1.9722011236812107 0.0
    vertex 6.59911357683742 -3.8100000000000023 3.175
    vertex 6.59911357683742 -3.8100000000000023 0.0
  endloop
endfacet
facet normal 0.9238795325112867 -0.38268343236509017 0.0
  outer loop
    vertex 6.59911357683742 -3.8100000000000023 3.175
    vertex 7.360354796322698 -1.9722011236812107 0.0
    vertex 7.360354796322698 -1.9722011236812107 3.175
  endloop
endfacet
facet normal 0.6087614290087207 -0.7933533402912352 0.0
  outer loop
    vertex 5.38815367264149 -5.388153672641492 3.175
    vertex 3.8099999999999974 -6.599113576837423 0.0
    vertex 5.38815367264149 -5.388153672641492 0.0
  endloop
endfacet
facet normal 0.6087614290087207 -0.7933533402912352 0.0
  outer loop
    vertex 3.8099999999999974 -6.599113576837423 0.0
    vertex 5.38815367264149 -5.388153672641492 3.175
    vertex 3.8099999999999974 -6.599113576837423 3.175
  endloop
endfacet
facet normal 0.1305261922200513 -0.9914448613738105 0.0
  outer loop
    vertex 1.9722011236812065 -7.3603547963227 3.175
    vertex 0.0 -7.619999999999999 0.0
    vertex 1.9722011236812065 -7.3603547963227 0.0
  endloop
endfacet
facet normal 0.1305261922200513 -0.9914448613738105 0.0
  outer loop
    vertex 0.0 -7.619999999999999 0.0
    vertex 1.9722011236812065 -7.3603547963227 3.175
    vertex 0.0 -7.619999999999999 3.175
  endloop
endfacet
facet normal 0.0 0.0 -1.0
  outer loop
    vertex -0.79375 -1.3748153285077973 -60.324999999999996
    vertex -1.9722011236812094 -7.360354796322699 -60.324999999999996
    vertex -3.8100000000000005 -6.599113576837421 -60.324999999999996
  endloop
endfacet
facet normal 0.0 0.0 -1.0
  outer loop
    vertex -1.9722011236812094 -7.360354796322699 -60.324999999999996
    vertex -0.79375 -1.3748153285077973 -60.324999999999996
    vertex -0.4108752341002517 -1.5334072492338964 -60.324999999999996
  endloop
endfacet
facet normal 0.0 0.0 -1.0
  outer loop
    vertex -6.59911357683742 3.810000000000003 -60.324999999999996
    vertex -1.533407249233895 0.41087523410025306 -60.324999999999996
    vertex -7.360354796322698 1.9722011236812136 -60.324999999999996
  endloop
endfacet
facet normal 0.0 0.0 -1.0
  outer loop
    vertex -1.533407249233895 0.41087523410025306 -60.324999999999996
    vertex -6.59911357683742 3.810000000000003 -60.324999999999996
    vertex -1.3748153285077958 0.79375 -60.324999999999996
  endloop
endfacet
facet normal 0.0 0.0 -1.0
  outer loop
    vertex -3.8099999999999947 6.599113576837423 -60.324999999999996
    vertex -1.1225320151336446 1.1225320151336433 -60.324999999999996
    vertex -5.388153672641491 5.388153672641493 -60.324999999999996
  endloop
endfacet
facet normal 0.0 0.0 -1.0
  outer loop
    vertex -1.1225320151336446 1.1225320151336433 -60.324999999999996
    vertex -3.8099999999999947 6.599113576837423 -60.324999999999996
    vertex -0.7937499999999985 1.3748153285077958 -60.324999999999996
  endloop
endfacet
facet normal -0.9659258262890684 -0.2588190451025204 1.0960051232890734e-19
  outer loop
    vertex -1.9722011236812051 7.3603547963227 3.175
    vertex -0.41087523410025023 1.533407249233895 -60.324999999999996
    vertex -0.41087523410025023 1.533407249233895 3.1749999999999887
  endloop
endfacet
facet normal -0.9659258262890684 -0.2588190451025204 1.0960051232890734e-19
  outer loop
    vertex -0.41087523410025023 1.533407249233895 -60.324999999999996
    vertex -1.9722011236812051 7.3603547963227 3.175
    vertex -1.9722011236812051 7.3603547963227 -60.324999999999996
  endloop
endfacet
facet normal -0.9659258262890684 -0.2588190451025204 1.0960051232890734e-19
  outer loop
    vertex -1.9722011236812051 7.3603547963227 -60.324999999999996
    vertex -1.9722011236812051 7.3603547963227 3.175
    vertex -1.9722011236812051 7.3603547963227 0.0
  endloop
endfacet
facet normal -0.9659258262890684 -0.2588190451025204 1.0960051232890734e-19
  outer loop
    vertex -1.9722011236812051 7.3603547963227 -60.324999999999996
    vertex -1.9722011236812051 7.3603547963227 0.0
    vertex -1.9722011236812051 7.3603547963227 -57.15
  endloop
endfacet
facet normal -0.9238795325112867 -0.38268343236508967 -0.0
  outer loop
    vertex -9.813806395096934 -2.6296014982416107 0.0
    vertex -8.798818102449898 -5.079999999999999 -57.15
    vertex -8.798818102449898 -5.079999999999999 0.0
  endloop
endfacet
facet normal -0.9238795325112867 -0.38268343236508967 -0.0
  outer loop
    vertex -8.798818102449898 -5.079999999999999 -57.15
    vertex -9.813806395096934 -2.6296014982416107 0.0
    vertex -9.813806395096934 -2.6296014982416107 -57.15
  endloop
endfacet
facet normal -0.9914448613738104 -0.1305261922200514 -0.0
  outer loop
    vertex -10.16 0.0 0.0
    vertex -9.813806395096934 -2.6296014982416107 -57.15
    vertex -9.813806395096934 -2.6296014982416107 0.0
  endloop
endfacet
facet normal -0.9914448613738104 -0.1305261922200514 -0.0
  outer loop
    vertex -9.813806395096934 -2.6296014982416107 -57.15
    vertex -10.16 0.0 0.0
    vertex -10.16 0.0 -57.15
  endloop
endfacet
facet normal -0.9914448613738104 0.13052619222005205 0.0
  outer loop
    vertex -9.81380639509693 2.629601498241619 0.0
    vertex -10.16 0.0 -57.15
    vertex -10.16 0.0 0.0
  endloop
endfacet
facet normal -0.9914448613738104 0.13052619222005205 0.0
  outer loop
    vertex -10.16 0.0 -57.15
    vertex -9.81380639509693 2.629601498241619 0.0
    vertex -9.81380639509693 2.629601498241619 -57.15
  endloop
endfacet
facet normal -0.9238795325112864 0.38268343236509056 0.0
  outer loop
    vertex -8.798818102449893 5.0800000000000045 0.0
    vertex -9.81380639509693 2.629601498241619 -57.15
    vertex -9.81380639509693 2.629601498241619 0.0
  endloop
endfacet
facet normal -0.9238795325112864 0.38268343236509056 0.0
  outer loop
    vertex -9.81380639509693 2.629601498241619 -57.15
    vertex -8.798818102449893 5.0800000000000045 0.0
    vertex -8.798818102449893 5.0800000000000045 -57.15
  endloop
endfacet
facet normal 0.0 0.0 -1.0
  outer loop
    vertex -7.184204896855323 7.184204896855323 -57.15
    vertex -7.619999999999999 0.0 -57.15
    vertex -8.798818102449893 5.0800000000000045 -57.15
  endloop
endfacet
facet normal 0.0 0.0 -1.0
  outer loop
    vertex -7.619999999999999 0.0 -57.15
    vertex -7.184204896855323 7.184204896855323 -57.15
    vertex -7.360354796322698 1.9722011236812136 -57.15
  endloop
endfacet
facet normal 0.0 0.0 -1.0
  outer loop
    vertex -7.360354796322698 1.9722011236812136 -57.15
    vertex -7.184204896855323 7.184204896855323 -57.15
    vertex -6.59911357683742 3.810000000000003 -57.15
  endloop
endfacet
facet normal 0.0 0.0 -1.0
  outer loop
    vertex -6.59911357683742 3.810000000000003 -57.15
    vertex -7.184204896855323 7.184204896855323 -57.15
    vertex -5.079999999999993 8.798818102449902 -57.15
  endloop
endfacet
facet normal 0.0 0.0 -1.0
  outer loop
    vertex -6.59911357683742 3.810000000000003 -57.15
    vertex -5.079999999999993 8.798818102449902 -57.15
    vertex -5.388153672641491 5.388153672641493 -57.15
  endloop
endfacet
facet normal 0.0 0.0 -1.0
  outer loop
    vertex -5.388153672641491 5.388153672641493 -57.15
    vertex -5.079999999999993 8.798818102449902 -57.15
    vertex -3.8099999999999947 6.599113576837423 -57.15
  endloop
endfacet
facet normal 0.0 0.0 -1.0
  outer loop
    vertex -3.8099999999999947 6.599113576837423 -57.15
    vertex -5.079999999999993 8.798818102449902 -57.15
    vertex -2.6296014982416063 9.813806395096936 -57.15
  endloop
endfacet
facet normal 0.0 0.0 -1.0
  outer loop
    vertex -3.8099999999999947 6.599113576837423 -57.15
    vertex -2.6296014982416063 9.813806395096936 -57.15
    vertex -1.9722011236812051 7.3603547963227 -57.15
  endloop
endfacet
facet normal 0.0 0.0 -1.0
  outer loop
    vertex -1.9722011236812051 7.3603547963227 -57.15
    vertex -2.6296014982416063 9.813806395096936 -57.15
    vertex 1.4099832412739487e-15 10.16 -57.15
  endloop
endfacet
facet normal 0.0 0.0 -1.0
  outer loop
    vertex -1.9722011236812051 7.3603547963227 -57.15
    vertex 1.4099832412739487e-15 10.16 -57.15
    vertex 1.4099832412739487e-15 7.619999999999997 -57.15
  endloop
endfacet
facet normal 0.0 0.0 -1.0
  outer loop
    vertex 1.4099832412739487e-15 7.619999999999997 -57.15
    vertex 1.4099832412739487e-15 10.16 -57.15
    vertex 2.629601498241619 9.813806395096933 -57.15
  endloop
endfacet
facet normal 0.0 0.0 -1.0
  outer loop
    vertex 1.4099832412739487e-15 7.619999999999997 -57.15
    vertex 2.629601498241619 9.813806395096933 -57.15
    vertex 1.9722011236812136 7.360354796322698 -57.15
  endloop
endfacet
facet normal 0.0 0.0 -1.0
  outer loop
    vertex 1.9722011236812136 7.360354796322698 -57.15
    vertex 2.629601498241619 9.813806395096933 -57.15
    vertex 3.810000000000003 6.59911357683742 -57.15
  endloop
endfacet
facet normal 0.0 0.0 -1.0
  outer loop
    vertex 3.810000000000003 6.59911357683742 -57.15
    vertex 2.629601498241619 9.813806395096933 -57.15
    vertex 5.0800000000000045 8.798818102449893 -57.15
  endloop
endfacet
facet normal 0.0 0.0 -1.0
  outer loop
    vertex 3.810000000000003 6.59911357683742 -57.15
    vertex 5.0800000000000045 8.798818102449893 -57.15
    vertex 5.388153672641495 5.38815367264149 -57.15
  endloop
endfacet
facet normal 0.0 0.0 -1.0
  outer loop
    vertex 5.388153672641495 5.38815367264149 -57.15
    vertex 5.0800000000000045 8.798818102449893 -57.15
    vertex 7.184204896855328 7.1842048968553165 -57.15
  endloop
endfacet
facet normal 0.0 0.0 -1.0
  outer loop
    vertex 5.388153672641495 5.38815367264149 -57.15
    vertex 7.184204896855328 7.1842048968553165 -57.15
    vertex 6.599113576837423 3.8099999999999974 -57.15
  endloop
endfacet
facet normal 0.0 0.0 -1.0
  outer loop
    vertex 6.599113576837423 3.8099999999999974 -57.15
    vertex 7.184204896855328 7.1842048968553165 -57.15
    vertex 7.3603547963227 1.9722011236812051 -57.15
  endloop
endfacet
facet normal 0.0 0.0 -1.0
  outer loop
    vertex 7.3603547963227 1.9722011236812051 -57.15
    vertex 7.184204896855328 7.1842048968553165 -57.15
    vertex 8.798818102449898 5.079999999999998 -57.15
  endloop
endfacet
facet normal 0.0 0.0 -1.0
  outer loop
    vertex 7.3603547963227 1.9722011236812051 -57.15
    vertex 8.798818102449898 5.079999999999998 -57.15
    vertex 7.619999999999997 -1.4099832412739487e-15 -57.15
  endloop
endfacet
facet normal 0.0 0.0 -1.0
  outer loop
    vertex 7.619999999999997 -1.4099832412739487e-15 -57.15
    vertex 8.798818102449898 5.079999999999998 -57.15
    vertex 8.798818102449896 -5.080000000000004 -57.15
  endloop
endfacet
facet normal 0.0 0.0 -1.0
  outer loop
    vertex 8.798818102449896 -5.080000000000004 -57.15
    vertex 8.798818102449898 5.079999999999998 -57.15
    vertex 9.813806395096933 -2.6296014982416134 -57.15
  endloop
endfacet
facet normal 0.0 0.0 -1.0
  outer loop
    vertex 9.813806395096933 -2.6296014982416134 -57.15
    vertex 8.798818102449898 5.079999999999998 -57.15
    vertex 9.813806395096936 2.6296014982416076 -57.15
  endloop
endfacet
facet normal 0.0 0.0 -1.0
  outer loop
    vertex 9.813806395096933 -2.6296014982416134 -57.15
    vertex 9.813806395096936 2.6296014982416076 -57.15
    vertex 10.16 -1.4099832412739487e-15 -57.15
  endloop
endfacet
facet normal 0.0 0.0 -1.0
  outer loop
    vertex -9.81380639509693 2.629601498241619 -57.15
    vertex -9.813806395096934 -2.6296014982416107 -57.15
    vertex -10.16 0.0 -57.15
  endloop
endfacet
facet normal 0.0 0.0 -1.0
  outer loop
    vertex -9.813806395096934 -2.6296014982416107 -57.15
    vertex -9.81380639509693 2.629601498241619 -57.15
    vertex -8.798818102449898 -5.079999999999999 -57.15
  endloop
endfacet
facet normal 0.0 0.0 -1.0
  outer loop
    vertex -8.798818102449898 -5.079999999999999 -57.15
    vertex -9.81380639509693 2.629601498241619 -57.15
    vertex -8.798818102449893 5.0800000000000045 -57.15
  endloop
endfacet
facet normal 0.0 0.0 -1.0
  outer loop
    vertex -8.798818102449898 -5.079999999999999 -57.15
    vertex -8.798818102449893 5.0800000000000045 -57.15
    vertex -7.184204896855324 -7.184204896855323 -57.15
  endloop
endfacet
facet normal 0.0 0.0 -1.0
  outer loop
    vertex -7.184204896855324 -7.184204896855323 -57.15
    vertex -8.798818102449893 5.0800000000000045 -57.15
    vertex -7.619999999999999 0.0 -57.15
  endloop
endfacet
facet normal 0.0 0.0 -1.0
  outer loop
    vertex -7.184204896855324 -7.184204896855323 -57.15
    vertex -7.619999999999999 0.0 -57.15
    vertex -7.3603547963227 -1.972201123681208 -57.15
  endloop
endfacet
facet normal 0.0 0.0 -1.0
  outer loop
    vertex -7.184204896855324 -7.184204896855323 -57.15
    vertex -7.3603547963227 -1.972201123681208 -57.15
    vertex -6.599113576837423 -3.8099999999999987 -57.15
  endloop
endfacet
facet normal 0.0 0.0 -1.0
  outer loop
    vertex -7.184204896855324 -7.184204896855323 -57.15
    vertex -6.599113576837423 -3.8099999999999987 -57.15
    vertex -5.080000000000002 -8.798818102449896 -57.15
  endloop
endfacet
facet normal 0.0 0.0 -1.0
  outer loop
    vertex -5.080000000000002 -8.798818102449896 -57.15
    vertex -6.599113576837423 -3.8099999999999987 -57.15
    vertex -5.388153672641492 -5.388153672641491 -57.15
  endloop
endfacet
facet normal 0.0 0.0 -1.0
  outer loop
    vertex -5.080000000000002 -8.798818102449896 -57.15
    vertex -5.388153672641492 -5.388153672641491 -57.15
    vertex -3.8100000000000005 -6.599113576837421 -57.15
  endloop
endfacet
facet normal 0.0 0.0 -1.0
  outer loop
    vertex -5.080000000000002 -8.798818102449896 -57.15
    vertex -3.8100000000000005 -6.599113576837421 -57.15
    vertex -2.6296014982416134 -9.813806395096933 -57.15
  endloop
endfacet
facet normal 0.0 0.0 -1.0
  outer loop
    vertex -2.6296014982416134 -9.813806395096933 -57.15
    vertex -3.8100000000000005 -6.599113576837421 -57.15
    vertex -1.9722011236812094 -7.360354796322699 -57.15
  endloop
endfacet
facet normal 0.0 0.0 -1.0
  outer loop
    vertex -2.6296014982416134 -9.813806395096933 -57.15
    vertex -1.9722011236812094 -7.360354796322699 -57.15
    vertex 0.0 -10.16 -57.15
  endloop
endfacet
facet normal 0.0 0.0 -1.0
  outer loop
    vertex 0.0 -10.16 -57.15
    vertex -1.9722011236812094 -7.360354796322699 -57.15
    vertex 0.0 -7.619999999999999 -57.15
  endloop
endfacet
facet normal 0.0 0.0 -1.0
  outer loop
    vertex 0.0 -10.16 -57.15
    vertex 0.0 -7.619999999999999 -57.15
    vertex 1.9722011236812065 -7.3603547963227 -57.15
  endloop
endfacet
facet normal 0.0 0.0 -1.0
  outer loop
    vertex 0.0 -10.16 -57.15
    vertex 1.9722011236812065 -7.3603547963227 -57.15
    vertex 2.6296014982416107 -9.813806395096934 -57.15
  endloop
endfacet
facet normal 0.0 0.0 -1.0
  outer loop
    vertex 2.6296014982416107 -9.813806395096934 -57.15
    vertex 1.9722011236812065 -7.3603547963227 -57.15
    vertex 3.8099999999999974 -6.599113576837423 -57.15
  endloop
endfacet
facet normal 0.0 0.0 -1.0
  outer loop
    vertex 2.6296014982416107 -9.813806395096934 -57.15
    vertex 3.8099999999999974 -6.599113576837423 -57.15
    vertex 5.079999999999998 -8.798818102449898 -57.15
  endloop
endfacet
facet normal 0.0 0.0 -1.0
  outer loop
    vertex 5.079999999999998 -8.798818102449898 -57.15
    vertex 3.8099999999999974 -6.599113576837423 -57.15
    vertex 5.38815367264149 -5.388153672641492 -57.15
  endloop
endfacet
facet normal 0.0 0.0 -1.0
  outer loop
    vertex 5.079999999999998 -8.798818102449898 -57.15
    vertex 5.38815367264149 -5.388153672641492 -57.15
    vertex 7.184204896855323 -7.184204896855324 -57.15
  endloop
endfacet
facet normal 0.0 0.0 -1.0
  outer loop
    vertex 7.184204896855323 -7.184204896855324 -57.15
    vertex 5.38815367264149 -5.388153672641492 -57.15
    vertex 6.59911357683742 -3.8100000000000023 -57.15
  endloop
endfacet
facet normal 0.0 0.0 -1.0
  outer loop
    vertex 7.184204896855323 -7.184204896855324 -57.15
    vertex 6.59911357683742 -3.8100000000000023 -57.15
    vertex 7.360354796322698 -1.9722011236812107 -57.15
  endloop
endfacet
facet normal 0.0 0.0 -1.0
  outer loop
    vertex 7.184204896855323 -7.184204896855324 -57.15
    vertex 7.360354796322698 -1.9722011236812107 -57.15
    vertex 8.798818102449896 -5.080000000000004 -57.15
  endloop
endfacet
facet normal 0.0 0.0 -1.0
  outer loop
    vertex 8.798818102449896 -5.080000000000004 -57.15
    vertex 7.360354796322698 -1.9722011236812107 -57.15
    vertex 7.619999999999997 -1.4099832412739487e-15 -57.15
  endloop
endfacet
facet normal 0.0 0.0 1.0
  outer loop
    vertex -9.813806395096934 -2.6296014982416107 0.0
    vertex -9.81380639509693 2.629601498241619 0.0
    vertex -10.16 0.0 0.0
  endloop
endfacet
facet normal 0.0 0.0 1.0
  outer loop
    vertex -9.81380639509693 2.629601498241619 0.0
    vertex -9.813806395096934 -2.6296014982416107 0.0
    vertex -8.798818102449898 -5.079999999999999 0.0
  endloop
endfacet
facet normal 0.0 0.0 1.0
  outer loop
    vertex -9.81380639509693 2.629601498241619 0.0
    vertex -8.798818102449898 -5.079999999999999 0.0
    vertex -8.798818102449893 5.0800000000000045 0.0
  endloop
endfacet
facet normal 0.0 0.0 1.0
  outer loop
    vertex -8.798818102449893 5.0800000000000045 0.0
    vertex -8.798818102449898 -5.079999999999999 0.0
    vertex -7.184204896855324 -7.184204896855323 0.0
  endloop
endfacet
facet normal 0.0 0.0 1.0
  outer loop
    vertex -8.798818102449893 5.0800000000000045 0.0
    vertex -7.184204896855324 -7.184204896855323 0.0
    vertex -7.619999999999999 0.0 0.0
  endloop
endfacet
facet normal 0.0 0.0 1.0
  outer loop
    vertex -7.619999999999999 0.0 0.0
    vertex -7.184204896855324 -7.184204896855323 0.0
    vertex -7.3603547963227 -1.972201123681208 0.0
  endloop
endfacet
facet normal 0.0 0.0 1.0
  outer loop
    vertex -7.3603547963227 -1.972201123681208 0.0
    vertex -7.184204896855324 -7.184204896855323 0.0
    vertex -6.599113576837423 -3.8099999999999987 0.0
  endloop
endfacet
facet normal 0.0 0.0 1.0
  outer loop
    vertex -6.599113576837423 -3.8099999999999987 0.0
    vertex -7.184204896855324 -7.184204896855323 0.0
    vertex -5.080000000000002 -8.798818102449896 0.0
  endloop
endfacet
facet normal 0.0 0.0 1.0
  outer loop
    vertex -6.599113576837423 -3.8099999999999987 0.0
    vertex -5.080000000000002 -8.798818102449896 0.0
    vertex -5.388153672641492 -5.388153672641491 0.0
  endloop
endfacet
facet normal 0.0 0.0 1.0
  outer loop
    vertex -5.388153672641492 -5.388153672641491 0.0
    vertex -5.080000000000002 -8.798818102449896 0.0
    vertex -3.8100000000000005 -6.599113576837421 0.0
  endloop
endfacet
facet normal 0.0 0.0 1.0
  outer loop
    vertex -3.8100000000000005 -6.599113576837421 0.0
    vertex -5.080000000000002 -8.798818102449896 0.0
    vertex -2.6296014982416134 -9.813806395096933 0.0
  endloop
endfacet
facet normal 0.0 0.0 1.0
  outer loop
    vertex -3.8100000000000005 -6.599113576837421 0.0
    vertex -2.6296014982416134 -9.813806395096933 0.0
    vertex -1.9722011236812094 -7.360354796322699 0.0
  endloop
endfacet
facet normal 0.0 0.0 1.0
  outer loop
    vertex -1.9722011236812094 -7.360354796322699 0.0
    vertex -2.6296014982416134 -9.813806395096933 0.0
    vertex 0.0 -10.16 0.0
  endloop
endfacet
facet normal 0.0 0.0 1.0
  outer loop
    vertex -1.9722011236812094 -7.360354796322699 0.0
    vertex 0.0 -10.16 0.0
    vertex 0.0 -7.619999999999999 0.0
  endloop
endfacet
facet normal 0.0 0.0 1.0
  outer loop
    vertex 0.0 -7.619999999999999 0.0
    vertex 0.0 -10.16 0.0
    vertex 2.6296014982416107 -9.813806395096934 0.0
  endloop
endfacet
facet normal 0.0 0.0 1.0
  outer loop
    vertex 0.0 -7.619999999999999 0.0
    vertex 2.6296014982416107 -9.813806395096934 0.0
    vertex 1.9722011236812065 -7.3603547963227 0.0
  endloop
endfacet
facet normal 0.0 0.0 1.0
  outer loop
    vertex 1.9722011236812065 -7.3603547963227 0.0
    vertex 2.6296014982416107 -9.813806395096934 0.0
    vertex 3.8099999999999974 -6.599113576837423 0.0
  endloop
endfacet
facet normal 0.0 0.0 1.0
  outer loop
    vertex 3.8099999999999974 -6.599113576837423 0.0
    vertex 2.6296014982416107 -9.813806395096934 0.0
    vertex 5.079999999999998 -8.798818102449898 0.0
  endloop
endfacet
facet normal 0.0 0.0 1.0
  outer loop
    vertex 3.8099999999999974 -6.599113576837423 0.0
    vertex 5.079999999999998 -8.798818102449898 0.0
    vertex 5.38815367264149 -5.388153672641492 0.0
  endloop
endfacet
facet normal 0.0 0.0 1.0
  outer loop
    vertex 5.38815367264149 -5.388153672641492 0.0
    vertex 5.079999999999998 -8.798818102449898 0.0
    vertex 7.184204896855323 -7.184204896855324 0.0
  endloop
endfacet
facet normal 0.0 0.0 1.0
  outer loop
    vertex 5.38815367264149 -5.388153672641492 0.0
    vertex 7.184204896855323 -7.184204896855324 0.0
    vertex 6.59911357683742 -3.8100000000000023 0.0
  endloop
endfacet
facet normal 0.0 0.0 1.0
  outer loop
    vertex 6.59911357683742 -3.8100000000000023 0.0
    vertex 7.184204896855323 -7.184204896855324 0.0
    vertex 7.360354796322698 -1.9722011236812107 0.0
  endloop
endfacet
facet normal 0.0 0.0 1.0
  outer loop
    vertex 7.360354796322698 -1.9722011236812107 0.0
    vertex 7.184204896855323 -7.184204896855324 0.0
    vertex 8.798818102449896 -5.080000000000004 0.0
  endloop
endfacet
facet normal 0.0 0.0 1.0
  outer loop
    vertex 7.360354796322698 -1.9722011236812107 0.0
    vertex 8.798818102449896 -5.080000000000004 0.0
    vertex 7.619999999999997 -1.4099832412739487e-15 0.0
  endloop
endfacet
facet normal 0.0 0.0 1.0
  outer loop
    vertex -7.619999999999999 0.0 0.0
    vertex -7.184204896855323 7.184204896855323 0.0
    vertex -8.798818102449893 5.0800000000000045 0.0
  endloop
endfacet
facet normal 0.0 0.0 1.0
  outer loop
    vertex -7.184204896855323 7.184204896855323 0.0
    vertex -7.619999999999999 0.0 0.0
    vertex -7.360354796322698 1.9722011236812136 0.0
  endloop
endfacet
facet normal 0.0 0.0 1.0
  outer loop
    vertex -7.184204896855323 7.184204896855323 0.0
    vertex -7.360354796322698 1.9722011236812136 0.0
    vertex -6.59911357683742 3.810000000000003 0.0
  endloop
endfacet
facet normal 0.0 0.0 1.0
  outer loop
    vertex -7.184204896855323 7.184204896855323 0.0
    vertex -6.59911357683742 3.810000000000003 0.0
    vertex -5.079999999999993 8.798818102449902 0.0
  endloop
endfacet
facet normal 0.0 0.0 1.0
  outer loop
    vertex -5.079999999999993 8.798818102449902 0.0
    vertex -6.59911357683742 3.810000000000003 0.0
    vertex -5.388153672641491 5.388153672641493 0.0
  endloop
endfacet
facet normal 0.0 0.0 1.0
  outer loop
    vertex -5.079999999999993 8.798818102449902 0.0
    vertex -5.388153672641491 5.388153672641493 0.0
    vertex -3.8099999999999947 6.599113576837423 0.0
  endloop
endfacet
facet normal 0.0 0.0 1.0
  outer loop
    vertex -5.079999999999993 8.798818102449902 0.0
    vertex -3.8099999999999947 6.599113576837423 0.0
    vertex -2.6296014982416063 9.813806395096936 0.0
  endloop
endfacet
facet normal 0.0 0.0 1.0
  outer loop
    vertex -2.6296014982416063 9.813806395096936 0.0
    vertex -3.8099999999999947 6.599113576837423 0.0
    vertex -1.9722011236812051 7.3603547963227 0.0
  endloop
endfacet
facet normal 0.0 0.0 1.0
  outer loop
    vertex -2.6296014982416063 9.813806395096936 0.0
    vertex -1.9722011236812051 7.3603547963227 0.0
    vertex 1.4099832412739487e-15 10.16 0.0
  endloop
endfacet
facet normal 0.0 0.0 1.0
  outer loop
    vertex 1.4099832412739487e-15 10.16 0.0
    vertex -1.9722011236812051 7.3603547963227 0.0
    vertex 1.4099832412739487e-15 7.619999999999997 0.0
  endloop
endfacet
facet normal 0.0 0.0 1.0
  outer loop
    vertex 1.4099832412739487e-15 10.16 0.0
    vertex 1.4099832412739487e-15 7.619999999999997 0.0
    vertex 1.9722011236812136 7.360354796322698 0.0
  endloop
endfacet
facet normal 0.0 0.0 1.0
  outer loop
    vertex 1.4099832412739487e-15 10.16 0.0
    vertex 1.9722011236812136 7.360354796322698 0.0
    vertex 2.629601498241619 9.813806395096933 0.0
  endloop
endfacet
facet normal 0.0 0.0 1.0
  outer loop
    vertex 2.629601498241619 9.813806395096933 0.0
    vertex 1.9722011236812136 7.360354796322698 0.0
    vertex 3.810000000000003 6.59911357683742 0.0
  endloop
endfacet
facet normal 0.0 0.0 1.0
  outer loop
    vertex 2.629601498241619 9.813806395096933 0.0
    vertex 3.810000000000003 6.59911357683742 0.0
    vertex 5.0800000000000045 8.798818102449893 0.0
  endloop
endfacet
facet normal 0.0 0.0 1.0
  outer loop
    vertex 5.0800000000000045 8.798818102449893 0.0
    vertex 3.810000000000003 6.59911357683742 0.0
    vertex 5.388153672641495 5.38815367264149 0.0
  endloop
endfacet
facet normal 0.0 0.0 1.0
  outer loop
    vertex 5.0800000000000045 8.798818102449893 0.0
    vertex 5.388153672641495 5.38815367264149 0.0
    vertex 7.184204896855328 7.1842048968553165 0.0
  endloop
endfacet
facet normal 0.0 0.0 1.0
  outer loop
    vertex 7.184204896855328 7.1842048968553165 0.0
    vertex 5.388153672641495 5.38815367264149 0.0
    vertex 6.599113576837423 3.8099999999999974 0.0
  endloop
endfacet
facet normal 0.0 0.0 1.0
  outer loop
    vertex 7.184204896855328 7.1842048968553165 0.0
    vertex 6.599113576837423 3.8099999999999974 0.0
    vertex 7.3603547963227 1.9722011236812051 0.0
  endloop
endfacet
facet normal 0.0 0.0 1.0
  outer loop
    vertex 7.184204896855328 7.1842048968553165 0.0
    vertex 7.3603547963227 1.9722011236812051 0.0
    vertex 8.798818102449898 5.079999999999998 0.0
  endloop
endfacet
facet normal 0.0 0.0 1.0
  outer loop
    vertex 8.798818102449898 5.079999999999998 0.0
    vertex 7.3603547963227 1.9722011236812051 0.0
    vertex 7.619999999999997 -1.4099832412739487e-15 0.0
  endloop
endfacet
facet normal 0.0 0.0 1.0
  outer loop
    vertex 8.798818102449898 5.079999999999998 0.0
    vertex 7.619999999999997 -1.4099832412739487e-15 0.0
    vertex 8.798818102449896 -5.080000000000004 0.0
  endloop
endfacet
facet normal 0.0 0.0 1.0
  outer loop
    vertex 8.798818102449898 5.079999999999998 0.0
    vertex 8.798818102449896 -5.080000000000004 0.0
    vertex 9.813806395096933 -2.6296014982416134 0.0
  endloop
endfacet
facet normal 0.0 0.0 1.0
  outer loop
    vertex 8.798818102449898 5.079999999999998 0.0
    vertex 9.813806395096933 -2.6296014982416134 0.0
    vertex 9.813806395096936 2.6296014982416076 0.0
  endloop
endfacet
facet normal 0.0 0.0 1.0
  outer loop
    vertex 9.813806395096936 2.6296014982416076 0.0
    vertex 9.813806395096933 -2.6296014982416134 0.0
    vertex 10.16 -1.4099832412739487e-15 0.0
  endloop
endfacet
endsolid housing-top
