solid housing-top
facet normal 0.0 0.0 -1.0
  outer loop
    vertex -1.9465214215499387 7.2645168432455804 0.0
    vertex -2.3812499999999996 0.0 0.0
    vertex -3.760390624999998 6.513187618805686 0.0
  endloop
endfacet
facet normal 0.0 0.0 -1.0
  outer loop
    vertex -2.3812499999999996 0.0 0.0
    vertex -1.9465214215499387 7.2645168432455804 0.0
    vertex -2.3001108738508433 0.6163128511503796 0.0
  endloop
endfacet
facet normal 0.0 0.0 -1.0
  outer loop
    vertex -2.3001108738508433 0.6163128511503796 0.0
    vertex -1.9465214215499387 7.2645168432455804 0.0
    vertex -2.062222992761694 1.1906250000000014 0.0
  endloop
endfacet
facet normal 0.0 0.0 -1.0
  outer loop
    vertex -2.062222992761694 1.1906250000000014 0.0
    vertex -1.9465214215499387 7.2645168432455804 0.0
    vertex -1.6837980227004656 1.6837980227004672 0.0
  endloop
endfacet
facet normal 0.0 0.0 -1.0
  outer loop
    vertex -1.6837980227004656 1.6837980227004672 0.0
    vertex -1.9465214215499387 7.2645168432455804 0.0
    vertex 1.4099832412739487e-15 7.520781249999996 0.0
  endloop
endfacet
facet normal 0.0 0.0 -1.0
  outer loop
    vertex -1.6837980227004656 1.6837980227004672 0.0
    vertex 1.4099832412739487e-15 7.520781249999996 0.0
    vertex -1.1906249999999992 2.0622229927616944 0.0
  endloop
endfacet
facet normal 0.0 0.0 -1.0
  outer loop
    vertex -1.1906249999999992 2.0622229927616944 0.0
    vertex 1.4099832412739487e-15 7.520781249999996 0.0
    vertex -0.6163128511503768 2.300110873850844 0.0
  endloop
endfacet
facet normal 0.0 0.0 -1.0
  outer loop
    vertex -0.6163128511503768 2.300110873850844 0.0
    vertex 1.4099832412739487e-15 7.520781249999996 0.0
    vertex 0.0 2.3812499999999996 0.0
  endloop
endfacet
facet normal 0.0 0.0 -1.0
  outer loop
    vertex 0.0 2.3812499999999996 0.0
    vertex 1.4099832412739487e-15 7.520781249999996 0.0
    vertex 0.6163128511503781 2.300110873850844 0.0
  endloop
endfacet
facet normal 0.0 0.0 -1.0
  outer loop
    vertex 0.6163128511503781 2.300110873850844 0.0
    vertex 1.4099832412739487e-15 7.520781249999996 0.0
    vertex 1.9465214215499445 7.2645168432455804 0.0
  endloop
endfacet
facet normal 0.0 0.0 -1.0
  outer loop
    vertex 0.6163128511503781 2.300110873850844 0.0
    vertex 1.9465214215499445 7.2645168432455804 0.0
    vertex 1.1906250000000014 2.0622229927616944 0.0
  endloop
endfacet
facet normal 0.0 0.0 -1.0
  outer loop
    vertex 1.1906250000000014 2.0622229927616944 0.0
    vertex 1.9465214215499445 7.2645168432455804 0.0
    vertex 1.6837980227004672 1.6837980227004656 0.0
  endloop
endfacet
facet normal 0.0 0.0 -1.0
  outer loop
    vertex 1.6837980227004672 1.6837980227004656 0.0
    vertex 1.9465214215499445 7.2645168432455804 0.0
    vertex 2.0622229927616944 1.1906249999999998 0.0
  endloop
endfacet
facet normal 0.0 0.0 -1.0
  outer loop
    vertex 2.0622229927616944 1.1906249999999998 0.0
    vertex 1.9465214215499445 7.2645168432455804 0.0
    vertex 3.7603906250000017 6.513187618805683 0.0
  endloop
endfacet
facet normal 0.0 0.0 -1.0
  outer loop
    vertex 2.0622229927616944 1.1906249999999998 0.0
    vertex 3.7603906250000017 6.513187618805683 0.0
    vertex 2.300110873850844 0.6163128511503768 0.0
  endloop
endfacet
facet normal 0.0 0.0 -1.0
  outer loop
    vertex 2.300110873850844 0.6163128511503768 0.0
    vertex 3.7603906250000017 6.513187618805683 0.0
    vertex 2.3812499999999996 0.0 0.0
  endloop
endfacet
facet normal 0.0 0.0 -1.0
  outer loop
    vertex 2.3812499999999996 0.0 0.0
    vertex 3.7603906250000017 6.513187618805683 0.0
    vertex 3.760390624999999 -6.513187618805684 0.0
  endloop
endfacet
facet normal 0.0 0.0 -1.0
  outer loop
    vertex 3.760390624999999 -6.513187618805684 0.0
    vertex 3.7603906250000017 6.513187618805683 0.0
    vertex 5.317995421695637 -5.317995421695639 0.0
  endloop
endfacet
facet normal 0.0 0.0 -1.0
  outer loop
    vertex 5.317995421695637 -5.317995421695639 0.0
    vertex 3.7603906250000017 6.513187618805683 0.0
    vertex 5.317995421695641 5.317995421695637 0.0
  endloop
endfacet
facet normal 0.0 0.0 -1.0
  outer loop
    vertex 5.317995421695637 -5.317995421695639 0.0
    vertex 5.317995421695641 5.317995421695637 0.0
    vertex 6.513187618805686 -3.7603906250000003 0.0
  endloop
endfacet
facet normal 0.0 0.0 -1.0
  outer loop
    vertex 6.513187618805686 -3.7603906250000003 0.0
    vertex 5.317995421695641 5.317995421695637 0.0
    vertex 6.513187618805686 3.760390624999999 0.0
  endloop
endfacet
facet normal 0.0 0.0 -1.0
  outer loop
    vertex 6.513187618805686 -3.7603906250000003 0.0
    vertex 6.513187618805686 3.760390624999999 0.0
    vertex 7.2645168432455804 1.9465214215499416 0.0
  endloop
endfacet
facet normal 0.0 0.0 -1.0
  outer loop
    vertex 6.513187618805686 -3.7603906250000003 0.0
    vertex 7.2645168432455804 1.9465214215499416 0.0
    vertex 7.2645168432455804 -1.9465214215499438 0.0
  endloop
endfacet
facet normal 0.0 0.0 -1.0
  outer loop
    vertex 7.2645168432455804 -1.9465214215499438 0.0
    vertex 7.2645168432455804 1.9465214215499416 0.0
    vertex 7.520781249999999 0.0 0.0
  endloop
endfacet
facet normal 0.0 0.0 -1.0
  outer loop
    vertex -7.26451684324558 1.9465214215499471 0.0
    vertex -7.264516843245582 -1.9465214215499387 0.0
    vertex -7.520781249999999 1.4099832412739487e-15 0.0
  endloop
endfacet
facet normal 0.0 0.0 -1.0
  outer loop
    vertex -7.264516843245582 -1.9465214215499387 0.0
    vertex -7.26451684324558 1.9465214215499471 0.0
    vertex -6.513187618805688 -3.760390624999994 0.0
  endloop
endfacet
facet normal 0.0 0.0 -1.0
  outer loop
    vertex -6.513187618805688 -3.760390624999994 0.0
    vertex -7.26451684324558 1.9465214215499471 0.0
    vertex -6.513187618805683 3.760390625000003 0.0
  endloop
endfacet
facet normal 0.0 0.0 -1.0
  outer loop
    vertex -6.513187618805688 -3.760390624999994 0.0
    vertex -6.513187618805683 3.760390625000003 0.0
    vertex -5.31799542169564 -5.317995421695638 0.0
  endloop
endfacet
facet normal 0.0 0.0 -1.0
  outer loop
    vertex -5.31799542169564 -5.317995421695638 0.0
    vertex -6.513187618805683 3.760390625000003 0.0
    vertex -5.3179954216956355 5.317995421695641 0.0
  endloop
endfacet
facet normal 0.0 0.0 -1.0
  outer loop
    vertex -5.31799542169564 -5.317995421695638 0.0
    vertex -5.3179954216956355 5.317995421695641 0.0
    vertex -3.760390625000003 -6.513187618805683 0.0
  endloop
endfacet
facet normal 0.0 0.0 -1.0
  outer loop
    vertex -3.760390625000003 -6.513187618805683 0.0
    vertex -5.3179954216956355 5.317995421695641 0.0
    vertex -3.760390624999998 6.513187618805686 0.0
  endloop
endfacet
facet normal 0.0 0.0 -1.0
  outer loop
    vertex -3.760390625000003 -6.513187618805683 0.0
    vertex -3.760390624999998 6.513187618805686 0.0
    vertex -1.946521421549948 -7.26451684324558 0.0
  endloop
endfacet
facet normal 0.0 0.0 -1.0
  outer loop
    vertex -1.946521421549948 -7.26451684324558 0.0
    vertex -3.760390624999998 6.513187618805686 0.0
    vertex -2.3812499999999996 0.0 0.0
  endloop
endfacet
facet normal 0.0 0.0 -1.0
  outer loop
    vertex -1.946521421549948 -7.26451684324558 0.0
    vertex -2.3812499999999996 0.0 0.0
    vertex -2.300110873850844 -0.6163128511503768 0.0
  endloop
endfacet
facet normal 0.0 0.0 -1.0
  outer loop
    vertex -1.946521421549948 -7.26451684324558 0.0
    vertex -2.300110873850844 -0.6163128511503768 0.0
    vertex -2.0622229927616953 -1.1906249999999985 0.0
  endloop
endfacet
facet normal 0.0 0.0 -1.0
  outer loop
    vertex -1.946521421549948 -7.26451684324558 0.0
    vertex -2.0622229927616953 -1.1906249999999985 0.0
    vertex -1.6837980227004663 -1.6837980227004656 0.0
  endloop
endfacet
facet normal 0.0 0.0 -1.0
  outer loop
    vertex -1.946521421549948 -7.26451684324558 0.0
    vertex -1.6837980227004663 -1.6837980227004656 0.0
    vertex 0.0 -7.520781249999999 0.0
  endloop
endfacet
facet normal 0.0 0.0 -1.0
  outer loop
    vertex 0.0 -7.520781249999999 0.0
    vertex -1.6837980227004663 -1.6837980227004656 0.0
    vertex -1.1906250000000014 -2.062222992761694 0.0
  endloop
endfacet
facet normal 0.0 0.0 -1.0
  outer loop
    vertex 0.0 -7.520781249999999 0.0
    vertex -1.1906250000000014 -2.062222992761694 0.0
    vertex -0.6163128511503796 -2.3001108738508433 0.0
  endloop
endfacet
facet normal 0.0 0.0 -1.0
  outer loop
    vertex 0.0 -7.520781249999999 0.0
    vertex -0.6163128511503796 -2.3001108738508433 0.0
    vertex 0.0 -2.3812499999999996 0.0
  endloop
endfacet
facet normal 0.0 0.0 -1.0
  outer loop
    vertex 0.0 -7.520781249999999 0.0
    vertex 0.0 -2.3812499999999996 0.0
    vertex 0.6163128511503768 -2.300110873850844 0.0
  endloop
endfacet
facet normal 0.0 0.0 -1.0
  outer loop
    vertex 0.0 -7.520781249999999 0.0
    vertex 0.6163128511503768 -2.300110873850844 0.0
    vertex 1.9465214215499416 -7.2645168432455804 0.0
  endloop
endfacet
facet normal 0.0 0.0 -1.0
  outer loop
    vertex 1.9465214215499416 -7.2645168432455804 0.0
    vertex 0.6163128511503768 -2.300110873850844 0.0
    vertex 1.1906249999999998 -2.0622229927616944 0.0
  endloop
endfacet
facet normal 0.0 0.0 -1.0
  outer loop
    vertex 1.9465214215499416 -7.2645168432455804 0.0
    vertex 1.1906249999999998 -2.0622229927616944 0.0
    vertex 1.6837980227004656 -1.6837980227004663 0.0
  endloop
endfacet
facet normal 0.0 0.0 -1.0
  outer loop
    vertex 1.9465214215499416 -7.2645168432455804 0.0
    vertex 1.6837980227004656 -1.6837980227004663 0.0
    vertex 2.0622229927616944 -1.1906249999999998 0.0
  endloop
endfacet
facet normal 0.0 0.0 -1.0
  outer loop
    vertex 1.9465214215499416 -7.2645168432455804 0.0
    vertex 2.0622229927616944 -1.1906249999999998 0.0
    vertex 3.760390624999999 -6.513187618805684 0.0
  endloop
endfacet
facet normal 0.0 0.0 -1.0
  outer loop
    vertex 3.760390624999999 -6.513187618805684 0.0
    vertex 2.0622229927616944 -1.1906249999999998 0.0
    vertex 2.300110873850844 -0.6163128511503781 0.0
  endloop
endfacet
facet normal 0.0 0.0 -1.0
  outer loop
    vertex 3.760390624999999 -6.513187618805684 0.0
    vertex 2.300110873850844 -0.6163128511503781 0.0
    vertex 2.3812499999999996 0.0 0.0
  endloop
endfacet
facet normal 0.0 0.0 1.0
  outer loop
    vertex -7.264516843245582 -1.9465214215499387 12.7
    vertex -7.26451684324558 1.9465214215499471 12.7
    vertex -7.520781249999999 1.4099832412739487e-15 12.7
  endloop
endfacet
facet normal 0.0 0.0 1.0
  outer loop
    vertex -7.26451684324558 1.9465214215499471 12.7
    vertex -7.264516843245582 -1.9465214215499387 12.7
    vertex -6.513187618805688 -3.760390624999994 12.7
  endloop
endfacet
facet normal 0.0 0.0 1.0
  outer loop
    vertex -7.26451684324558 1.9465214215499471 12.7
    vertex -6.513187618805688 -3.760390624999994 12.7
    vertex -6.513187618805683 3.760390625000003 12.7
  endloop
endfacet
facet normal 0.0 0.0 1.0
  outer loop
    vertex -6.513187618805683 3.760390625000003 12.7
    vertex -6.513187618805688 -3.760390624999994 12.7
    vertex -5.31799542169564 -5.317995421695638 12.7
  endloop
endfacet
facet normal 0.0 0.0 1.0
  outer loop
    vertex -6.513187618805683 3.760390625000003 12.7
    vertex -5.31799542169564 -5.317995421695638 12.7
    vertex -5.3179954216956355 5.317995421695641 12.7
  endloop
endfacet
facet normal 0.0 0.0 1.0
  outer loop
    vertex -5.3179954216956355 5.317995421695641 12.7
    vertex -5.31799542169564 -5.317995421695638 12.7
    vertex -3.760390625000003 -6.513187618805683 12.7
  endloop
endfacet
facet normal 0.0 0.0 1.0
  outer loop
    vertex -5.3179954216956355 5.317995421695641 12.7
    vertex -3.760390625000003 -6.513187618805683 12.7
    vertex -3.760390624999998 6.513187618805686 12.7
  endloop
endfacet
facet normal 0.0 0.0 1.0
  outer loop
    vertex -3.760390624999998 6.513187618805686 12.7
    vertex -3.760390625000003 -6.513187618805683 12.7
    vertex -1.946521421549948 -7.26451684324558 12.7
  endloop
endfacet
facet normal 0.0 0.0 1.0
  outer loop
    vertex -3.760390624999998 6.513187618805686 12.7
    vertex -1.946521421549948 -7.26451684324558 12.7
    vertex -2.3812499999999996 0.0 12.7
  endloop
endfacet
facet normal 0.0 0.0 1.0
  outer loop
    vertex -2.3812499999999996 0.0 12.7
    vertex -1.946521421549948 -7.26451684324558 12.7
    vertex -2.300110873850844 -0.6163128511503768 12.7
  endloop
endfacet
facet normal 0.0 0.0 1.0
  outer loop
    vertex -2.300110873850844 -0.6163128511503768 12.7
    vertex -1.946521421549948 -7.26451684324558 12.7
    vertex -2.0622229927616953 -1.1906249999999985 12.7
  endloop
endfacet
facet normal 0.0 0.0 1.0
  outer loop
    vertex -2.0622229927616953 -1.1906249999999985 12.7
    vertex -1.946521421549948 -7.26451684324558 12.7
    vertex -1.6837980227004663 -1.6837980227004656 12.7
  endloop
endfacet
facet normal 0.0 0.0 1.0
  outer loop
    vertex -1.6837980227004663 -1.6837980227004656 12.7
    vertex -1.946521421549948 -7.26451684324558 12.7
    vertex 0.0 -7.520781249999999 12.7
  endloop
endfacet
facet normal 0.0 0.0 1.0
  outer loop
    vertex -1.6837980227004663 -1.6837980227004656 12.7
    vertex 0.0 -7.520781249999999 12.7
    vertex -1.1906250000000014 -2.062222992761694 12.7
  endloop
endfacet
facet normal 0.0 0.0 1.0
  outer loop
    vertex -1.1906250000000014 -2.062222992761694 12.7
    vertex 0.0 -7.520781249999999 12.7
    vertex -0.6163128511503796 -2.3001108738508433 12.7
  endloop
endfacet
facet normal 0.0 0.0 1.0
  outer loop
    vertex -0.6163128511503796 -2.3001108738508433 12.7
    vertex 0.0 -7.520781249999999 12.7
    vertex 0.0 -2.3812499999999996 12.7
  endloop
endfacet
facet normal 0.0 0.0 1.0
  outer loop
    vertex 0.0 -2.3812499999999996 12.7
    vertex 0.0 -7.520781249999999 12.7
    vertex 1.9465214215499416 -7.2645168432455804 12.7
  endloop
endfacet
facet normal 0.0 0.0 1.0
  outer loop
    vertex 0.0 -2.3812499999999996 12.7
    vertex 1.9465214215499416 -7.2645168432455804 12.7
    vertex 0.6163128511503768 -2.300110873850844 12.7
  endloop
endfacet
facet normal 0.0 0.0 1.0
  outer loop
    vertex 0.6163128511503768 -2.300110873850844 12.7
    vertex 1.9465214215499416 -7.2645168432455804 12.7
    vertex 1.1906249999999998 -2.0622229927616944 12.7
  endloop
endfacet
facet normal 0.0 0.0 1.0
  outer loop
    vertex 1.1906249999999998 -2.0622229927616944 12.7
    vertex 1.9465214215499416 -7.2645168432455804 12.7
    vertex 1.6837980227004656 -1.6837980227004663 12.7
  endloop
endfacet
facet normal 0.0 0.0 1.0
  outer loop
    vertex 1.6837980227004656 -1.6837980227004663 12.7
    vertex 1.9465214215499416 -7.2645168432455804 12.7
    vertex 2.0622229927616944 -1.1906249999999998 12.7
  endloop
endfacet
facet normal 0.0 0.0 1.0
  outer loop
    vertex 2.0622229927616944 -1.1906249999999998 12.7
    vertex 1.9465214215499416 -7.2645168432455804 12.7
    vertex 3.760390624999999 -6.513187618805684 12.7
  endloop
endfacet
facet normal 0.0 0.0 1.0
  outer loop
    vertex 2.0622229927616944 -1.1906249999999998 12.7
    vertex 3.760390624999999 -6.513187618805684 12.7
    vertex 2.300110873850844 -0.6163128511503781 12.7
  endloop
endfacet
facet normal 0.0 0.0 1.0
  outer loop
    vertex 2.300110873850844 -0.6163128511503781 12.7
    vertex 3.760390624999999 -6.513187618805684 12.7
    vertex 2.3812499999999996 0.0 12.7
  endloop
endfacet
facet normal 0.0 0.0 1.0
  outer loop
    vertex -2.3812499999999996 0.0 12.7
    vertex -1.9465214215499387 7.2645168432455804 12.7
    vertex -3.760390624999998 6.513187618805686 12.7
  endloop
endfacet
facet normal 0.0 0.0 1.0
  outer loop
    vertex -1.9465214215499387 7.2645168432455804 12.7
    vertex -2.3812499999999996 0.0 12.7
    vertex -2.3001108738508433 0.6163128511503796 12.7
  endloop
endfacet
facet normal 0.0 0.0 1.0
  outer loop
    vertex -1.9465214215499387 7.2645168432455804 12.7
    vertex -2.3001108738508433 0.6163128511503796 12.7
    vertex -2.062222992761694 1.1906250000000014 12.7
  endloop
endfacet
facet normal 0.0 0.0 1.0
  outer loop
    vertex -1.9465214215499387 7.2645168432455804 12.7
    vertex -2.062222992761694 1.1906250000000014 12.7
    vertex -1.6837980227004656 1.6837980227004672 12.7
  endloop
endfacet
facet normal 0.0 0.0 1.0
  outer loop
    vertex -1.9465214215499387 7.2645168432455804 12.7
    vertex -1.6837980227004656 1.6837980227004672 12.7
    vertex 1.4099832412739487e-15 7.520781249999996 12.7
  endloop
endfacet
facet normal 0.0 0.0 1.0
  outer loop
    vertex 1.4099832412739487e-15 7.520781249999996 12.7
    vertex -1.6837980227004656 1.6837980227004672 12.7
    vertex -1.1906249999999992 2.0622229927616944 12.7
  endloop
endfacet
facet normal 0.0 0.0 1.0
  outer loop
    vertex 1.4099832412739487e-15 7.520781249999996 12.7
    vertex -1.1906249999999992 2.0622229927616944 12.7
    vertex -0.6163128511503768 2.300110873850844 12.7
  endloop
endfacet
facet normal 0.0 0.0 1.0
  outer loop
    vertex 1.4099832412739487e-15 7.520781249999996 12.7
    vertex -0.6163128511503768 2.300110873850844 12.7
    vertex 0.0 2.3812499999999996 12.7
  endloop
endfacet
facet normal 0.0 0.0 1.0
  outer loop
    vertex 1.4099832412739487e-15 7.520781249999996 12.7
    vertex 0.0 2.3812499999999996 12.7
    vertex 0.6163128511503781 2.300110873850844 12.7
  endloop
endfacet
facet normal 0.0 0.0 1.0
  outer loop
    vertex 1.4099832412739487e-15 7.520781249999996 12.7
    vertex 0.6163128511503781 2.300110873850844 12.7
    vertex 1.9465214215499445 7.2645168432455804 12.7
  endloop
endfacet
facet normal 0.0 0.0 1.0
  outer loop
    vertex 1.9465214215499445 7.2645168432455804 12.7
    vertex 0.6163128511503781 2.300110873850844 12.7
    vertex 1.1906250000000014 2.0622229927616944 12.7
  endloop
endfacet
facet normal 0.0 0.0 1.0
  outer loop
    vertex 1.9465214215499445 7.2645168432455804 12.7
    vertex 1.1906250000000014 2.0622229927616944 12.7
    vertex 1.6837980227004672 1.6837980227004656 12.7
  endloop
endfacet
facet normal 0.0 0.0 1.0
  outer loop
    vertex 1.9465214215499445 7.2645168432455804 12.7
    vertex 1.6837980227004672 1.6837980227004656 12.7
    vertex 2.0622229927616944 1.1906249999999998 12.7
  endloop
endfacet
facet normal 0.0 0.0 1.0
  outer loop
    vertex 1.9465214215499445 7.2645168432455804 12.7
    vertex 2.0622229927616944 1.1906249999999998 12.7
    vertex 3.7603906250000017 6.513187618805683 12.7
  endloop
endfacet
facet normal 0.0 0.0 1.0
  outer loop
    vertex 3.7603906250000017 6.513187618805683 12.7
    vertex 2.0622229927616944 1.1906249999999998 12.7
    vertex 2.300110873850844 0.6163128511503768 12.7
  endloop
endfacet
facet normal 0.0 0.0 1.0
  outer loop
    vertex 3.7603906250000017 6.513187618805683 12.7
    vertex 2.300110873850844 0.6163128511503768 12.7
    vertex 2.3812499999999996 0.0 12.7
  endloop
endfacet
facet normal 0.0 0.0 1.0
  outer loop
    vertex 3.7603906250000017 6.513187618805683 12.7
    vertex 2.3812499999999996 0.0 12.7
    vertex 3.760390624999999 -6.513187618805684 12.7
  endloop
endfacet
facet normal 0.0 0.0 1.0
  outer loop
    vertex 3.7603906250000017 6.513187618805683 12.7
    vertex 3.760390624999999 -6.513187618805684 12.7
    vertex 5.317995421695637 -5.317995421695639 12.7
  endloop
endfacet
facet normal 0.0 0.0 1.0
  outer loop
    vertex 3.7603906250000017 6.513187618805683 12.7
    vertex 5.317995421695637 -5.317995421695639 12.7
    vertex 5.317995421695641 5.317995421695637 12.7
  endloop
endfacet
facet normal 0.0 0.0 1.0
  outer loop
    vertex 5.317995421695641 5.317995421695637 12.7
    vertex 5.317995421695637 -5.317995421695639 12.7
    vertex 6.513187618805686 -3.7603906250000003 12.7
  endloop
endfacet
facet normal 0.0 0.0 1.0
  outer loop
    vertex 5.317995421695641 5.317995421695637 12.7
    vertex 6.513187618805686 -3.7603906250000003 12.7
    vertex 6.513187618805686 3.760390624999999 12.7
  endloop
endfacet
facet normal 0.0 0.0 1.0
  outer loop
    vertex 6.513187618805686 3.760390624999999 12.7
    vertex 6.513187618805686 -3.7603906250000003 12.7
    vertex 7.2645168432455804 -1.9465214215499438 12.7
  endloop
endfacet
facet normal 0.0 0.0 1.0
  outer loop
    vertex 6.513187618805686 3.760390624999999 12.7
    vertex 7.2645168432455804 -1.9465214215499438 12.7
    vertex 7.2645168432455804 1.9465214215499416 12.7
  endloop
endfacet
facet normal 0.0 0.0 1.0
  outer loop
    vertex 7.2645168432455804 1.9465214215499416 12.7
    vertex 7.2645168432455804 -1.9465214215499438 12.7
    vertex 7.520781249999999 0.0 12.7
  endloop
endfacet
facet normal -0.13052619222005216 -0.9914448613738104 -0.0
  outer loop
    vertex 0.0 -7.520781249999999 12.7
    vertex -1.946521421549948 -7.26451684324558 0.0
    vertex 0.0 -7.520781249999999 0.0
  endloop
endfacet
facet normal -0.13052619222005216 -0.9914448613738104 -0.0
  outer loop
    vertex -1.946521421549948 -7.26451684324558 0.0
    vertex 0.0 -7.520781249999999 12.7
    vertex -1.946521421549948 -7.26451684324558 12.7
  endloop
endfacet
facet normal -0.38268343236508995 -0.9238795325112866 -0.0
  outer loop
    vertex -1.946521421549948 -7.26451684324558 12.7
    vertex -3.760390625000003 -6.513187618805683 0.0
    vertex -1.946521421549948 -7.26451684324558 0.0
  endloop
endfacet
facet normal -0.38268343236508995 -0.9238795325112866 -0.0
  outer loop
    vertex -3.760390625000003 -6.513187618805683 0.0
    vertex -1.946521421549948 -7.26451684324558 12.7
    vertex -3.760390625000003 -6.513187618805683 12.7
  endloop
endfacet
facet normal -0.9914448613738103 0.13052619222005227 0.0
  outer loop
    vertex -7.26451684324558 1.9465214215499471 12.7
    vertex -7.520781249999999 1.4099832412739487e-15 0.0
    vertex -7.520781249999999 1.4099832412739487e-15 12.7
  endloop
endfacet
facet normal -0.9914448613738103 0.13052619222005227 0.0
  outer loop
    vertex -7.520781249999999 1.4099832412739487e-15 0.0
    vertex -7.26451684324558 1.9465214215499471 12.7
    vertex -7.26451684324558 1.9465214215499471 0.0
  endloop
endfacet
facet normal -0.9238795325112868 0.38268343236508995 0.0
  outer loop
    vertex -6.513187618805683 3.760390625000003 12.7
    vertex -7.26451684324558 1.9465214215499471 0.0
    vertex -7.26451684324558 1.9465214215499471 12.7
  endloop
endfacet
facet normal -0.9238795325112868 0.38268343236508995 0.0
  outer loop
    vertex -7.26451684324558 1.9465214215499471 0.0
    vertex -6.513187618805683 3.760390625000003 12.7
    vertex -6.513187618805683 3.760390625000003 0.0
  endloop
endfacet
facet normal -0.7933533402912346 0.6087614290087213 0.0
  outer loop
    vertex -5.3179954216956355 5.317995421695641 12.7
    vertex -6.513187618805683 3.760390625000003 0.0
    vertex -6.513187618805683 3.760390625000003 12.7
  endloop
endfacet
facet normal -0.7933533402912346 0.6087614290087213 0.0
  outer loop
    vertex -6.513187618805683 3.760390625000003 0.0
    vertex -5.3179954216956355 5.317995421695641 12.7
    vertex -5.3179954216956355 5.317995421695641 0.0
  endloop
endfacet
facet normal -0.608761429008721 -0.7933533402912349 -0.0
  outer loop
    vertex -3.760390625000003 -6.513187618805683 12.7
    vertex -5.31799542169564 -5.317995421695638 0.0
    vertex -3.760390625000003 -6.513187618805683 0.0
  endloop
endfacet
facet normal -0.608761429008721 -0.7933533402912349 -0.0
  outer loop
    vertex -5.31799542169564 -5.317995421695638 0.0
    vertex -3.760390625000003 -6.513187618805683 12.7
    vertex -5.31799542169564 -5.317995421695638 12.7
  endloop
endfacet
facet normal -0.13052619222005052 0.9914448613738105 0.0
  outer loop
    vertex -1.9465214215499387 7.2645168432455804 12.7
    vertex 1.4099832412739487e-15 7.520781249999996 0.0
    vertex -1.9465214215499387 7.2645168432455804 0.0
  endloop
endfacet
facet normal -0.13052619222005052 0.9914448613738105 0.0
  outer loop
    vertex 1.4099832412739487e-15 7.520781249999996 0.0
    vertex -1.9465214215499387 7.2645168432455804 12.7
    vertex 1.4099832412739487e-15 7.520781249999996 12.7
  endloop
endfacet
facet normal -0.923879532511287 -0.38268343236508934 -0.0
  outer loop
    vertex -7.264516843245582 -1.9465214215499387 12.7
    vertex -6.513187618805688 -3.760390624999994 0.0
    vertex -6.513187618805688 -3.760390624999994 12.7
  endloop
endfacet
facet normal -0.923879532511287 -0.38268343236508934 -0.0
  outer loop
    vertex -6.513187618805688 -3.760390624999994 0.0
    vertex -7.264516843245582 -1.9465214215499387 12.7
    vertex -7.264516843245582 -1.9465214215499387 0.0
  endloop
endfacet
facet normal -0.7933533402912356 -0.6087614290087199 -0.0
  outer loop
    vertex -6.513187618805688 -3.760390624999994 12.7
    vertex -5.31799542169564 -5.317995421695638 0.0
    vertex -5.31799542169564 -5.317995421695638 12.7
  endloop
endfacet
facet normal -0.7933533402912356 -0.6087614290087199 -0.0
  outer loop
    vertex -5.31799542169564 -5.317995421695638 0.0
    vertex -6.513187618805688 -3.760390624999994 12.7
    vertex -6.513187618805688 -3.760390624999994 0.0
  endloop
endfacet
facet normal -0.3826834323650892 0.923879532511287 0.0
  outer loop
    vertex -3.760390624999998 6.513187618805686 12.7
    vertex -1.9465214215499387 7.2645168432455804 0.0
    vertex -3.760390624999998 6.513187618805686 0.0
  endloop
endfacet
facet normal -0.3826834323650892 0.923879532511287 0.0
  outer loop
    vertex -1.9465214215499387 7.2645168432455804 0.0
    vertex -3.760390624999998 6.513187618805686 12.7
    vertex -1.9465214215499387 7.2645168432455804 12.7
  endloop
endfacet
facet normal -0.6087614290087207 0.7933533402912353 0.0
  outer loop
    vertex -5.3179954216956355 5.317995421695641 12.7
    vertex -3.760390624999998 6.513187618805686 0.0
    vertex -5.3179954216956355 5.317995421695641 0.0
  endloop
endfacet
facet normal -0.6087614290087207 0.7933533402912353 0.0
  outer loop
    vertex -3.760390624999998 6.513187618805686 0.0
    vertex -5.3179954216956355 5.317995421695641 12.7
    vertex -3.760390624999998 6.513187618805686 12.7
  endloop
endfacet
facet normal -0.9914448613738105 -0.13052619222005124 -0.0
  outer loop
    vertex -7.520781249999999 1.4099832412739487e-15 12.7
    vertex -7.264516843245582 -1.9465214215499387 0.0
    vertex -7.264516843245582 -1.9465214215499387 12.7
  endloop
endfacet
facet normal -0.9914448613738105 -0.13052619222005124 -0.0
  outer loop
    vertex -7.264516843245582 -1.9465214215499387 0.0
    vertex -7.520781249999999 1.4099832412739487e-15 12.7
    vertex -7.520781249999999 1.4099832412739487e-15 0.0
  endloop
endfacet
facet normal 0.1305261922200518 -0.9914448613738104 0.0
  outer loop
    vertex 1.9465214215499416 -7.2645168432455804 12.7
    vertex 0.0 -7.520781249999999 0.0
    vertex 1.9465214215499416 -7.2645168432455804 0.0
  endloop
endfacet
facet normal 0.1305261922200518 -0.9914448613738104 0.0
  outer loop
    vertex 0.0 -7.520781249999999 0.0
    vertex 1.9465214215499416 -7.2645168432455804 12.7
    vertex 0.0 -7.520781249999999 12.7
  endloop
endfacet
facet normal 0.1305261922200521 0.9914448613738104 0.0
  outer loop
    vertex -0.6163128511503796 -2.3001108738508433 12.7
    vertex 0.0 -2.3812499999999996 0.0
    vertex -0.6163128511503796 -2.3001108738508433 0.0
  endloop
endfacet
facet normal 0.1305261922200521 0.9914448613738104 0.0
  outer loop
    vertex 0.0 -2.3812499999999996 0.0
    vertex -0.6163128511503796 -2.3001108738508433 12.7
    vertex 0.0 -2.3812499999999996 12.7
  endloop
endfacet
facet normal 0.38268343236509034 0.9238795325112865 0.0
  outer loop
    vertex -1.1906250000000014 -2.062222992761694 12.7
    vertex -0.6163128511503796 -2.3001108738508433 0.0
    vertex -1.1906250000000014 -2.062222992761694 0.0
  endloop
endfacet
facet normal 0.38268343236509034 0.9238795325112865 0.0
  outer loop
    vertex -0.6163128511503796 -2.3001108738508433 0.0
    vertex -1.1906250000000014 -2.062222992761694 12.7
    vertex -0.6163128511503796 -2.3001108738508433 12.7
  endloop
endfacet
facet normal 0.7933533402912349 -0.608761429008721 0.0
  outer loop
    vertex -1.6837980227004656 1.6837980227004672 0.0
    vertex -2.062222992761694 1.1906250000000014 12.7
    vertex -2.062222992761694 1.1906250000000014 0.0
  endloop
endfacet
facet normal 0.7933533402912349 -0.608761429008721 0.0
  outer loop
    vertex -2.062222992761694 1.1906250000000014 12.7
    vertex -1.6837980227004656 1.6837980227004672 0.0
    vertex -1.6837980227004656 1.6837980227004672 12.7
  endloop
endfacet
facet normal 0.6087614290087204 -0.7933533402912355 0.0
  outer loop
    vertex -1.1906249999999992 2.0622229927616944 12.7
    vertex -1.6837980227004656 1.6837980227004672 0.0
    vertex -1.1906249999999992 2.0622229927616944 0.0
  endloop
endfacet
facet normal 0.6087614290087204 -0.7933533402912355 0.0
  outer loop
    vertex -1.6837980227004656 1.6837980227004672 0.0
    vertex -1.1906249999999992 2.0622229927616944 12.7
    vertex -1.6837980227004656 1.6837980227004672 12.7
  endloop
endfacet
facet normal 0.3826834323650892 -0.9238795325112871 0.0
  outer loop
    vertex -0.6163128511503768 2.300110873850844 12.7
    vertex -1.1906249999999992 2.0622229927616944 0.0
    vertex -0.6163128511503768 2.300110873850844 0.0
  endloop
endfacet
facet normal 0.3826834323650892 -0.9238795325112871 0.0
  outer loop
    vertex -1.1906249999999992 2.0622229927616944 0.0
    vertex -0.6163128511503768 2.300110873850844 12.7
    vertex -1.1906249999999992 2.0622229927616944 12.7
  endloop
endfacet
facet normal 0.13052619222005152 -0.9914448613738105 0.0
  outer loop
    vertex 0.0 2.3812499999999996 12.7
    vertex -0.6163128511503768 2.300110873850844 0.0
    vertex 0.0 2.3812499999999996 0.0
  endloop
endfacet
facet normal 0.13052619222005152 -0.9914448613738105 0.0
  outer loop
    vertex -0.6163128511503768 2.300110873850844 0.0
    vertex 0.0 2.3812499999999996 12.7
    vertex -0.6163128511503768 2.300110873850844 12.7
  endloop
endfacet
facet normal -0.13052619222005185 -0.9914448613738105 -0.0
  outer loop
    vertex 0.6163128511503781 2.300110873850844 12.7
    vertex 0.0 2.3812499999999996 0.0
    vertex 0.6163128511503781 2.300110873850844 0.0
  endloop
endfacet
facet normal -0.13052619222005185 -0.9914448613738105 -0.0
  outer loop
    vertex 0.0 2.3812499999999996 0.0
    vertex 0.6163128511503781 2.300110873850844 12.7
    vertex 0.0 2.3812499999999996 12.7
  endloop
endfacet
facet normal 0.923879532511287 0.3826834323650893 0.0
  outer loop
    vertex -2.300110873850844 -0.6163128511503768 0.0
    vertex -2.0622229927616953 -1.1906249999999985 12.7
    vertex -2.0622229927616953 -1.1906249999999985 0.0
  endloop
endfacet
facet normal 0.923879532511287 0.3826834323650893 0.0
  outer loop
    vertex -2.0622229927616953 -1.1906249999999985 12.7
    vertex -2.300110873850844 -0.6163128511503768 0.0
    vertex -2.300110873850844 -0.6163128511503768 12.7
  endloop
endfacet
facet normal 0.6087614290087208 0.793353340291235 0.0
  outer loop
    vertex -1.6837980227004663 -1.6837980227004656 12.7
    vertex -1.1906250000000014 -2.062222992761694 0.0
    vertex -1.6837980227004663 -1.6837980227004656 0.0
  endloop
endfacet
facet normal 0.6087614290087208 0.793353340291235 0.0
  outer loop
    vertex -1.1906250000000014 -2.062222992761694 0.0
    vertex -1.6837980227004663 -1.6837980227004656 12.7
    vertex -1.1906250000000014 -2.062222992761694 12.7
  endloop
endfacet
facet normal 0.7933533402912357 0.60876142900872 0.0
  outer loop
    vertex -2.0622229927616953 -1.1906249999999985 0.0
    vertex -1.6837980227004663 -1.6837980227004656 12.7
    vertex -1.6837980227004663 -1.6837980227004656 0.0
  endloop
endfacet
facet normal 0.7933533402912357 0.60876142900872 0.0
  outer loop
    vertex -1.6837980227004663 -1.6837980227004656 12.7
    vertex -2.0622229927616953 -1.1906249999999985 0.0
    vertex -2.0622229927616953 -1.1906249999999985 12.7
  endloop
endfacet
facet normal 0.9914448613738105 0.13052619222005152 0.0
  outer loop
    vertex -2.3812499999999996 0.0 0.0
    vertex -2.300110873850844 -0.6163128511503768 12.7
    vertex -2.300110873850844 -0.6163128511503768 0.0
  endloop
endfacet
facet normal 0.9914448613738105 0.13052619222005152 0.0
  outer loop
    vertex -2.300110873850844 -0.6163128511503768 12.7
    vertex -2.3812499999999996 0.0 0.0
    vertex -2.3812499999999996 0.0 12.7
  endloop
endfacet
facet normal 0.9914448613738104 -0.1305261922200522 0.0
  outer loop
    vertex -2.3001108738508433 0.6163128511503796 0.0
    vertex -2.3812499999999996 0.0 12.7
    vertex -2.3812499999999996 0.0 0.0
  endloop
endfacet
facet normal 0.9914448613738104 -0.1305261922200522 0.0
  outer loop
    vertex -2.3812499999999996 0.0 12.7
    vertex -2.3001108738508433 0.6163128511503796 0.0
    vertex -2.3001108738508433 0.6163128511503796 12.7
  endloop
endfacet
facet normal 0.9238795325112865 -0.3826834323650902 0.0
  outer loop
    vertex -2.062222992761694 1.1906250000000014 0.0
    vertex -2.3001108738508433 0.6163128511503796 12.7
    vertex -2.3001108738508433 0.6163128511503796 0.0
  endloop
endfacet
facet normal 0.9238795325112865 -0.3826834323650902 0.0
  outer loop
    vertex -2.3001108738508433 0.6163128511503796 12.7
    vertex -2.062222992761694 1.1906250000000014 0.0
    vertex -2.062222992761694 1.1906250000000014 12.7
  endloop
endfacet
facet normal -0.38268343236508984 -0.9238795325112866 -0.0
  outer loop
    vertex 1.1906250000000014 2.0622229927616944 12.7
    vertex 0.6163128511503781 2.300110873850844 0.0
    vertex 1.1906250000000014 2.0622229927616944 0.0
  endloop
endfacet
facet normal -0.38268343236508984 -0.9238795325112866 -0.0
  outer loop
    vertex 0.6163128511503781 2.300110873850844 0.0
    vertex 1.1906250000000014 2.0622229927616944 12.7
    vertex 0.6163128511503781 2.300110873850844 12.7
  endloop
endfacet
facet normal 0.9238795325112871 0.382683432365089 0.0
  outer loop
    vertex 6.513187618805686 3.760390624999999 0.0
    vertex 7.2645168432455804 1.9465214215499416 12.7
    vertex 7.2645168432455804 1.9465214215499416 0.0
  endloop
endfacet
facet normal 0.9238795325112871 0.382683432365089 0.0
  outer loop
    vertex 7.2645168432455804 1.9465214215499416 12.7
    vertex 6.513187618805686 3.760390624999999 0.0
    vertex 6.513187618805686 3.760390624999999 12.7
  endloop
endfacet
facet normal 0.793353340291235 0.6087614290087208 0.0
  outer loop
    vertex 5.317995421695641 5.317995421695637 0.0
    vertex 6.513187618805686 3.760390624999999 12.7
    vertex 6.513187618805686 3.760390624999999 0.0
  endloop
endfacet
facet normal 0.793353340291235 0.6087614290087208 0.0
  outer loop
    vertex 6.513187618805686 3.760390624999999 12.7
    vertex 5.317995421695641 5.317995421695637 0.0
    vertex 5.317995421695641 5.317995421695637 12.7
  endloop
endfacet
facet normal 0.9914448613738105 0.13052619222005188 0.0
  outer loop
    vertex 7.2645168432455804 1.9465214215499416 0.0
    vertex 7.520781249999999 0.0 12.7
    vertex 7.520781249999999 0.0 0.0
  endloop
endfacet
facet normal 0.9914448613738105 0.13052619222005188 0.0
  outer loop
    vertex 7.520781249999999 0.0 12.7
    vertex 7.2645168432455804 1.9465214215499416 0.0
    vertex 7.2645168432455804 1.9465214215499416 12.7
  endloop
endfacet
facet normal 0.3826834323650897 -0.9238795325112868 0.0
  outer loop
    vertex 3.760390624999999 -6.513187618805684 12.7
    vertex 1.9465214215499416 -7.2645168432455804 0.0
    vertex 3.760390624999999 -6.513187618805684 0.0
  endloop
endfacet
facet normal 0.3826834323650897 -0.9238795325112868 0.0
  outer loop
    vertex 1.9465214215499416 -7.2645168432455804 0.0
    vertex 3.760390624999999 -6.513187618805684 12.7
    vertex 1.9465214215499416 -7.2645168432455804 12.7
  endloop
endfacet
facet normal 0.6087614290087205 -0.7933533402912353 0.0
  outer loop
    vertex 5.317995421695637 -5.317995421695639 12.7
    vertex 3.760390624999999 -6.513187618805684 0.0
    vertex 5.317995421695637 -5.317995421695639 0.0
  endloop
endfacet
facet normal 0.6087614290087205 -0.7933533402912353 0.0
  outer loop
    vertex 3.760390624999999 -6.513187618805684 0.0
    vertex 5.317995421695637 -5.317995421695639 12.7
    vertex 3.760390624999999 -6.513187618805684 12.7
  endloop
endfacet
facet normal 0.7933533402912349 -0.6087614290087209 0.0
  outer loop
    vertex 6.513187618805686 -3.7603906250000003 0.0
    vertex 5.317995421695637 -5.317995421695639 12.7
    vertex 5.317995421695637 -5.317995421695639 0.0
  endloop
endfacet
facet normal 0.7933533402912349 -0.6087614290087209 0.0
  outer loop
    vertex 5.317995421695637 -5.317995421695639 12.7
    vertex 6.513187618805686 -3.7603906250000003 0.0
    vertex 6.513187618805686 -3.7603906250000003 12.7
  endloop
endfacet
facet normal 0.9238795325112868 -0.3826834323650897 0.0
  outer loop
    vertex 7.2645168432455804 -1.9465214215499438 0.0
    vertex 6.513187618805686 -3.7603906250000003 12.7
    vertex 6.513187618805686 -3.7603906250000003 0.0
  endloop
endfacet
facet normal 0.9238795325112868 -0.3826834323650897 0.0
  outer loop
    vertex 6.513187618805686 -3.7603906250000003 12.7
    vertex 7.2645168432455804 -1.9465214215499438 0.0
    vertex 7.2645168432455804 -1.9465214215499438 12.7
  endloop
endfacet
facet normal 0.38268343236508995 0.9238795325112866 0.0
  outer loop
    vertex 1.9465214215499445 7.2645168432455804 12.7
    vertex 3.7603906250000017 6.513187618805683 0.0
    vertex 1.9465214215499445 7.2645168432455804 0.0
  endloop
endfacet
facet normal 0.38268343236508995 0.9238795325112866 0.0
  outer loop
    vertex 3.7603906250000017 6.513187618805683 0.0
    vertex 1.9465214215499445 7.2645168432455804 12.7
    vertex 3.7603906250000017 6.513187618805683 12.7
  endloop
endfacet
facet normal -0.6087614290087209 -0.7933533402912352 -0.0
  outer loop
    vertex 1.6837980227004672 1.6837980227004656 12.7
    vertex 1.1906250000000014 2.0622229927616944 0.0
    vertex 1.6837980227004672 1.6837980227004656 0.0
  endloop
endfacet
facet normal -0.6087614290087209 -0.7933533402912352 -0.0
  outer loop
    vertex 1.1906250000000014 2.0622229927616944 0.0
    vertex 1.6837980227004672 1.6837980227004656 12.7
    vertex 1.1906250000000014 2.0622229927616944 12.7
  endloop
endfacet
facet normal 0.608761429008721 0.7933533402912349 0.0
  outer loop
    vertex 3.7603906250000017 6.513187618805683 12.7
    vertex 5.317995421695641 5.317995421695637 0.0
    vertex 3.7603906250000017 6.513187618805683 0.0
  endloop
endfacet
facet normal 0.608761429008721 0.7933533402912349 0.0
  outer loop
    vertex 5.317995421695641 5.317995421695637 0.0
    vertex 3.7603906250000017 6.513187618805683 12.7
    vertex 5.317995421695641 5.317995421695637 12.7
  endloop
endfacet
facet normal 0.9914448613738104 -0.13052619222005174 0.0
  outer loop
    vertex 7.520781249999999 0.0 0.0
    vertex 7.2645168432455804 -1.9465214215499438 12.7
    vertex 7.2645168432455804 -1.9465214215499438 0.0
  endloop
endfacet
facet normal 0.9914448613738104 -0.13052619222005174 0.0
  outer loop
    vertex 7.2645168432455804 -1.9465214215499438 12.7
    vertex 7.520781249999999 0.0 0.0
    vertex 7.520781249999999 0.0 12.7
  endloop
endfacet
facet normal -0.9914448613738105 -0.1305261922200514 -0.0
  outer loop
    vertex 2.300110873850844 0.6163128511503768 12.7
    vertex 2.3812499999999996 0.0 0.0
    vertex 2.3812499999999996 0.0 12.7
  endloop
endfacet
facet normal -0.9914448613738105 -0.1305261922200514 -0.0
  outer loop
    vertex 2.3812499999999996 0.0 0.0
    vertex 2.300110873850844 0.6163128511503768 12.7
    vertex 2.300110873850844 0.6163128511503768 0.0
  endloop
endfacet
facet normal 0.1305261922200511 0.9914448613738105 0.0
  outer loop
    vertex 1.4099832412739487e-15 7.520781249999996 12.7
    vertex 1.9465214215499445 7.2645168432455804 0.0
    vertex 1.4099832412739487e-15 7.520781249999996 0.0
  endloop
endfacet
facet normal 0.1305261922200511 0.9914448613738105 0.0
  outer loop
    vertex 1.9465214215499445 7.2645168432455804 0.0
    vertex 1.4099832412739487e-15 7.520781249999996 12.7
    vertex 1.9465214215499445 7.2645168432455804 12.7
  endloop
endfacet
facet normal -0.7933533402912352 -0.6087614290087205 -0.0
  outer loop
    vertex 1.6837980227004672 1.6837980227004656 12.7
    vertex 2.0622229927616944 1.1906249999999998 0.0
    vertex 2.0622229927616944 1.1906249999999998 12.7
  endloop
endfacet
facet normal -0.7933533402912352 -0.6087614290087205 -0.0
  outer loop
    vertex 2.0622229927616944 1.1906249999999998 0.0
    vertex 1.6837980227004672 1.6837980227004656 12.7
    vertex 1.6837980227004672 1.6837980227004656 0.0
  endloop
endfacet
facet normal -0.9238795325112868 -0.38268343236508956 -0.0
  outer loop
    vertex 2.0622229927616944 1.1906249999999998 12.7
    vertex 2.300110873850844 0.6163128511503768 0.0
    vertex 2.300110873850844 0.6163128511503768 12.7
  endloop
endfacet
facet normal -0.9238795325112868 -0.38268343236508956 -0.0
  outer loop
    vertex 2.300110873850844 0.6163128511503768 0.0
    vertex 2.0622229927616944 1.1906249999999998 12.7
    vertex 2.0622229927616944 1.1906249999999998 0.0
  endloop
endfacet
facet normal -0.9914448613738104 0.13052619222005185 0.0
  outer loop
    vertex 2.3812499999999996 0.0 12.7
    vertex 2.300110873850844 -0.6163128511503781 0.0
    vertex 2.300110873850844 -0.6163128511503781 12.7
  endloop
endfacet
facet normal -0.9914448613738104 0.13052619222005185 0.0
  outer loop
    vertex 2.300110873850844 -0.6163128511503781 0.0
    vertex 2.3812499999999996 0.0 12.7
    vertex 2.3812499999999996 0.0 0.0
  endloop
endfacet
facet normal -0.9238795325112868 0.38268343236508945 0.0
  outer loop
    vertex 2.300110873850844 -0.6163128511503781 12.7
    vertex 2.0622229927616944 -1.1906249999999998 0.0
    vertex 2.0622229927616944 -1.1906249999999998 12.7
  endloop
endfacet
facet normal -0.9238795325112868 0.38268343236508945 0.0
  outer loop
    vertex 2.0622229927616944 -1.1906249999999998 0.0
    vertex 2.300110873850844 -0.6163128511503781 12.7
    vertex 2.300110873850844 -0.6163128511503781 0.0
  endloop
endfacet
facet normal -0.38268343236509 0.9238795325112867 0.0
  outer loop
    vertex 0.6163128511503768 -2.300110873850844 12.7
    vertex 1.1906249999999998 -2.0622229927616944 0.0
    vertex 0.6163128511503768 -2.300110873850844 0.0
  endloop
endfacet
facet normal -0.38268343236509 0.9238795325112867 0.0
  outer loop
    vertex 1.1906249999999998 -2.0622229927616944 0.0
    vertex 0.6163128511503768 -2.300110873850844 12.7
    vertex 1.1906249999999998 -2.0622229927616944 12.7
  endloop
endfacet
facet normal -0.6087614290087205 0.7933533402912353 0.0
  outer loop
    vertex 1.1906249999999998 -2.0622229927616944 12.7
    vertex 1.6837980227004656 -1.6837980227004663 0.0
    vertex 1.1906249999999998 -2.0622229927616944 0.0
  endloop
endfacet
facet normal -0.6087614290087205 0.7933533402912353 0.0
  outer loop
    vertex 1.6837980227004656 -1.6837980227004663 0.0
    vertex 1.1906249999999998 -2.0622229927616944 12.7
    vertex 1.6837980227004656 -1.6837980227004663 12.7
  endloop
endfacet
facet normal -0.7933533402912349 0.608761429008721 0.0
  outer loop
    vertex 2.0622229927616944 -1.1906249999999998 12.7
    vertex 1.6837980227004656 -1.6837980227004663 0.0
    vertex 1.6837980227004656 -1.6837980227004663 12.7
  endloop
endfacet
facet normal -0.7933533402912349 0.608761429008721 0.0
  outer loop
    vertex 1.6837980227004656 -1.6837980227004663 0.0
    vertex 2.0622229927616944 -1.1906249999999998 12.7
    vertex 2.0622229927616944 -1.1906249999999998 0.0
  endloop
endfacet
facet normal -0.13052619222005138 0.9914448613738105 0.0
  outer loop
    vertex 0.0 -2.3812499999999996 12.7
    vertex 0.6163128511503768 -2.300110873850844 0.0
    vertex 0.0 -2.3812499999999996 0.0
  endloop
endfacet
facet normal -0.13052619222005138 0.9914448613738105 0.0
  outer loop
    vertex 0.6163128511503768 -2.300110873850844 0.0
    vertex 0.0 -2.3812499999999996 12.7
    vertex 0.6163128511503768 -2.300110873850844 12.7
  endloop
endfacet
endsolid housing-top
