solid housing-top
facet normal 0.13052619222005185 0.9914448613738105 -0.0
  outer loop
    vertex -1.9722011236812096 -7.360354796322699 0.0
    vertex -4.6659043047514155e-16 -7.619999999999999 -57.15
    vertex -1.9722011236812096 -7.360354796322699 -57.15
  endloop
endfacet
facet normal 0.13052619222005185 0.9914448613738105 -0.0
  outer loop
    vertex -4.6659043047514155e-16 -7.619999999999999 -57.15
    vertex -1.9722011236812096 -7.360354796322699 0.0
    vertex -4.6659043047514155e-16 -7.619999999999999 0.0
  endloop
endfacet
facet normal -0.7933533402912353 0.6087614290087205 0.0
  outer loop
    vertex -7.184204896855323 7.184204896855324 0.0
    vertex -8.798818102449893 5.0800000000000045 -57.15
    vertex -8.798818102449893 5.0800000000000045 0.0
  endloop
endfacet
facet normal -0.7933533402912353 0.6087614290087205 0.0
  outer loop
    vertex -8.798818102449893 5.0800000000000045 -57.15
    vertex -7.184204896855323 7.184204896855324 0.0
    vertex -7.184204896855323 7.184204896855324 -57.15
  endloop
endfacet
facet normal -0.6087614290087201 0.7933533402912356 0.0
  outer loop
    vertex -7.184204896855323 7.184204896855324 0.0
    vertex -5.079999999999993 8.7988181024499 -57.15
    vertex -7.184204896855323 7.184204896855324 -57.15
  endloop
endfacet
facet normal -0.6087614290087201 0.7933533402912356 0.0
  outer loop
    vertex -5.079999999999993 8.7988181024499 -57.15
    vertex -7.184204896855323 7.184204896855324 0.0
    vertex -5.079999999999993 8.7988181024499 0.0
  endloop
endfacet
facet normal -0.3826834323650895 0.9238795325112868 0.0
  outer loop
    vertex -5.079999999999993 8.7988181024499 0.0
    vertex -2.6296014982416063 9.813806395096936 -57.15
    vertex -5.079999999999993 8.7988181024499 -57.15
  endloop
endfacet
facet normal -0.3826834323650895 0.9238795325112868 0.0
  outer loop
    vertex -2.6296014982416063 9.813806395096936 -57.15
    vertex -5.079999999999993 8.7988181024499 0.0
    vertex -2.6296014982416063 9.813806395096936 0.0
  endloop
endfacet
facet normal -0.13052619222005102 0.9914448613738106 0.0
  outer loop
    vertex -2.6296014982416063 9.813806395096936 0.0
    vertex 1.8663617219005662e-15 10.16 -57.15
    vertex -2.6296014982416063 9.813806395096936 -57.15
  endloop
endfacet
facet normal -0.13052619222005102 0.9914448613738106 0.0
  outer loop
    vertex 1.8663617219005662e-15 10.16 -57.15
    vertex -2.6296014982416063 9.813806395096936 0.0
    vertex 1.8663617219005662e-15 10.16 0.0
  endloop
endfacet
facet normal 0.13052619222005218 0.9914448613738104 0.0
  outer loop
    vertex 1.8663617219005662e-15 10.16 0.0
    vertex 2.629601498241618 9.81380639509693 -57.15
    vertex 1.8663617219005662e-15 10.16 -57.15
  endloop
endfacet
facet normal 0.13052619222005218 0.9914448613738104 0.0
  outer loop
    vertex 2.629601498241618 9.81380639509693 -57.15
    vertex 1.8663617219005662e-15 10.16 0.0
    vertex 2.629601498241618 9.81380639509693 0.0
  endloop
endfacet
facet normal 0.3826834323650905 0.9238795325112865 0.0
  outer loop
    vertex 2.629601498241618 9.81380639509693 0.0
    vertex 5.0800000000000045 8.798818102449893 -57.15
    vertex 2.629601498241618 9.81380639509693 -57.15
  endloop
endfacet
facet normal 0.3826834323650905 0.9238795325112865 0.0
  outer loop
    vertex 5.0800000000000045 8.798818102449893 -57.15
    vertex 2.629601498241618 9.81380639509693 0.0
    vertex 5.0800000000000045 8.798818102449893 0.0
  endloop
endfacet
facet normal 0.6087614290087211 0.7933533402912348 0.0
  outer loop
    vertex 5.0800000000000045 8.798818102449893 0.0
    vertex 7.184204896855326 7.184204896855318 -57.15
    vertex 5.0800000000000045 8.798818102449893 -57.15
  endloop
endfacet
facet normal 0.6087614290087211 0.7933533402912348 0.0
  outer loop
    vertex 7.184204896855326 7.184204896855318 -57.15
    vertex 5.0800000000000045 8.798818102449893 0.0
    vertex 7.184204896855326 7.184204896855318 0.0
  endloop
endfacet
facet normal 0.793353340291235 0.6087614290087208 0.0
  outer loop
    vertex 7.184204896855326 7.184204896855318 -57.15
    vertex 8.798818102449898 5.079999999999998 0.0
    vertex 8.798818102449898 5.079999999999998 -57.15
  endloop
endfacet
facet normal 0.793353340291235 0.6087614290087208 0.0
  outer loop
    vertex 8.798818102449898 5.079999999999998 0.0
    vertex 7.184204896855326 7.184204896855318 -57.15
    vertex 7.184204896855326 7.184204896855318 0.0
  endloop
endfacet
facet normal 0.9238795325112871 0.38268343236508945 0.0
  outer loop
    vertex 8.798818102449898 5.079999999999998 -57.15
    vertex 9.813806395096936 2.6296014982416067 0.0
    vertex 9.813806395096936 2.6296014982416067 -57.15
  endloop
endfacet
facet normal 0.9238795325112871 0.38268343236508945 0.0
  outer loop
    vertex 9.813806395096936 2.6296014982416067 0.0
    vertex 8.798818102449898 5.079999999999998 -57.15
    vertex 8.798818102449898 5.079999999999998 0.0
  endloop
endfacet
facet normal 0.9914448613738106 0.13052619222005102 0.0
  outer loop
    vertex 9.813806395096936 2.6296014982416067 -57.15
    vertex 10.16 -1.2442411479337109e-15 0.0
    vertex 10.16 -1.2442411479337109e-15 -57.15
  endloop
endfacet
facet normal 0.9914448613738106 0.13052619222005102 0.0
  outer loop
    vertex 10.16 -1.2442411479337109e-15 0.0
    vertex 9.813806395096936 2.6296014982416067 -57.15
    vertex 9.813806395096936 2.6296014982416067 0.0
  endloop
endfacet
facet normal 0.9914448613738104 -0.13052619222005185 0.0
  outer loop
    vertex 10.16 -1.2442411479337109e-15 -57.15
    vertex 9.813806395096933 -2.6296014982416134 0.0
    vertex 9.813806395096933 -2.6296014982416134 -57.15
  endloop
endfacet
facet normal 0.9914448613738104 -0.13052619222005185 0.0
  outer loop
    vertex 9.813806395096933 -2.6296014982416134 0.0
    vertex 10.16 -1.2442411479337109e-15 -57.15
    vertex 10.16 -1.2442411479337109e-15 0.0
  endloop
endfacet
facet normal 0.9238795325112868 -0.38268343236509006 0.0
  outer loop
    vertex 9.813806395096933 -2.6296014982416134 -57.15
    vertex 8.798818102449895 -5.080000000000004 0.0
    vertex 8.798818102449895 -5.080000000000004 -57.15
  endloop
endfacet
facet normal 0.9238795325112868 -0.38268343236509006 0.0
  outer loop
    vertex 8.798818102449895 -5.080000000000004 0.0
    vertex 9.813806395096933 -2.6296014982416134 -57.15
    vertex 9.813806395096933 -2.6296014982416134 0.0
  endloop
endfacet
facet normal 0.793353340291235 -0.6087614290087208 0.0
  outer loop
    vertex 8.798818102449895 -5.080000000000004 -57.15
    vertex 7.184204896855323 -7.184204896855324 0.0
    vertex 7.184204896855323 -7.184204896855324 -57.15
  endloop
endfacet
facet normal 0.793353340291235 -0.6087614290087208 0.0
  outer loop
    vertex 7.184204896855323 -7.184204896855324 0.0
    vertex 8.798818102449895 -5.080000000000004 -57.15
    vertex 8.798818102449895 -5.080000000000004 0.0
  endloop
endfacet
facet normal 0.6087614290087208 -0.7933533402912352 0.0
  outer loop
    vertex 7.184204896855323 -7.184204896855324 0.0
    vertex 5.079999999999998 -8.798818102449898 -57.15
    vertex 7.184204896855323 -7.184204896855324 -57.15
  endloop
endfacet
facet normal 0.6087614290087208 -0.7933533402912352 0.0
  outer loop
    vertex 5.079999999999998 -8.798818102449898 -57.15
    vertex 7.184204896855323 -7.184204896855324 0.0
    vertex 5.079999999999998 -8.798818102449898 0.0
  endloop
endfacet
facet normal 0.3826834323650893 -0.923879532511287 0.0
  outer loop
    vertex 5.079999999999998 -8.798818102449898 0.0
    vertex 2.6296014982416094 -9.813806395096934 -57.15
    vertex 5.079999999999998 -8.798818102449898 -57.15
  endloop
endfacet
facet normal 0.3826834323650893 -0.923879532511287 0.0
  outer loop
    vertex 2.6296014982416094 -9.813806395096934 -57.15
    vertex 5.079999999999998 -8.798818102449898 0.0
    vertex 2.6296014982416094 -9.813806395096934 0.0
  endloop
endfacet
facet normal 0.13052619222005143 -0.9914448613738105 0.0
  outer loop
    vertex 2.6296014982416094 -9.813806395096934 0.0
    vertex -6.221205739668554e-16 -10.16 -57.15
    vertex 2.6296014982416094 -9.813806395096934 -57.15
  endloop
endfacet
facet normal 0.13052619222005143 -0.9914448613738105 0.0
  outer loop
    vertex -6.221205739668554e-16 -10.16 -57.15
    vertex 2.6296014982416094 -9.813806395096934 0.0
    vertex -6.221205739668554e-16 -10.16 0.0
  endloop
endfacet
facet normal -0.13052619222005182 -0.9914448613738104 -0.0
  outer loop
    vertex -6.221205739668554e-16 -10.16 0.0
    vertex -2.629601498241613 -9.813806395096933 -57.15
    vertex -6.221205739668554e-16 -10.16 -57.15
  endloop
endfacet
facet normal -0.13052619222005182 -0.9914448613738104 -0.0
  outer loop
    vertex -2.629601498241613 -9.813806395096933 -57.15
    vertex -6.221205739668554e-16 -10.16 0.0
    vertex -2.629601498241613 -9.813806395096933 0.0
  endloop
endfacet
facet normal -0.3826834323650897 -0.9238795325112868 -0.0
  outer loop
    vertex -2.629601498241613 -9.813806395096933 0.0
    vertex -5.080000000000002 -8.798818102449896 -57.15
    vertex -2.629601498241613 -9.813806395096933 -57.15
  endloop
endfacet
facet normal -0.3826834323650897 -0.9238795325112868 -0.0
  outer loop
    vertex -5.080000000000002 -8.798818102449896 -57.15
    vertex -2.629601498241613 -9.813806395096933 0.0
    vertex -5.080000000000002 -8.798818102449896 0.0
  endloop
endfacet
facet normal -0.6087614290087208 -0.7933533402912352 -0.0
  outer loop
    vertex -5.080000000000002 -8.798818102449896 0.0
    vertex -7.184204896855324 -7.184204896855323 -57.15
    vertex -5.080000000000002 -8.798818102449896 -57.15
  endloop
endfacet
facet normal -0.6087614290087208 -0.7933533402912352 -0.0
  outer loop
    vertex -7.184204896855324 -7.184204896855323 -57.15
    vertex -5.080000000000002 -8.798818102449896 0.0
    vertex -7.184204896855324 -7.184204896855323 0.0
  endloop
endfacet
facet normal -0.7933533402912353 -0.6087614290087207 -0.0
  outer loop
    vertex -8.798818102449898 -5.079999999999999 0.0
    vertex -7.184204896855324 -7.184204896855323 -57.15
    vertex -7.184204896855324 -7.184204896855323 0.0
  endloop
endfacet
facet normal -0.7933533402912353 -0.6087614290087207 -0.0
  outer loop
    vertex -7.184204896855324 -7.184204896855323 -57.15
    vertex -8.798818102449898 -5.079999999999999 0.0
    vertex -8.798818102449898 -5.079999999999999 -57.15
  endloop
endfacet
facet normal 0.9914448613738105 0.13052619222005124 -1.80512467468872e-19
  outer loop
    vertex -7.619999999999999 0.0 -57.15
    vertex -7.3603547963227 -1.972201123681208 0.0
    vertex -7.3603547963227 -1.972201123681208 -57.15
  endloop
endfacet
facet normal 0.9914448613738105 0.13052619222005124 -1.80512467468872e-19
  outer loop
    vertex -7.3603547963227 -1.972201123681208 0.0
    vertex -7.619999999999999 0.0 -57.15
    vertex -7.619999999999999 0.0 0.0
  endloop
endfacet
facet normal 0.9238795325112867 0.38268343236508984 -1.8580056461558594e-19
  outer loop
    vertex -7.3603547963227 -1.972201123681208 -57.15
    vertex -6.599113576837423 -3.8099999999999987 0.0
    vertex -6.599113576837423 -3.8099999999999987 -57.15
  endloop
endfacet
facet normal 0.9238795325112867 0.38268343236508984 -1.8580056461558594e-19
  outer loop
    vertex -6.599113576837423 -3.8099999999999987 0.0
    vertex -7.3603547963227 -1.972201123681208 -57.15
    vertex -7.3603547963227 -1.972201123681208 0.0
  endloop
endfacet
facet normal 0.7933533402912349 0.6087614290087209 -1.3684666928183464e-33
  outer loop
    vertex -6.599113576837423 -3.8099999999999987 -57.15
    vertex -5.388153672641492 -5.388153672641491 0.0
    vertex -5.388153672641492 -5.388153672641491 -57.15
  endloop
endfacet
facet normal 0.7933533402912349 0.6087614290087209 -1.3684666928183464e-33
  outer loop
    vertex -5.388153672641492 -5.388153672641491 0.0
    vertex -6.599113576837423 -3.8099999999999987 -57.15
    vertex -6.599113576837423 -3.8099999999999987 0.0
  endloop
endfacet
facet normal 0.6087614290087208 0.7933533402912352 -5.91132030602793e-19
  outer loop
    vertex -5.388153672641492 -5.388153672641491 0.0
    vertex -3.8100000000000005 -6.599113576837421 -57.15
    vertex -5.388153672641492 -5.388153672641491 -57.15
  endloop
endfacet
facet normal 0.6087614290087208 0.7933533402912352 -5.91132030602793e-19
  outer loop
    vertex -3.8100000000000005 -6.599113576837421 -57.15
    vertex -5.388153672641492 -5.388153672641491 0.0
    vertex -3.8100000000000005 -6.599113576837421 0.0
  endloop
endfacet
facet normal 0.3826834323650897 0.9238795325112867 -1.8580056461558558e-19
  outer loop
    vertex -3.8100000000000005 -6.599113576837421 0.0
    vertex -1.9722011236812096 -7.360354796322699 -57.15
    vertex -3.8100000000000005 -6.599113576837421 -57.15
  endloop
endfacet
facet normal 0.3826834323650897 0.9238795325112867 -1.8580056461558558e-19
  outer loop
    vertex -1.9722011236812096 -7.360354796322699 -57.15
    vertex -3.8100000000000005 -6.599113576837421 0.0
    vertex -1.9722011236812096 -7.360354796322699 0.0
  endloop
endfacet
facet normal 0.9238795325112867 -0.3826834323650901 3.7160112923117886e-19
  outer loop
    vertex -6.59911357683742 3.810000000000003 -57.15
    vertex -7.360354796322698 1.9722011236812138 0.0
    vertex -7.360354796322698 1.9722011236812138 -57.15
  endloop
endfacet
facet normal 0.9238795325112867 -0.3826834323650901 3.7160112923117886e-19
  outer loop
    vertex -7.360354796322698 1.9722011236812138 0.0
    vertex -6.59911357683742 3.810000000000003 -57.15
    vertex -6.59911357683742 3.810000000000003 0.0
  endloop
endfacet
facet normal 0.9914448613738105 -0.13052619222005227 -3.420315265976959e-33
  outer loop
    vertex -7.360354796322698 1.9722011236812138 -57.15
    vertex -7.619999999999999 0.0 0.0
    vertex -7.619999999999999 0.0 -57.15
  endloop
endfacet
facet normal 0.9914448613738105 -0.13052619222005227 -3.420315265976959e-33
  outer loop
    vertex -7.619999999999999 0.0 0.0
    vertex -7.360354796322698 1.9722011236812138 -57.15
    vertex -7.360354796322698 1.9722011236812138 0.0
  endloop
endfacet
facet normal 0.7933533402912352 -0.6087614290087207 2.9556601530139533e-19
  outer loop
    vertex -5.388153672641491 5.388153672641494 -57.15
    vertex -6.59911357683742 3.810000000000003 0.0
    vertex -6.59911357683742 3.810000000000003 -57.15
  endloop
endfacet
facet normal 0.7933533402912352 -0.6087614290087207 2.9556601530139533e-19
  outer loop
    vertex -6.59911357683742 3.810000000000003 0.0
    vertex -5.388153672641491 5.388153672641494 -57.15
    vertex -5.388153672641491 5.388153672641494 0.0
  endloop
endfacet
facet normal 0.6087614290087197 -0.7933533402912359 -2.418528118368177e-33
  outer loop
    vertex -3.809999999999994 6.599113576837424 0.0
    vertex -5.388153672641491 5.388153672641494 -57.15
    vertex -3.809999999999994 6.599113576837424 -57.15
  endloop
endfacet
facet normal 0.6087614290087197 -0.7933533402912359 -2.418528118368177e-33
  outer loop
    vertex -5.388153672641491 5.388153672641494 -57.15
    vertex -3.809999999999994 6.599113576837424 0.0
    vertex -5.388153672641491 5.388153672641494 0.0
  endloop
endfacet
facet normal 0.38268343236508945 -0.9238795325112868 -3.187226432938858e-33
  outer loop
    vertex -1.9722011236812045 7.3603547963227 0.0
    vertex -3.809999999999994 6.599113576837424 -57.15
    vertex -1.9722011236812045 7.3603547963227 -57.15
  endloop
endfacet
facet normal 0.38268343236508945 -0.9238795325112868 -3.187226432938858e-33
  outer loop
    vertex -3.809999999999994 6.599113576837424 -57.15
    vertex -1.9722011236812045 7.3603547963227 0.0
    vertex -3.809999999999994 6.599113576837424 0.0
  endloop
endfacet
facet normal 0.13052619222005143 -0.9914448613738105 -1.1713935496769855e-19
  outer loop
    vertex 1.3997712914254245e-15 7.619999999999999 0.0
    vertex -1.9722011236812045 7.3603547963227 -57.15
    vertex 1.3997712914254245e-15 7.619999999999999 -57.15
  endloop
endfacet
facet normal 0.13052619222005143 -0.9914448613738105 -1.1713935496769855e-19
  outer loop
    vertex -1.9722011236812045 7.3603547963227 -57.15
    vertex 1.3997712914254245e-15 7.619999999999999 0.0
    vertex -1.9722011236812045 7.3603547963227 0.0
  endloop
endfacet
facet normal -0.13052619222005238 -0.9914448613738105 -6.337311250117727e-20
  outer loop
    vertex 1.9722011236812131 7.360354796322698 0.0
    vertex 1.3997712914254245e-15 7.619999999999999 -57.15
    vertex 1.9722011236812131 7.360354796322698 -57.15
  endloop
endfacet
facet normal -0.13052619222005238 -0.9914448613738105 -6.337311250117727e-20
  outer loop
    vertex 1.3997712914254245e-15 7.619999999999999 -57.15
    vertex 1.9722011236812131 7.360354796322698 0.0
    vertex 1.3997712914254245e-15 7.619999999999999 0.0
  endloop
endfacet
facet normal -0.38268343236509 -0.9238795325112867 6.0444047621583915e-33
  outer loop
    vertex 3.810000000000003 6.59911357683742 0.0
    vertex 1.9722011236812131 7.360354796322698 -57.15
    vertex 3.810000000000003 6.59911357683742 -57.15
  endloop
endfacet
facet normal -0.38268343236509 -0.9238795325112867 6.0444047621583915e-33
  outer loop
    vertex 1.9722011236812131 7.360354796322698 -57.15
    vertex 3.810000000000003 6.59911357683742 0.0
    vertex 1.9722011236812131 7.360354796322698 0.0
  endloop
endfacet
facet normal -0.6087614290087211 -0.793353340291235 -5.911320306027918e-19
  outer loop
    vertex 5.3881536726414945 5.388153672641489 0.0
    vertex 3.810000000000003 6.59911357683742 -57.15
    vertex 5.3881536726414945 5.388153672641489 -57.15
  endloop
endfacet
facet normal -0.6087614290087211 -0.793353340291235 -5.911320306027918e-19
  outer loop
    vertex 3.810000000000003 6.59911357683742 -57.15
    vertex 5.3881536726414945 5.388153672641489 0.0
    vertex 3.810000000000003 6.59911357683742 0.0
  endloop
endfacet
facet normal -0.7933533402912354 -0.6087614290087203 2.9556601530140086e-19
  outer loop
    vertex 5.3881536726414945 5.388153672641489 0.0
    vertex 6.599113576837423 3.8099999999999983 -57.15
    vertex 6.599113576837423 3.8099999999999983 0.0
  endloop
endfacet
facet normal -0.7933533402912354 -0.6087614290087203 2.9556601530140086e-19
  outer loop
    vertex 6.599113576837423 3.8099999999999983 -57.15
    vertex 5.3881536726414945 5.388153672641489 0.0
    vertex 5.3881536726414945 5.388153672641489 -57.15
  endloop
endfacet
facet normal -0.9238795325112871 -0.38268343236508945 1.858005646155861e-19
  outer loop
    vertex 6.599113576837423 3.8099999999999983 0.0
    vertex 7.3603547963227 1.9722011236812047 -57.15
    vertex 7.3603547963227 1.9722011236812047 0.0
  endloop
endfacet
facet normal -0.9238795325112871 -0.38268343236508945 1.858005646155861e-19
  outer loop
    vertex 7.3603547963227 1.9722011236812047 -57.15
    vertex 6.599113576837423 3.8099999999999983 0.0
    vertex 6.599113576837423 3.8099999999999983 -57.15
  endloop
endfacet
facet normal -0.9914448613738105 -0.13052619222005143 -2.438855799700456e-19
  outer loop
    vertex 7.3603547963227 1.9722011236812047 0.0
    vertex 7.619999999999999 -9.331808609502831e-16 -57.15
    vertex 7.619999999999999 -9.331808609502831e-16 0.0
  endloop
endfacet
facet normal -0.9914448613738105 -0.13052619222005143 -2.438855799700456e-19
  outer loop
    vertex 7.619999999999999 -9.331808609502831e-16 -57.15
    vertex 7.3603547963227 1.9722011236812047 0.0
    vertex 7.3603547963227 1.9722011236812047 -57.15
  endloop
endfacet
facet normal -0.9914448613738105 0.13052619222005185 -6.337311250117363e-20
  outer loop
    vertex 7.619999999999999 -9.331808609502831e-16 0.0
    vertex 7.360354796322699 -1.97220112368121 -57.15
    vertex 7.360354796322699 -1.97220112368121 0.0
  endloop
endfacet
facet normal -0.9914448613738105 0.13052619222005185 -6.337311250117363e-20
  outer loop
    vertex 7.360354796322699 -1.97220112368121 -57.15
    vertex 7.619999999999999 -9.331808609502831e-16 0.0
    vertex 7.619999999999999 -9.331808609502831e-16 -57.15
  endloop
endfacet
facet normal -0.9238795325112867 0.3826834323650901 -3.187226432938857e-33
  outer loop
    vertex 7.360354796322699 -1.97220112368121 0.0
    vertex 6.59911357683742 -3.8100000000000023 -57.15
    vertex 6.59911357683742 -3.8100000000000023 0.0
  endloop
endfacet
facet normal -0.9238795325112867 0.3826834323650901 -3.187226432938857e-33
  outer loop
    vertex 6.59911357683742 -3.8100000000000023 -57.15
    vertex 7.360354796322699 -1.97220112368121 0.0
    vertex 7.360354796322699 -1.97220112368121 -57.15
  endloop
endfacet
facet normal -0.7933533402912349 0.6087614290087209 -2.9556601530139764e-19
  outer loop
    vertex 6.59911357683742 -3.8100000000000023 0.0
    vertex 5.388153672641491 -5.388153672641492 -57.15
    vertex 5.388153672641491 -5.388153672641492 0.0
  endloop
endfacet
facet normal -0.7933533402912349 0.6087614290087209 -2.9556601530139764e-19
  outer loop
    vertex 5.388153672641491 -5.388153672641492 -57.15
    vertex 6.59911357683742 -3.8100000000000023 0.0
    vertex 6.59911357683742 -3.8100000000000023 -57.15
  endloop
endfacet
facet normal -0.6087614290087207 0.7933533402912352 2.9556601530139456e-19
  outer loop
    vertex 3.8099999999999983 -6.599113576837423 0.0
    vertex 5.388153672641491 -5.388153672641492 -57.15
    vertex 3.8099999999999983 -6.599113576837423 -57.15
  endloop
endfacet
facet normal -0.6087614290087207 0.7933533402912352 2.9556601530139456e-19
  outer loop
    vertex 5.388153672641491 -5.388153672641492 -57.15
    vertex 3.8099999999999983 -6.599113576837423 0.0
    vertex 5.388153672641491 -5.388153672641492 0.0
  endloop
endfacet
facet normal -0.3826834323650898 0.923879532511287 -3.300481037193242e-34
  outer loop
    vertex 1.972201123681207 -7.3603547963227 0.0
    vertex 3.8099999999999983 -6.599113576837423 -57.15
    vertex 1.972201123681207 -7.3603547963227 -57.15
  endloop
endfacet
facet normal -0.3826834323650898 0.923879532511287 -3.300481037193242e-34
  outer loop
    vertex 3.8099999999999983 -6.599113576837423 -57.15
    vertex 1.972201123681207 -7.3603547963227 0.0
    vertex 3.8099999999999983 -6.599113576837423 0.0
  endloop
endfacet
facet normal -0.13052619222005127 0.9914448613738105 -3.7063180497239207e-19
  outer loop
    vertex -4.6659043047514155e-16 -7.619999999999999 0.0
    vertex 1.972201123681207 -7.3603547963227 -57.15
    vertex -4.6659043047514155e-16 -7.619999999999999 -57.15
  endloop
endfacet
facet normal -0.13052619222005127 0.9914448613738105 -3.7063180497239207e-19
  outer loop
    vertex 1.972201123681207 -7.3603547963227 -57.15
    vertex -4.6659043047514155e-16 -7.619999999999999 0.0
    vertex 1.972201123681207 -7.3603547963227 0.0
  endloop
endfacet
facet normal -0.923879532511287 -0.3826834323650898 -0.0
  outer loop
    vertex -9.813806395096934 -2.6296014982416107 0.0
    vertex -8.798818102449898 -5.079999999999999 -57.15
    vertex -8.798818102449898 -5.079999999999999 0.0
  endloop
endfacet
facet normal -0.923879532511287 -0.3826834323650898 -0.0
  outer loop
    vertex -8.798818102449898 -5.079999999999999 -57.15
    vertex -9.813806395096934 -2.6296014982416107 0.0
    vertex -9.813806395096934 -2.6296014982416107 -57.15
  endloop
endfacet
facet normal -0.9914448613738106 -0.13052619222005143 -0.0
  outer loop
    vertex -10.16 0.0 0.0
    vertex -9.813806395096934 -2.6296014982416107 -57.15
    vertex -9.813806395096934 -2.6296014982416107 0.0
  endloop
endfacet
facet normal -0.9914448613738106 -0.13052619222005143 -0.0
  outer loop
    vertex -9.813806395096934 -2.6296014982416107 -57.15
    vertex -10.16 0.0 0.0
    vertex -10.16 0.0 -57.15
  endloop
endfacet
facet normal -0.9914448613738104 0.13052619222005205 0.0
  outer loop
    vertex -9.81380639509693 2.6296014982416187 0.0
    vertex -10.16 0.0 -57.15
    vertex -10.16 0.0 0.0
  endloop
endfacet
facet normal -0.9914448613738104 0.13052619222005205 0.0
  outer loop
    vertex -10.16 0.0 -57.15
    vertex -9.81380639509693 2.6296014982416187 0.0
    vertex -9.81380639509693 2.6296014982416187 -57.15
  endloop
endfacet
facet normal -0.9238795325112866 0.38268343236509067 0.0
  outer loop
    vertex -8.798818102449893 5.0800000000000045 0.0
    vertex -9.81380639509693 2.6296014982416187 -57.15
    vertex -9.81380639509693 2.6296014982416187 0.0
  endloop
endfacet
facet normal -0.9238795325112866 0.38268343236509067 0.0
  outer loop
    vertex -9.81380639509693 2.6296014982416187 -57.15
    vertex -8.798818102449893 5.0800000000000045 0.0
    vertex -8.798818102449893 5.0800000000000045 -57.15
  endloop
endfacet
facet normal 0.0 0.0 -1.0
  outer loop
    vertex -7.184204896855323 7.184204896855324 -57.15
    vertex -7.619999999999999 0.0 -57.15
    vertex -8.798818102449893 5.0800000000000045 -57.15
  endloop
endfacet
facet normal 0.0 0.0 -1.0
  outer loop
    vertex -7.619999999999999 0.0 -57.15
    vertex -7.184204896855323 7.184204896855324 -57.15
    vertex -7.360354796322698 1.9722011236812138 -57.15
  endloop
endfacet
facet normal 0.0 0.0 -1.0
  outer loop
    vertex -7.360354796322698 1.9722011236812138 -57.15
    vertex -7.184204896855323 7.184204896855324 -57.15
    vertex -6.59911357683742 3.810000000000003 -57.15
  endloop
endfacet
facet normal 0.0 0.0 -1.0
  outer loop
    vertex -6.59911357683742 3.810000000000003 -57.15
    vertex -7.184204896855323 7.184204896855324 -57.15
    vertex -5.079999999999993 8.7988181024499 -57.15
  endloop
endfacet
facet normal 0.0 0.0 -1.0
  outer loop
    vertex -6.59911357683742 3.810000000000003 -57.15
    vertex -5.079999999999993 8.7988181024499 -57.15
    vertex -5.388153672641491 5.388153672641494 -57.15
  endloop
endfacet
facet normal 0.0 0.0 -1.0
  outer loop
    vertex -5.388153672641491 5.388153672641494 -57.15
    vertex -5.079999999999993 8.7988181024499 -57.15
    vertex -3.809999999999994 6.599113576837424 -57.15
  endloop
endfacet
facet normal 0.0 0.0 -1.0
  outer loop
    vertex -3.809999999999994 6.599113576837424 -57.15
    vertex -5.079999999999993 8.7988181024499 -57.15
    vertex -2.6296014982416063 9.813806395096936 -57.15
  endloop
endfacet
facet normal 0.0 0.0 -1.0
  outer loop
    vertex -3.809999999999994 6.599113576837424 -57.15
    vertex -2.6296014982416063 9.813806395096936 -57.15
    vertex -1.9722011236812045 7.3603547963227 -57.15
  endloop
endfacet
facet normal 0.0 0.0 -1.0
  outer loop
    vertex -1.9722011236812045 7.3603547963227 -57.15
    vertex -2.6296014982416063 9.813806395096936 -57.15
    vertex 1.8663617219005662e-15 10.16 -57.15
  endloop
endfacet
facet normal 0.0 0.0 -1.0
  outer loop
    vertex -1.9722011236812045 7.3603547963227 -57.15
    vertex 1.8663617219005662e-15 10.16 -57.15
    vertex 1.3997712914254245e-15 7.619999999999999 -57.15
  endloop
endfacet
facet normal 0.0 0.0 -1.0
  outer loop
    vertex 1.3997712914254245e-15 7.619999999999999 -57.15
    vertex 1.8663617219005662e-15 10.16 -57.15
    vertex 1.9722011236812131 7.360354796322698 -57.15
  endloop
endfacet
facet normal 0.0 0.0 -1.0
  outer loop
    vertex 1.9722011236812131 7.360354796322698 -57.15
    vertex 1.8663617219005662e-15 10.16 -57.15
    vertex 2.629601498241618 9.81380639509693 -57.15
  endloop
endfacet
facet normal 0.0 0.0 -1.0
  outer loop
    vertex 1.9722011236812131 7.360354796322698 -57.15
    vertex 2.629601498241618 9.81380639509693 -57.15
    vertex 3.810000000000003 6.59911357683742 -57.15
  endloop
endfacet
facet normal 0.0 0.0 -1.0
  outer loop
    vertex 3.810000000000003 6.59911357683742 -57.15
    vertex 2.629601498241618 9.81380639509693 -57.15
    vertex 5.0800000000000045 8.798818102449893 -57.15
  endloop
endfacet
facet normal 0.0 0.0 -1.0
  outer loop
    vertex 3.810000000000003 6.59911357683742 -57.15
    vertex 5.0800000000000045 8.798818102449893 -57.15
    vertex 5.3881536726414945 5.388153672641489 -57.15
  endloop
endfacet
facet normal 0.0 0.0 -1.0
  outer loop
    vertex 5.3881536726414945 5.388153672641489 -57.15
    vertex 5.0800000000000045 8.798818102449893 -57.15
    vertex 7.184204896855326 7.184204896855318 -57.15
  endloop
endfacet
facet normal 0.0 0.0 -1.0
  outer loop
    vertex 5.3881536726414945 5.388153672641489 -57.15
    vertex 7.184204896855326 7.184204896855318 -57.15
    vertex 6.599113576837423 3.8099999999999983 -57.15
  endloop
endfacet
facet normal 0.0 0.0 -1.0
  outer loop
    vertex 6.599113576837423 3.8099999999999983 -57.15
    vertex 7.184204896855326 7.184204896855318 -57.15
    vertex 7.3603547963227 1.9722011236812047 -57.15
  endloop
endfacet
facet normal 0.0 0.0 -1.0
  outer loop
    vertex 7.3603547963227 1.9722011236812047 -57.15
    vertex 7.184204896855326 7.184204896855318 -57.15
    vertex 8.798818102449898 5.079999999999998 -57.15
  endloop
endfacet
facet normal 0.0 0.0 -1.0
  outer loop
    vertex 7.3603547963227 1.9722011236812047 -57.15
    vertex 8.798818102449898 5.079999999999998 -57.15
    vertex 7.619999999999999 -9.331808609502831e-16 -57.15
  endloop
endfacet
facet normal 0.0 0.0 -1.0
  outer loop
    vertex 7.619999999999999 -9.331808609502831e-16 -57.15
    vertex 8.798818102449898 5.079999999999998 -57.15
    vertex 8.798818102449895 -5.080000000000004 -57.15
  endloop
endfacet
facet normal 0.0 0.0 -1.0
  outer loop
    vertex 8.798818102449895 -5.080000000000004 -57.15
    vertex 8.798818102449898 5.079999999999998 -57.15
    vertex 9.813806395096933 -2.6296014982416134 -57.15
  endloop
endfacet
facet normal 0.0 0.0 -1.0
  outer loop
    vertex 9.813806395096933 -2.6296014982416134 -57.15
    vertex 8.798818102449898 5.079999999999998 -57.15
    vertex 9.813806395096936 2.6296014982416067 -57.15
  endloop
endfacet
facet normal 0.0 0.0 -1.0
  outer loop
    vertex 9.813806395096933 -2.6296014982416134 -57.15
    vertex 9.813806395096936 2.6296014982416067 -57.15
    vertex 10.16 -1.2442411479337109e-15 -57.15
  endloop
endfacet
facet normal 0.0 0.0 -1.0
  outer loop
    vertex -9.81380639509693 2.6296014982416187 -57.15
    vertex -9.813806395096934 -2.6296014982416107 -57.15
    vertex -10.16 0.0 -57.15
  endloop
endfacet
facet normal 0.0 0.0 -1.0
  outer loop
    vertex -9.813806395096934 -2.6296014982416107 -57.15
    vertex -9.81380639509693 2.6296014982416187 -57.15
    vertex -8.798818102449898 -5.079999999999999 -57.15
  endloop
endfacet
facet normal 0.0 0.0 -1.0
  outer loop
    vertex -8.798818102449898 -5.079999999999999 -57.15
    vertex -9.81380639509693 2.6296014982416187 -57.15
    vertex -8.798818102449893 5.0800000000000045 -57.15
  endloop
endfacet
facet normal 0.0 0.0 -1.0
  outer loop
    vertex -8.798818102449898 -5.079999999999999 -57.15
    vertex -8.798818102449893 5.0800000000000045 -57.15
    vertex -7.184204896855324 -7.184204896855323 -57.15
  endloop
endfacet
facet normal 0.0 0.0 -1.0
  outer loop
    vertex -7.184204896855324 -7.184204896855323 -57.15
    vertex -8.798818102449893 5.0800000000000045 -57.15
    vertex -7.619999999999999 0.0 -57.15
  endloop
endfacet
facet normal 0.0 0.0 -1.0
  outer loop
    vertex -7.184204896855324 -7.184204896855323 -57.15
    vertex -7.619999999999999 0.0 -57.15
    vertex -7.3603547963227 -1.972201123681208 -57.15
  endloop
endfacet
facet normal 0.0 0.0 -1.0
  outer loop
    vertex -7.184204896855324 -7.184204896855323 -57.15
    vertex -7.3603547963227 -1.972201123681208 -57.15
    vertex -6.599113576837423 -3.8099999999999987 -57.15
  endloop
endfacet
facet normal 0.0 0.0 -1.0
  outer loop
    vertex -7.184204896855324 -7.184204896855323 -57.15
    vertex -6.599113576837423 -3.8099999999999987 -57.15
    vertex -5.080000000000002 -8.798818102449896 -57.15
  endloop
endfacet
facet normal 0.0 0.0 -1.0
  outer loop
    vertex -5.080000000000002 -8.798818102449896 -57.15
    vertex -6.599113576837423 -3.8099999999999987 -57.15
    vertex -5.388153672641492 -5.388153672641491 -57.15
  endloop
endfacet
facet normal 0.0 0.0 -1.0
  outer loop
    vertex -5.080000000000002 -8.798818102449896 -57.15
    vertex -5.388153672641492 -5.388153672641491 -57.15
    vertex -3.8100000000000005 -6.599113576837421 -57.15
  endloop
endfacet
facet normal 0.0 0.0 -1.0
  outer loop
    vertex -5.080000000000002 -8.798818102449896 -57.15
    vertex -3.8100000000000005 -6.599113576837421 -57.15
    vertex -2.629601498241613 -9.813806395096933 -57.15
  endloop
endfacet
facet normal 0.0 0.0 -1.0
  outer loop
    vertex -2.629601498241613 -9.813806395096933 -57.15
    vertex -3.8100000000000005 -6.599113576837421 -57.15
    vertex -1.9722011236812096 -7.360354796322699 -57.15
  endloop
endfacet
facet normal 0.0 0.0 -1.0
  outer loop
    vertex -2.629601498241613 -9.813806395096933 -57.15
    vertex -1.9722011236812096 -7.360354796322699 -57.15
    vertex -6.221205739668554e-16 -10.16 -57.15
  endloop
endfacet
facet normal 0.0 0.0 -1.0
  outer loop
    vertex -6.221205739668554e-16 -10.16 -57.15
    vertex -1.9722011236812096 -7.360354796322699 -57.15
    vertex -4.6659043047514155e-16 -7.619999999999999 -57.15
  endloop
endfacet
facet normal 0.0 0.0 -1.0
  outer loop
    vertex -6.221205739668554e-16 -10.16 -57.15
    vertex -4.6659043047514155e-16 -7.619999999999999 -57.15
    vertex 2.6296014982416094 -9.813806395096934 -57.15
  endloop
endfacet
facet normal 0.0 0.0 -1.0
  outer loop
    vertex 2.6296014982416094 -9.813806395096934 -57.15
    vertex -4.6659043047514155e-16 -7.619999999999999 -57.15
    vertex 1.972201123681207 -7.3603547963227 -57.15
  endloop
endfacet
facet normal 0.0 0.0 -1.0
  outer loop
    vertex 2.6296014982416094 -9.813806395096934 -57.15
    vertex 1.972201123681207 -7.3603547963227 -57.15
    vertex 3.8099999999999983 -6.599113576837423 -57.15
  endloop
endfacet
facet normal 0.0 0.0 -1.0
  outer loop
    vertex 2.6296014982416094 -9.813806395096934 -57.15
    vertex 3.8099999999999983 -6.599113576837423 -57.15
    vertex 5.079999999999998 -8.798818102449898 -57.15
  endloop
endfacet
facet normal 0.0 0.0 -1.0
  outer loop
    vertex 5.079999999999998 -8.798818102449898 -57.15
    vertex 3.8099999999999983 -6.599113576837423 -57.15
    vertex 5.388153672641491 -5.388153672641492 -57.15
  endloop
endfacet
facet normal 0.0 0.0 -1.0
  outer loop
    vertex 5.079999999999998 -8.798818102449898 -57.15
    vertex 5.388153672641491 -5.388153672641492 -57.15
    vertex 7.184204896855323 -7.184204896855324 -57.15
  endloop
endfacet
facet normal 0.0 0.0 -1.0
  outer loop
    vertex 7.184204896855323 -7.184204896855324 -57.15
    vertex 5.388153672641491 -5.388153672641492 -57.15
    vertex 6.59911357683742 -3.8100000000000023 -57.15
  endloop
endfacet
facet normal 0.0 0.0 -1.0
  outer loop
    vertex 7.184204896855323 -7.184204896855324 -57.15
    vertex 6.59911357683742 -3.8100000000000023 -57.15
    vertex 7.360354796322699 -1.97220112368121 -57.15
  endloop
endfacet
facet normal 0.0 0.0 -1.0
  outer loop
    vertex 7.184204896855323 -7.184204896855324 -57.15
    vertex 7.360354796322699 -1.97220112368121 -57.15
    vertex 8.798818102449895 -5.080000000000004 -57.15
  endloop
endfacet
facet normal 0.0 0.0 -1.0
  outer loop
    vertex 8.798818102449895 -5.080000000000004 -57.15
    vertex 7.360354796322699 -1.97220112368121 -57.15
    vertex 7.619999999999999 -9.331808609502831e-16 -57.15
  endloop
endfacet
facet normal -0.0 -0.0 1.0
  outer loop
    vertex -9.813806395096934 -2.6296014982416107 0.0
    vertex -9.81380639509693 2.6296014982416187 0.0
    vertex -10.16 0.0 0.0
  endloop
endfacet
facet normal -0.0 -0.0 1.0
  outer loop
    vertex -9.81380639509693 2.6296014982416187 0.0
    vertex -9.813806395096934 -2.6296014982416107 0.0
    vertex -8.798818102449898 -5.079999999999999 0.0
  endloop
endfacet
facet normal -0.0 -0.0 1.0
  outer loop
    vertex -9.81380639509693 2.6296014982416187 0.0
    vertex -8.798818102449898 -5.079999999999999 0.0
    vertex -8.798818102449893 5.0800000000000045 0.0
  endloop
endfacet
facet normal -0.0 -0.0 1.0
  outer loop
    vertex -8.798818102449893 5.0800000000000045 0.0
    vertex -8.798818102449898 -5.079999999999999 0.0
    vertex -7.184204896855324 -7.184204896855323 0.0
  endloop
endfacet
facet normal -0.0 -0.0 1.0
  outer loop
    vertex -8.798818102449893 5.0800000000000045 0.0
    vertex -7.184204896855324 -7.184204896855323 0.0
    vertex -7.619999999999999 0.0 0.0
  endloop
endfacet
facet normal -0.0 -0.0 1.0
  outer loop
    vertex -7.619999999999999 0.0 0.0
    vertex -7.184204896855324 -7.184204896855323 0.0
    vertex -7.3603547963227 -1.972201123681208 0.0
  endloop
endfacet
facet normal -0.0 -0.0 1.0
  outer loop
    vertex -7.3603547963227 -1.972201123681208 0.0
    vertex -7.184204896855324 -7.184204896855323 0.0
    vertex -6.599113576837423 -3.8099999999999987 0.0
  endloop
endfacet
facet normal -0.0 -0.0 1.0
  outer loop
    vertex -6.599113576837423 -3.8099999999999987 0.0
    vertex -7.184204896855324 -7.184204896855323 0.0
    vertex -5.080000000000002 -8.798818102449896 0.0
  endloop
endfacet
facet normal -0.0 -0.0 1.0
  outer loop
    vertex -6.599113576837423 -3.8099999999999987 0.0
    vertex -5.080000000000002 -8.798818102449896 0.0
    vertex -5.388153672641492 -5.388153672641491 0.0
  endloop
endfacet
facet normal -0.0 -0.0 1.0
  outer loop
    vertex -5.388153672641492 -5.388153672641491 0.0
    vertex -5.080000000000002 -8.798818102449896 0.0
    vertex -3.8100000000000005 -6.599113576837421 0.0
  endloop
endfacet
facet normal -0.0 -0.0 1.0
  outer loop
    vertex -3.8100000000000005 -6.599113576837421 0.0
    vertex -5.080000000000002 -8.798818102449896 0.0
    vertex -2.629601498241613 -9.813806395096933 0.0
  endloop
endfacet
facet normal -0.0 -0.0 1.0
  outer loop
    vertex -3.8100000000000005 -6.599113576837421 0.0
    vertex -2.629601498241613 -9.813806395096933 0.0
    vertex -1.9722011236812096 -7.360354796322699 0.0
  endloop
endfacet
facet normal -0.0 -0.0 1.0
  outer loop
    vertex -1.9722011236812096 -7.360354796322699 0.0
    vertex -2.629601498241613 -9.813806395096933 0.0
    vertex -6.221205739668554e-16 -10.16 0.0
  endloop
endfacet
facet normal -0.0 -0.0 1.0
  outer loop
    vertex -1.9722011236812096 -7.360354796322699 0.0
    vertex -6.221205739668554e-16 -10.16 0.0
    vertex -4.6659043047514155e-16 -7.619999999999999 0.0
  endloop
endfacet
facet normal -0.0 -0.0 1.0
  outer loop
    vertex -4.6659043047514155e-16 -7.619999999999999 0.0
    vertex -6.221205739668554e-16 -10.16 0.0
    vertex 2.6296014982416094 -9.813806395096934 0.0
  endloop
endfacet
facet normal -0.0 -0.0 1.0
  outer loop
    vertex -4.6659043047514155e-16 -7.619999999999999 0.0
    vertex 2.6296014982416094 -9.813806395096934 0.0
    vertex 1.972201123681207 -7.3603547963227 0.0
  endloop
endfacet
facet normal -0.0 -0.0 1.0
  outer loop
    vertex 1.972201123681207 -7.3603547963227 0.0
    vertex 2.6296014982416094 -9.813806395096934 0.0
    vertex 3.8099999999999983 -6.599113576837423 0.0
  endloop
endfacet
facet normal -0.0 -0.0 1.0
  outer loop
    vertex 3.8099999999999983 -6.599113576837423 0.0
    vertex 2.6296014982416094 -9.813806395096934 0.0
    vertex 5.079999999999998 -8.798818102449898 0.0
  endloop
endfacet
facet normal -0.0 -0.0 1.0
  outer loop
    vertex 3.8099999999999983 -6.599113576837423 0.0
    vertex 5.079999999999998 -8.798818102449898 0.0
    vertex 5.388153672641491 -5.388153672641492 0.0
  endloop
endfacet
facet normal -0.0 -0.0 1.0
  outer loop
    vertex 5.388153672641491 -5.388153672641492 0.0
    vertex 5.079999999999998 -8.798818102449898 0.0
    vertex 7.184204896855323 -7.184204896855324 0.0
  endloop
endfacet
facet normal -0.0 -0.0 1.0
  outer loop
    vertex 5.388153672641491 -5.388153672641492 0.0
    vertex 7.184204896855323 -7.184204896855324 0.0
    vertex 6.59911357683742 -3.8100000000000023 0.0
  endloop
endfacet
facet normal -0.0 -0.0 1.0
  outer loop
    vertex 6.59911357683742 -3.8100000000000023 0.0
    vertex 7.184204896855323 -7.184204896855324 0.0
    vertex 7.360354796322699 -1.97220112368121 0.0
  endloop
endfacet
facet normal -0.0 -0.0 1.0
  outer loop
    vertex 7.360354796322699 -1.97220112368121 0.0
    vertex 7.184204896855323 -7.184204896855324 0.0
    vertex 8.798818102449895 -5.080000000000004 0.0
  endloop
endfacet
facet normal -0.0 -0.0 1.0
  outer loop
    vertex 7.360354796322699 -1.97220112368121 0.0
    vertex 8.798818102449895 -5.080000000000004 0.0
    vertex 7.619999999999999 -9.331808609502831e-16 0.0
  endloop
endfacet
facet normal -0.0 -0.0 1.0
  outer loop
    vertex -7.619999999999999 0.0 0.0
    vertex -7.184204896855323 7.184204896855324 0.0
    vertex -8.798818102449893 5.0800000000000045 0.0
  endloop
endfacet
facet normal -0.0 -0.0 1.0
  outer loop
    vertex -7.184204896855323 7.184204896855324 0.0
    vertex -7.619999999999999 0.0 0.0
    vertex -7.360354796322698 1.9722011236812138 0.0
  endloop
endfacet
facet normal -0.0 -0.0 1.0
  outer loop
    vertex -7.184204896855323 7.184204896855324 0.0
    vertex -7.360354796322698 1.9722011236812138 0.0
    vertex -6.59911357683742 3.810000000000003 0.0
  endloop
endfacet
facet normal -0.0 -0.0 1.0
  outer loop
    vertex -7.184204896855323 7.184204896855324 0.0
    vertex -6.59911357683742 3.810000000000003 0.0
    vertex -5.079999999999993 8.7988181024499 0.0
  endloop
endfacet
facet normal -0.0 -0.0 1.0
  outer loop
    vertex -5.079999999999993 8.7988181024499 0.0
    vertex -6.59911357683742 3.810000000000003 0.0
    vertex -5.388153672641491 5.388153672641494 0.0
  endloop
endfacet
facet normal -0.0 -0.0 1.0
  outer loop
    vertex -5.079999999999993 8.7988181024499 0.0
    vertex -5.388153672641491 5.388153672641494 0.0
    vertex -3.809999999999994 6.599113576837424 0.0
  endloop
endfacet
facet normal -0.0 -0.0 1.0
  outer loop
    vertex -5.079999999999993 8.7988181024499 0.0
    vertex -3.809999999999994 6.599113576837424 0.0
    vertex -2.6296014982416063 9.813806395096936 0.0
  endloop
endfacet
facet normal -0.0 -0.0 1.0
  outer loop
    vertex -2.6296014982416063 9.813806395096936 0.0
    vertex -3.809999999999994 6.599113576837424 0.0
    vertex -1.9722011236812045 7.3603547963227 0.0
  endloop
endfacet
facet normal -0.0 -0.0 1.0
  outer loop
    vertex -2.6296014982416063 9.813806395096936 0.0
    vertex -1.9722011236812045 7.3603547963227 0.0
    vertex 1.8663617219005662e-15 10.16 0.0
  endloop
endfacet
facet normal -0.0 -0.0 1.0
  outer loop
    vertex 1.8663617219005662e-15 10.16 0.0
    vertex -1.9722011236812045 7.3603547963227 0.0
    vertex 1.3997712914254245e-15 7.619999999999999 0.0
  endloop
endfacet
facet normal -0.0 -0.0 1.0
  outer loop
    vertex 1.8663617219005662e-15 10.16 0.0
    vertex 1.3997712914254245e-15 7.619999999999999 0.0
    vertex 1.9722011236812131 7.360354796322698 0.0
  endloop
endfacet
facet normal -0.0 -0.0 1.0
  outer loop
    vertex 1.8663617219005662e-15 10.16 0.0
    vertex 1.9722011236812131 7.360354796322698 0.0
    vertex 2.629601498241618 9.81380639509693 0.0
  endloop
endfacet
facet normal -0.0 -0.0 1.0
  outer loop
    vertex 2.629601498241618 9.81380639509693 0.0
    vertex 1.9722011236812131 7.360354796322698 0.0
    vertex 3.810000000000003 6.59911357683742 0.0
  endloop
endfacet
facet normal -0.0 -0.0 1.0
  outer loop
    vertex 2.629601498241618 9.81380639509693 0.0
    vertex 3.810000000000003 6.59911357683742 0.0
    vertex 5.0800000000000045 8.798818102449893 0.0
  endloop
endfacet
facet normal -0.0 -0.0 1.0
  outer loop
    vertex 5.0800000000000045 8.798818102449893 0.0
    vertex 3.810000000000003 6.59911357683742 0.0
    vertex 5.3881536726414945 5.388153672641489 0.0
  endloop
endfacet
facet normal -0.0 -0.0 1.0
  outer loop
    vertex 5.0800000000000045 8.798818102449893 0.0
    vertex 5.3881536726414945 5.388153672641489 0.0
    vertex 7.184204896855326 7.184204896855318 0.0
  endloop
endfacet
facet normal -0.0 -0.0 1.0
  outer loop
    vertex 7.184204896855326 7.184204896855318 0.0
    vertex 5.3881536726414945 5.388153672641489 0.0
    vertex 6.599113576837423 3.8099999999999983 0.0
  endloop
endfacet
facet normal -0.0 -0.0 1.0
  outer loop
    vertex 7.184204896855326 7.184204896855318 0.0
    vertex 6.599113576837423 3.8099999999999983 0.0
    vertex 7.3603547963227 1.9722011236812047 0.0
  endloop
endfacet
facet normal -0.0 -0.0 1.0
  outer loop
    vertex 7.184204896855326 7.184204896855318 0.0
    vertex 7.3603547963227 1.9722011236812047 0.0
    vertex 8.798818102449898 5.079999999999998 0.0
  endloop
endfacet
facet normal -0.0 -0.0 1.0
  outer loop
    vertex 8.798818102449898 5.079999999999998 0.0
    vertex 7.3603547963227 1.9722011236812047 0.0
    vertex 7.619999999999999 -9.331808609502831e-16 0.0
  endloop
endfacet
facet normal -0.0 -0.0 1.0
  outer loop
    vertex 8.798818102449898 5.079999999999998 0.0
    vertex 7.619999999999999 -9.331808609502831e-16 0.0
    vertex 8.798818102449895 -5.080000000000004 0.0
  endloop
endfacet
facet normal -0.0 -0.0 1.0
  outer loop
    vertex 8.798818102449898 5.079999999999998 0.0
    vertex 8.798818102449895 -5.080000000000004 0.0
    vertex 9.813806395096933 -2.6296014982416134 0.0
  endloop
endfacet
facet normal -0.0 -0.0 1.0
  outer loop
    vertex 8.798818102449898 5.079999999999998 0.0
    vertex 9.813806395096933 -2.6296014982416134 0.0
    vertex 9.813806395096936 2.6296014982416067 0.0
  endloop
endfacet
facet normal -0.0 -0.0 1.0
  outer loop
    vertex 9.813806395096936 2.6296014982416067 0.0
    vertex 9.813806395096933 -2.6296014982416134 0.0
    vertex 10.16 -1.2442411479337109e-15 0.0
  endloop
endfacet
endsolid housing-top
